<?xml version="1.0" encoding="utf-8"?>
<!-- Generator: Adobe Illustrator 23.0.1, SVG Export Plug-In . SVG Version: 6.00 Build 0)  -->
<svg version="1.1" id="Capa_1" xmlns="http://www.w3.org/2000/svg" xmlns:xlink="http://www.w3.org/1999/xlink" x="0px" y="0px"
	 viewBox="0 0 64 15" style="enable-background:new 0 0 64 15;" xml:space="preserve">
<g>
	<path d="M9.29,10.72C9.1,10.87,8.87,11,8.58,11.09c-0.29,0.09-0.63,0.14-1.01,0.14c-0.51,0-0.93-0.06-1.27-0.19
		c-0.33-0.13-0.55-0.35-0.65-0.66c-0.4-1.25-0.72-2.26-0.98-3.03c-0.26-0.77-0.45-1.45-0.6-2.03H3.97C3.93,6.15,3.9,6.91,3.87,7.6
		C3.85,8.29,3.84,8.96,3.83,9.61c-0.01,0.65-0.02,1.31-0.04,1.98s-0.05,1.4-0.1,2.21c-0.18,0.07-0.43,0.13-0.72,0.18
		c-0.3,0.05-0.6,0.07-0.89,0.07c-0.62,0-1.11-0.1-1.46-0.3c-0.35-0.2-0.52-0.56-0.52-1.09L0.71,1.82c0.11-0.18,0.36-0.38,0.74-0.6
		c0.38-0.21,0.92-0.32,1.62-0.32c0.75,0,1.34,0.12,1.77,0.35C5.27,1.49,5.58,1.87,5.78,2.4c0.13,0.34,0.27,0.73,0.41,1.17
		c0.15,0.44,0.3,0.89,0.45,1.36C6.79,5.4,6.93,5.86,7.08,6.32C7.22,6.78,7.35,7.2,7.46,7.57h0.11c0.34-1.19,0.68-2.34,1.02-3.46
		C8.93,3,9.24,2.06,9.52,1.31c0.21-0.11,0.49-0.21,0.82-0.29c0.33-0.08,0.71-0.12,1.12-0.12c0.69,0,1.26,0.1,1.7,0.31
		c0.44,0.21,0.69,0.5,0.77,0.88c0.06,0.28,0.12,0.72,0.18,1.31c0.06,0.59,0.13,1.25,0.2,1.99c0.07,0.74,0.14,1.52,0.21,2.34
		c0.07,0.82,0.14,1.61,0.2,2.37c0.06,0.76,0.12,1.45,0.16,2.09c0.04,0.63,0.07,1.12,0.09,1.46c-0.24,0.14-0.49,0.24-0.76,0.31
		c-0.26,0.06-0.6,0.1-1.01,0.1c-0.54,0-0.99-0.09-1.36-0.28c-0.37-0.18-0.57-0.55-0.6-1.09c-0.09-1.55-0.14-2.94-0.16-4.17
		c-0.02-1.23-0.05-2.27-0.1-3.11h-0.11c-0.14,0.55-0.35,1.25-0.62,2.09C10,8.34,9.67,9.41,9.29,10.72z"/>
	<path d="M20.78,3.23c0.77,0,1.46,0.08,2.1,0.23c0.63,0.16,1.17,0.39,1.62,0.71c0.45,0.32,0.79,0.72,1.03,1.21
		c0.24,0.49,0.36,1.07,0.36,1.73v4.77c0,0.37-0.1,0.67-0.31,0.9c-0.21,0.23-0.45,0.44-0.73,0.61c-0.92,0.55-2.22,0.83-3.89,0.83
		c-0.75,0-1.43-0.07-2.03-0.21c-0.6-0.14-1.12-0.35-1.55-0.64c-0.43-0.28-0.77-0.65-1-1.09c-0.23-0.44-0.35-0.95-0.35-1.53
		c0-0.98,0.29-1.73,0.87-2.26c0.58-0.52,1.48-0.85,2.7-0.98l2.79-0.3V7.08c0-0.41-0.18-0.71-0.54-0.88
		c-0.36-0.18-0.88-0.27-1.56-0.27c-0.54,0-1.06,0.06-1.57,0.17c-0.51,0.11-0.97,0.26-1.38,0.43c-0.18-0.13-0.34-0.32-0.47-0.59
		c-0.13-0.26-0.19-0.54-0.19-0.82c0-0.37,0.09-0.66,0.27-0.88c0.18-0.22,0.45-0.41,0.82-0.56c0.41-0.16,0.9-0.27,1.46-0.34
		C19.75,3.26,20.28,3.23,20.78,3.23z M20.95,11.59c0.24,0,0.51-0.02,0.8-0.07c0.29-0.05,0.51-0.12,0.65-0.2v-1.7l-1.53,0.13
		c-0.4,0.03-0.72,0.11-0.98,0.26c-0.26,0.14-0.38,0.35-0.38,0.64c0,0.28,0.11,0.51,0.33,0.69C20.05,11.5,20.43,11.59,20.95,11.59z"
		/>
	<path d="M31.19,13.87c-0.14,0.04-0.37,0.09-0.67,0.13c-0.3,0.04-0.62,0.06-0.95,0.06c-0.31,0-0.59-0.02-0.84-0.06
		c-0.25-0.04-0.46-0.13-0.63-0.26c-0.17-0.13-0.3-0.3-0.39-0.52c-0.09-0.22-0.14-0.51-0.14-0.86V5.97c0-0.33,0.06-0.61,0.18-0.84
		c0.12-0.23,0.29-0.44,0.52-0.63c0.23-0.18,0.51-0.35,0.84-0.5c0.33-0.15,0.69-0.28,1.07-0.39c0.38-0.11,0.78-0.2,1.19-0.27
		c0.41-0.06,0.82-0.1,1.23-0.1c0.68,0,1.22,0.13,1.62,0.39c0.4,0.26,0.6,0.69,0.6,1.29c0,0.2-0.03,0.39-0.09,0.59
		c-0.06,0.19-0.13,0.37-0.21,0.52c-0.3,0-0.6,0.01-0.92,0.04c-0.31,0.03-0.62,0.07-0.91,0.13s-0.58,0.12-0.84,0.18
		c-0.26,0.06-0.49,0.14-0.67,0.22V13.87z"/>
	<path d="M40.53,3.23c0.58,0,1.15,0.08,1.71,0.24c0.56,0.16,1.05,0.41,1.46,0.73c0.43-0.28,0.9-0.52,1.44-0.7
		c0.53-0.18,1.17-0.28,1.93-0.28c0.54,0,1.07,0.07,1.59,0.21c0.52,0.14,0.98,0.37,1.38,0.67c0.4,0.3,0.73,0.71,0.97,1.21
		c0.24,0.5,0.36,1.12,0.36,1.84v6.7c-0.14,0.04-0.37,0.09-0.67,0.13c-0.31,0.04-0.62,0.06-0.95,0.06c-0.31,0-0.59-0.02-0.84-0.06
		c-0.25-0.04-0.46-0.13-0.63-0.26c-0.17-0.13-0.3-0.3-0.39-0.52c-0.09-0.22-0.14-0.51-0.14-0.86V7.27c0-0.43-0.12-0.73-0.36-0.93
		c-0.24-0.19-0.57-0.29-0.98-0.29c-0.2,0-0.41,0.05-0.64,0.14c-0.23,0.09-0.4,0.19-0.51,0.29c0.01,0.06,0.02,0.11,0.02,0.16
		c0,0.05,0,0.1,0,0.14v7.09c-0.16,0.04-0.39,0.09-0.69,0.13c-0.31,0.04-0.61,0.06-0.93,0.06c-0.31,0-0.59-0.02-0.84-0.06
		c-0.25-0.04-0.46-0.13-0.63-0.26c-0.17-0.13-0.3-0.3-0.39-0.52c-0.09-0.22-0.14-0.51-0.14-0.86V7.27c0-0.43-0.13-0.73-0.39-0.93
		C41,6.15,40.68,6.06,40.31,6.06c-0.26,0-0.48,0.04-0.66,0.12c-0.18,0.08-0.34,0.15-0.47,0.22v7.47c-0.14,0.04-0.37,0.09-0.67,0.13
		c-0.3,0.04-0.62,0.06-0.95,0.06c-0.31,0-0.59-0.02-0.84-0.06c-0.25-0.04-0.46-0.13-0.63-0.26c-0.17-0.13-0.3-0.3-0.39-0.52
		c-0.09-0.22-0.14-0.51-0.14-0.86V5.93c0-0.38,0.08-0.69,0.24-0.92c0.16-0.23,0.39-0.44,0.67-0.64c0.48-0.34,1.08-0.62,1.8-0.83
		C39,3.33,39.75,3.23,40.53,3.23z"/>
	<path d="M63.74,8.72c0,0.88-0.13,1.66-0.4,2.35c-0.27,0.69-0.65,1.27-1.14,1.73c-0.49,0.47-1.07,0.82-1.76,1.06
		c-0.68,0.24-1.44,0.36-2.28,0.36c-0.84,0-1.6-0.13-2.28-0.38c-0.68-0.26-1.27-0.62-1.76-1.1c-0.49-0.48-0.87-1.05-1.14-1.73
		c-0.27-0.68-0.4-1.45-0.4-2.3c0-0.84,0.13-1.6,0.4-2.28c0.27-0.68,0.65-1.26,1.14-1.73c0.49-0.48,1.07-0.84,1.76-1.1
		c0.68-0.26,1.44-0.38,2.28-0.38c0.84,0,1.6,0.13,2.28,0.39c0.68,0.26,1.27,0.63,1.76,1.11c0.49,0.48,0.87,1.05,1.14,1.73
		C63.61,7.14,63.74,7.89,63.74,8.72z M56.29,8.72c0,0.87,0.17,1.53,0.5,1.99c0.33,0.46,0.8,0.69,1.39,0.69c0.6,0,1.05-0.23,1.37-0.7
		c0.32-0.47,0.48-1.13,0.48-1.98c0-0.85-0.16-1.51-0.49-1.97c-0.33-0.46-0.79-0.69-1.38-0.69s-1.06,0.23-1.38,0.69
		C56.46,7.21,56.29,7.87,56.29,8.72z"/>
</g>
</svg>
