<svg id="Capa_1" data-name="Capa 1" xmlns="http://www.w3.org/2000/svg" viewBox="0 0 100 42.4"><defs><style>.cls-1{fill:#f7c34d;}</style></defs><title>marmo-iso</title><path class="cls-1" d="M78.8,0H21.2A21.2,21.2,0,0,0,0,21.2H0A21.2,21.2,0,0,0,21.2,42.4H100V21.2h0A21.2,21.2,0,0,0,78.8,0Z"/><path d="M22.74,26.09a2.4,2.4,0,0,1-.87.46,4.22,4.22,0,0,1-1.24.17,4.53,4.53,0,0,1-1.55-.23,1.26,1.26,0,0,1-.8-.81q-.72-2.3-1.2-3.72c-.31-.94-.55-1.77-.73-2.49h-.13c0,1-.09,2-.12,2.81s0,1.66-.05,2.46,0,1.61-.05,2.42-.06,1.72-.12,2.72a5.09,5.09,0,0,1-.88.22,6.8,6.8,0,0,1-1.1.09,3.52,3.52,0,0,1-1.78-.37,1.38,1.38,0,0,1-.64-1.33l.75-13.29a2.49,2.49,0,0,1,.92-.73,4.14,4.14,0,0,1,2-.39,4.47,4.47,0,0,1,2.16.43,2.56,2.56,0,0,1,1.15,1.39L19,17.34c.18.53.36,1.09.54,1.66s.36,1.15.54,1.71.33,1.07.47,1.53h.13c.42-1.46.83-2.88,1.25-4.24s.8-2.51,1.15-3.43a4.27,4.27,0,0,1,1-.35,5.77,5.77,0,0,1,1.37-.14,4.94,4.94,0,0,1,2.08.37,1.51,1.51,0,0,1,.94,1.09c.07.34.15.88.22,1.6s.17,1.53.25,2.44.18,1.86.26,2.87.17,2,.25,2.9.14,1.78.2,2.56.08,1.37.1,1.78a3.32,3.32,0,0,1-.92.38,5.36,5.36,0,0,1-1.24.12,3.66,3.66,0,0,1-1.67-.34,1.43,1.43,0,0,1-.73-1.33c-.11-1.89-.17-3.6-.2-5.11s-.06-2.78-.11-3.81H24.7c-.18.68-.43,1.53-.76,2.56S23.21,24.5,22.74,26.09Z"/><path d="M36.82,16.92a10.31,10.31,0,0,1,2.57.29,5.78,5.78,0,0,1,2,.87,3.92,3.92,0,0,1,1.26,1.48,4.71,4.71,0,0,1,.44,2.13v5.84a1.64,1.64,0,0,1-.37,1.11,4.33,4.33,0,0,1-.9.74,9.29,9.29,0,0,1-4.77,1,11.14,11.14,0,0,1-2.49-.26,6,6,0,0,1-1.91-.79A3.54,3.54,0,0,1,31.41,28,3.85,3.85,0,0,1,31,26.15a3.53,3.53,0,0,1,1.07-2.77,5.79,5.79,0,0,1,3.31-1.2l3.41-.36v-.18a1.13,1.13,0,0,0-.66-1.09,4.59,4.59,0,0,0-1.92-.32,8.85,8.85,0,0,0-1.93.21,10.2,10.2,0,0,0-1.69.52,1.86,1.86,0,0,1-.58-.72,2.32,2.32,0,0,1-.23-1,1.66,1.66,0,0,1,.33-1.08,2.45,2.45,0,0,1,1-.69,7.48,7.48,0,0,1,1.79-.42A14.81,14.81,0,0,1,36.82,16.92ZM37,27.16a5.83,5.83,0,0,0,1-.09,2.46,2.46,0,0,0,.8-.24V24.74l-1.88.16a2.93,2.93,0,0,0-1.2.31.84.84,0,0,0-.47.78,1,1,0,0,0,.41.85A2.19,2.19,0,0,0,37,27.16Z"/><path d="M49.57,30a4.86,4.86,0,0,1-.83.16,8.68,8.68,0,0,1-1.16.08,6.21,6.21,0,0,1-1-.08,1.74,1.74,0,0,1-.77-.31,1.59,1.59,0,0,1-.49-.64,2.83,2.83,0,0,1-.17-1.06V20.28a2.21,2.21,0,0,1,.23-1,2.4,2.4,0,0,1,.63-.77,5,5,0,0,1,1-.61,11.32,11.32,0,0,1,1.32-.48,11.48,11.48,0,0,1,1.46-.33,9.61,9.61,0,0,1,1.51-.12,3.53,3.53,0,0,1,2,.49A1.73,1.73,0,0,1,54,19a2.46,2.46,0,0,1-.1.72,3.42,3.42,0,0,1-.26.64c-.37,0-.74,0-1.12.05s-.76.09-1.12.16-.71.14-1,.22a4.92,4.92,0,0,0-.82.27Z"/><path d="M61,16.92a7.51,7.51,0,0,1,2.1.3,5.2,5.2,0,0,1,1.79.9,7.2,7.2,0,0,1,1.76-.86A7.07,7.07,0,0,1,69,16.92a7.51,7.51,0,0,1,1.95.26,4.92,4.92,0,0,1,1.69.82,3.94,3.94,0,0,1,1.19,1.49,5.25,5.25,0,0,1,.44,2.25V30a4.7,4.7,0,0,1-.82.16,8.68,8.68,0,0,1-1.16.08,6.34,6.34,0,0,1-1-.08,1.84,1.84,0,0,1-.77-.31,1.49,1.49,0,0,1-.48-.64,2.83,2.83,0,0,1-.17-1.06V21.87a1.36,1.36,0,0,0-.44-1.13,1.86,1.86,0,0,0-1.2-.35,2.14,2.14,0,0,0-.79.16,2.6,2.6,0,0,0-.62.36.68.68,0,0,1,0,.19V30a5.93,5.93,0,0,1-.85.16,8.62,8.62,0,0,1-1.14.08,6.43,6.43,0,0,1-1-.08A1.84,1.84,0,0,1,63,29.8a1.66,1.66,0,0,1-.48-.64,2.83,2.83,0,0,1-.17-1.06V21.87a1.3,1.3,0,0,0-.48-1.13,1.88,1.88,0,0,0-1.16-.35,2,2,0,0,0-.81.14c-.22.09-.41.19-.57.27V30a4.91,4.91,0,0,1-.82.16,8.8,8.8,0,0,1-1.16.08,6.34,6.34,0,0,1-1-.08,1.79,1.79,0,0,1-.77-.31,1.49,1.49,0,0,1-.48-.64,2.64,2.64,0,0,1-.17-1.06V20.23a1.88,1.88,0,0,1,.3-1.12,3.24,3.24,0,0,1,.82-.78,7.36,7.36,0,0,1,2.2-1A9.67,9.67,0,0,1,61,16.92Z"/><path d="M89.45,23.64A7.93,7.93,0,0,1,89,26.53,5.75,5.75,0,0,1,85.41,30a8.16,8.16,0,0,1-2.79.45,8,8,0,0,1-2.79-.47,6.19,6.19,0,0,1-2.15-1.35,6,6,0,0,1-1.39-2.12,7.58,7.58,0,0,1-.5-2.82,7.48,7.48,0,0,1,.5-2.78,5.92,5.92,0,0,1,1.39-2.13,6.16,6.16,0,0,1,2.15-1.34,8.43,8.43,0,0,1,5.58,0,6.12,6.12,0,0,1,2.15,1.36A6,6,0,0,1,89,20.88,7.48,7.48,0,0,1,89.45,23.64Zm-9.12,0a4.11,4.11,0,0,0,.61,2.44,2,2,0,0,0,1.71.85,1.92,1.92,0,0,0,1.68-.86,4.28,4.28,0,0,0,.59-2.43,4.15,4.15,0,0,0-.6-2.41,2.13,2.13,0,0,0-3.39,0A4.15,4.15,0,0,0,80.33,23.64Z"/></svg>