<?xml version="1.0" encoding="utf-8"?>
<!-- Generator: Adobe Illustrator 23.0.1, SVG Export Plug-In . SVG Version: 6.00 Build 0)  -->
<svg version="1.1" id="Capa_1" xmlns="http://www.w3.org/2000/svg" xmlns:xlink="http://www.w3.org/1999/xlink" x="0px" y="0px"
	 viewBox="0 0 138.74 136.67" style="enable-background:new 0 0 138.74 136.67;" xml:space="preserve">
<style type="text/css">
	.st0{fill:#A5A5A5;}
</style>
<g>
	<path class="st0" d="M68,14.4c-0.86,0-1.72-0.06-2.6-0.17c-0.87-0.11-1.51-0.22-1.93-0.33V9.77c0,0.97-0.11,1.75-0.34,2.34
		c-0.22,0.6-0.56,1.06-1,1.4c-0.45,0.34-0.99,0.57-1.65,0.7c-0.65,0.13-1.4,0.19-2.26,0.19c-0.86,0-1.72-0.06-2.6-0.17
		c-0.87-0.11-1.51-0.22-1.93-0.33V9.77c0,0.97-0.11,1.75-0.34,2.34c-0.22,0.6-0.56,1.06-1,1.4c-0.45,0.34-0.99,0.57-1.65,0.7
		c-0.65,0.13-1.4,0.19-2.26,0.19c-0.86,0-1.72-0.06-2.6-0.17c-0.87-0.11-1.51-0.22-1.93-0.33V9.77c0,0.97-0.11,1.75-0.34,2.34
		c-0.22,0.6-0.56,1.06-1,1.4c-0.45,0.34-0.99,0.57-1.65,0.7c-0.65,0.13-1.4,0.19-2.26,0.19c-0.86,0-1.72-0.06-2.6-0.17
		c-0.87-0.11-1.51-0.22-1.93-0.33V9.77c0,0.97-0.11,1.75-0.34,2.34c-0.22,0.6-0.56,1.06-1,1.4c-0.45,0.34-0.99,0.57-1.65,0.7
		c-0.65,0.13-1.4,0.19-2.26,0.19c-0.86,0-1.72-0.06-2.6-0.17c-0.87-0.11-1.51-0.22-1.93-0.33V9.77c0,0.97-0.11,1.75-0.34,2.34
		c-0.22,0.6-0.56,1.06-1,1.4c-0.45,0.34-0.99,0.57-1.65,0.7c-0.65,0.13-1.4,0.19-2.26,0.19c-0.86,0-1.72-0.06-2.6-0.17
		c-0.87-0.11-1.51-0.22-1.93-0.33V9.77c0,0.97-0.11,1.75-0.34,2.34c-0.22,0.6-0.56,1.06-1,1.4c-0.45,0.34-0.99,0.57-1.65,0.7
		c-0.65,0.13-1.4,0.19-2.26,0.19c-0.86,0-1.72-0.06-2.6-0.17c-0.87-0.11-1.51-0.22-1.93-0.33V9.77c0,0.97-0.11,1.75-0.34,2.34
		c-0.22,0.6-0.56,1.06-1,1.4c-0.45,0.34-0.99,0.57-1.65,0.7c-0.55,0.11-1.2,0.16-1.9,0.18v0.03c0.12,0,0.23-0.01,0.36-0.01
		c0.82,0,1.67,0.07,2.57,0.2c0.89,0.13,1.54,0.23,1.95,0.31v4.13c0-0.97,0.11-1.75,0.34-2.34c0.22-0.59,0.56-1.06,1-1.4
		c0.45-0.33,1-0.57,1.65-0.7c0.65-0.13,1.4-0.2,2.26-0.2c0.82,0,1.67,0.07,2.57,0.2c0.89,0.13,1.54,0.23,1.95,0.31v4.13
		c0-0.97,0.11-1.75,0.34-2.34c0.22-0.59,0.56-1.06,1-1.4c0.45-0.33,1-0.57,1.65-0.7c0.65-0.13,1.4-0.2,2.26-0.2
		c0.82,0,1.67,0.07,2.57,0.2c0.89,0.13,1.54,0.23,1.95,0.31v4.13c0-0.97,0.11-1.75,0.34-2.34c0.22-0.59,0.56-1.06,1-1.4
		c0.45-0.33,1-0.57,1.65-0.7c0.65-0.13,1.4-0.2,2.26-0.2c0.82,0,1.67,0.07,2.57,0.2c0.89,0.13,1.54,0.23,1.95,0.31v4.13
		c0-0.97,0.11-1.75,0.34-2.34c0.22-0.59,0.56-1.06,1-1.4c0.45-0.33,1-0.57,1.65-0.7c0.65-0.13,1.4-0.2,2.26-0.2
		c0.82,0,1.67,0.07,2.57,0.2c0.89,0.13,1.54,0.23,1.95,0.31v4.13c0-0.97,0.11-1.75,0.34-2.34c0.22-0.59,0.56-1.06,1-1.4
		c0.45-0.33,1-0.57,1.65-0.7c0.65-0.13,1.4-0.2,2.26-0.2c0.82,0,1.67,0.07,2.57,0.2c0.89,0.13,1.54,0.23,1.95,0.31v4.13
		c0-0.97,0.11-1.75,0.34-2.34c0.22-0.59,0.56-1.06,1-1.4c0.45-0.33,1-0.57,1.65-0.7c0.65-0.13,1.4-0.2,2.26-0.2
		c0.82,0,1.67,0.07,2.57,0.2c0.89,0.13,1.54,0.23,1.95,0.31v4.13c0-0.97,0.11-1.75,0.34-2.34c0.22-0.59,0.56-1.06,1-1.4
		c0.45-0.33,1-0.57,1.65-0.7c0.65-0.13,1.4-0.2,2.26-0.2c0.21,0,0.43,0.02,0.64,0.03v-0.1C68.94,14.37,68.49,14.4,68,14.4z"/>
	<path class="st0" d="M68,4.63c-0.86,0-1.72-0.06-2.6-0.17c-0.87-0.11-1.51-0.22-1.93-0.33V0c0,0.97-0.11,1.75-0.34,2.34
		c-0.22,0.6-0.56,1.06-1,1.4c-0.45,0.34-0.99,0.57-1.65,0.7c-0.65,0.13-1.4,0.19-2.26,0.19c-0.86,0-1.72-0.06-2.6-0.17
		c-0.87-0.11-1.51-0.22-1.93-0.33V0c0,0.97-0.11,1.75-0.34,2.34c-0.22,0.6-0.56,1.06-1,1.4c-0.45,0.34-0.99,0.57-1.65,0.7
		c-0.65,0.13-1.4,0.19-2.26,0.19c-0.86,0-1.72-0.06-2.6-0.17C45,4.35,44.36,4.24,43.95,4.13V0c0,0.97-0.11,1.75-0.34,2.34
		c-0.22,0.6-0.56,1.06-1,1.4c-0.45,0.34-0.99,0.57-1.65,0.7c-0.65,0.13-1.4,0.19-2.26,0.19c-0.86,0-1.72-0.06-2.6-0.17
		c-0.87-0.11-1.51-0.22-1.93-0.33V0c0,0.97-0.11,1.75-0.34,2.34c-0.22,0.6-0.56,1.06-1,1.4c-0.45,0.34-0.99,0.57-1.65,0.7
		c-0.65,0.13-1.4,0.19-2.26,0.19c-0.86,0-1.72-0.06-2.6-0.17c-0.87-0.11-1.51-0.22-1.93-0.33V0c0,0.97-0.11,1.75-0.34,2.34
		c-0.22,0.6-0.56,1.06-1,1.4c-0.45,0.34-0.99,0.57-1.65,0.7c-0.65,0.13-1.4,0.19-2.26,0.19c-0.86,0-1.72-0.06-2.6-0.17
		c-0.87-0.11-1.51-0.22-1.93-0.33V0c0,0.97-0.11,1.75-0.34,2.34c-0.22,0.6-0.56,1.06-1,1.4c-0.45,0.34-0.99,0.57-1.65,0.7
		c-0.65,0.13-1.4,0.19-2.26,0.19c-0.86,0-1.72-0.06-2.6-0.17C5.93,4.35,5.29,4.24,4.88,4.13V0c0,0.97-0.11,1.75-0.34,2.34
		c-0.22,0.6-0.56,1.06-1,1.4C3.1,4.07,2.55,4.31,1.9,4.44C1.34,4.55,0.7,4.6,0,4.62v0.03c0.12,0,0.23-0.01,0.36-0.01
		c0.82,0,1.67,0.07,2.57,0.2c0.89,0.13,1.54,0.23,1.95,0.31v4.13c0-0.97,0.11-1.75,0.34-2.34c0.22-0.59,0.56-1.06,1-1.4
		c0.45-0.33,1-0.57,1.65-0.7c0.65-0.13,1.4-0.2,2.26-0.2c0.82,0,1.67,0.07,2.57,0.2c0.89,0.13,1.54,0.23,1.95,0.31v4.13
		c0-0.97,0.11-1.75,0.34-2.34c0.22-0.59,0.56-1.06,1-1.4c0.45-0.33,1-0.57,1.65-0.7c0.65-0.13,1.4-0.2,2.26-0.2
		c0.82,0,1.67,0.07,2.57,0.2c0.89,0.13,1.54,0.23,1.95,0.31v4.13c0-0.97,0.11-1.75,0.34-2.34c0.22-0.59,0.56-1.06,1-1.4
		c0.45-0.33,1-0.57,1.65-0.7c0.65-0.13,1.4-0.2,2.26-0.2c0.82,0,1.67,0.07,2.57,0.2c0.89,0.13,1.54,0.23,1.95,0.31v4.13
		c0-0.97,0.11-1.75,0.34-2.34c0.22-0.59,0.56-1.06,1-1.4c0.45-0.33,1-0.57,1.65-0.7c0.65-0.13,1.4-0.2,2.26-0.2
		c0.82,0,1.67,0.07,2.57,0.2c0.89,0.13,1.54,0.23,1.95,0.31v4.13c0-0.97,0.11-1.75,0.34-2.34c0.22-0.59,0.56-1.06,1-1.4
		c0.45-0.33,1-0.57,1.65-0.7c0.65-0.13,1.4-0.2,2.26-0.2c0.82,0,1.67,0.07,2.57,0.2c0.89,0.13,1.54,0.23,1.95,0.31v4.13
		c0-0.97,0.11-1.75,0.34-2.34c0.22-0.59,0.56-1.06,1-1.4c0.45-0.33,1-0.57,1.65-0.7c0.65-0.13,1.4-0.2,2.26-0.2
		c0.82,0,1.67,0.07,2.57,0.2c0.89,0.13,1.54,0.23,1.95,0.31v4.13c0-0.97,0.11-1.75,0.34-2.34c0.22-0.59,0.56-1.06,1-1.4
		c0.45-0.33,1-0.57,1.65-0.7c0.65-0.13,1.4-0.2,2.26-0.2c0.21,0,0.43,0.02,0.64,0.03v-0.1C68.94,4.6,68.49,4.63,68,4.63z"/>
	<path class="st0" d="M68,24.17c-0.86,0-1.72-0.06-2.6-0.17c-0.87-0.11-1.51-0.22-1.93-0.33v-4.13c0,0.97-0.11,1.75-0.34,2.34
		c-0.22,0.6-0.56,1.06-1,1.4c-0.45,0.34-0.99,0.57-1.65,0.7c-0.65,0.13-1.4,0.19-2.26,0.19c-0.86,0-1.72-0.06-2.6-0.17
		c-0.87-0.11-1.51-0.22-1.93-0.33v-4.13c0,0.97-0.11,1.75-0.34,2.34c-0.22,0.6-0.56,1.06-1,1.4c-0.45,0.34-0.99,0.57-1.65,0.7
		c-0.65,0.13-1.4,0.19-2.26,0.19c-0.86,0-1.72-0.06-2.6-0.17c-0.87-0.11-1.51-0.22-1.93-0.33v-4.13c0,0.97-0.11,1.75-0.34,2.34
		c-0.22,0.6-0.56,1.06-1,1.4c-0.45,0.34-0.99,0.57-1.65,0.7c-0.65,0.13-1.4,0.19-2.26,0.19c-0.86,0-1.72-0.06-2.6-0.17
		c-0.87-0.11-1.51-0.22-1.93-0.33v-4.13c0,0.97-0.11,1.75-0.34,2.34c-0.22,0.6-0.56,1.06-1,1.4c-0.45,0.34-0.99,0.57-1.65,0.7
		c-0.65,0.13-1.4,0.19-2.26,0.19c-0.86,0-1.72-0.06-2.6-0.17c-0.87-0.11-1.51-0.22-1.93-0.33v-4.13c0,0.97-0.11,1.75-0.34,2.34
		c-0.22,0.6-0.56,1.06-1,1.4c-0.45,0.34-0.99,0.57-1.65,0.7c-0.65,0.13-1.4,0.19-2.26,0.19c-0.86,0-1.72-0.06-2.6-0.17
		c-0.87-0.11-1.51-0.22-1.93-0.33v-4.13c0,0.97-0.11,1.75-0.34,2.34c-0.22,0.6-0.56,1.06-1,1.4c-0.45,0.34-0.99,0.57-1.65,0.7
		c-0.65,0.13-1.4,0.19-2.26,0.19c-0.86,0-1.72-0.06-2.6-0.17c-0.87-0.11-1.51-0.22-1.93-0.33v-4.13c0,0.97-0.11,1.75-0.34,2.34
		c-0.22,0.6-0.56,1.06-1,1.4c-0.45,0.34-0.99,0.57-1.65,0.7c-0.55,0.11-1.2,0.16-1.9,0.18v0.03c0.12,0,0.23-0.01,0.36-0.01
		c0.82,0,1.67,0.07,2.57,0.2c0.89,0.13,1.54,0.23,1.95,0.31v4.13c0-0.97,0.11-1.75,0.34-2.34c0.22-0.59,0.56-1.06,1-1.4
		c0.45-0.33,1-0.57,1.65-0.7c0.65-0.13,1.4-0.2,2.26-0.2c0.82,0,1.67,0.07,2.57,0.2c0.89,0.13,1.54,0.23,1.95,0.31v4.13
		c0-0.97,0.11-1.75,0.34-2.34c0.22-0.59,0.56-1.06,1-1.4c0.45-0.33,1-0.57,1.65-0.7c0.65-0.13,1.4-0.2,2.26-0.2
		c0.82,0,1.67,0.07,2.57,0.2c0.89,0.13,1.54,0.23,1.95,0.31v4.13c0-0.97,0.11-1.75,0.34-2.34c0.22-0.59,0.56-1.06,1-1.4
		c0.45-0.33,1-0.57,1.65-0.7c0.65-0.13,1.4-0.2,2.26-0.2c0.82,0,1.67,0.07,2.57,0.2c0.89,0.13,1.54,0.23,1.95,0.31v4.13
		c0-0.97,0.11-1.75,0.34-2.34c0.22-0.59,0.56-1.06,1-1.4c0.45-0.33,1-0.57,1.65-0.7c0.65-0.13,1.4-0.2,2.26-0.2
		c0.82,0,1.67,0.07,2.57,0.2c0.89,0.13,1.54,0.23,1.95,0.31v4.13c0-0.97,0.11-1.75,0.34-2.34c0.22-0.59,0.56-1.06,1-1.4
		c0.45-0.33,1-0.57,1.65-0.7c0.65-0.13,1.4-0.2,2.26-0.2c0.82,0,1.67,0.07,2.57,0.2c0.89,0.13,1.54,0.23,1.95,0.31v4.13
		c0-0.97,0.11-1.75,0.34-2.34c0.22-0.59,0.56-1.06,1-1.4c0.45-0.33,1-0.57,1.65-0.7c0.65-0.13,1.4-0.2,2.26-0.2
		c0.82,0,1.67,0.07,2.57,0.2c0.89,0.13,1.54,0.23,1.95,0.31v4.13c0-0.97,0.11-1.75,0.34-2.34c0.22-0.59,0.56-1.06,1-1.4
		c0.45-0.33,1-0.57,1.65-0.7c0.65-0.13,1.4-0.2,2.26-0.2c0.21,0,0.43,0.02,0.64,0.03v-0.1C68.94,24.14,68.49,24.17,68,24.17z"/>
	<path class="st0" d="M4.88,69.12v-0.75c0,0.26-0.01,0.51-0.03,0.75H4.88z"/>
	<path class="st0" d="M63.81,55.76c0.22-0.59,0.56-1.06,1-1.4c0.45-0.33,1-0.57,1.65-0.7c0.65-0.13,1.4-0.2,2.26-0.2
		c0.21,0,0.43,0.02,0.64,0.03v-0.1c-0.43,0.04-0.88,0.07-1.37,0.07c-0.86,0-1.72-0.06-2.6-0.17c-0.87-0.11-1.51-0.22-1.93-0.33
		v-4.13c0,0.97-0.11,1.75-0.34,2.34c-0.22,0.6-0.56,1.06-1,1.4c-0.45,0.34-0.99,0.57-1.65,0.7c-0.65,0.13-1.4,0.19-2.26,0.19
		c-0.86,0-1.72-0.06-2.6-0.17c-0.87-0.11-1.51-0.22-1.93-0.33v-4.13c0,0.97-0.11,1.75-0.34,2.34c-0.22,0.6-0.56,1.06-1,1.4
		c-0.45,0.34-0.99,0.57-1.65,0.7c-0.65,0.13-1.4,0.19-2.26,0.19c-0.86,0-1.72-0.06-2.6-0.17c-0.87-0.11-1.51-0.22-1.93-0.33v-4.13
		c0,0.97-0.11,1.75-0.34,2.34c-0.22,0.6-0.56,1.06-1,1.4c-0.45,0.34-0.99,0.57-1.65,0.7c-0.65,0.13-1.4,0.19-2.26,0.19
		c-0.86,0-1.72-0.06-2.6-0.17c-0.87-0.11-1.51-0.22-1.93-0.33v-4.13c0,0.97-0.11,1.75-0.34,2.34c-0.22,0.6-0.56,1.06-1,1.4
		c-0.45,0.34-0.99,0.57-1.65,0.7c-0.65,0.13-1.4,0.19-2.26,0.19c-0.86,0-1.72-0.06-2.6-0.17c-0.87-0.11-1.51-0.22-1.93-0.33v-4.13
		c0,0.97-0.11,1.75-0.34,2.34c-0.22,0.6-0.56,1.06-1,1.4c-0.45,0.34-0.99,0.57-1.65,0.7c-0.65,0.13-1.4,0.19-2.26,0.19
		c-0.86,0-1.72-0.06-2.6-0.17c-0.87-0.11-1.51-0.22-1.93-0.33v-4.13c0,0.97-0.11,1.75-0.34,2.34c-0.22,0.6-0.56,1.06-1,1.4
		c-0.45,0.34-0.99,0.57-1.65,0.7c-0.65,0.13-1.4,0.19-2.26,0.19c-0.86,0-1.72-0.06-2.6-0.17c-0.87-0.11-1.51-0.22-1.93-0.33v-4.13
		c0,0.97-0.11,1.75-0.34,2.34c-0.22,0.6-0.56,1.06-1,1.4c-0.45,0.34-0.99,0.57-1.65,0.7c-0.55,0.11-1.2,0.16-1.9,0.18v0.03
		c0.12,0,0.23-0.01,0.36-0.01c0.82,0,1.67,0.07,2.57,0.2c0.89,0.13,1.54,0.23,1.95,0.31v4.13c0-0.97,0.11-1.75,0.34-2.34
		c0.22-0.59,0.56-1.06,1-1.4c0.45-0.33,1-0.57,1.65-0.7c0.65-0.13,1.4-0.2,2.26-0.2c0.82,0,1.67,0.07,2.57,0.2
		c0.89,0.13,1.54,0.23,1.95,0.31v4.13c0-0.97,0.11-1.75,0.34-2.34c0.22-0.59,0.56-1.06,1-1.4c0.45-0.33,1-0.57,1.65-0.7
		c0.65-0.13,1.4-0.2,2.26-0.2c0.82,0,1.67,0.07,2.57,0.2c0.89,0.13,1.54,0.23,1.95,0.31v4.13c0-0.97,0.11-1.75,0.34-2.34
		c0.22-0.59,0.56-1.06,1-1.4c0.45-0.33,1-0.57,1.65-0.7c0.65-0.13,1.4-0.2,2.26-0.2c0.82,0,1.67,0.07,2.57,0.2
		c0.89,0.13,1.54,0.23,1.95,0.31v4.13c0-0.97,0.11-1.75,0.34-2.34c0.22-0.59,0.56-1.06,1-1.4c0.45-0.33,1-0.57,1.65-0.7
		c0.65-0.13,1.4-0.2,2.26-0.2c0.82,0,1.67,0.07,2.57,0.2c0.89,0.13,1.54,0.23,1.95,0.31v4.13c0-0.97,0.11-1.75,0.34-2.34
		c0.22-0.59,0.56-1.06,1-1.4c0.45-0.33,1-0.57,1.65-0.7c0.65-0.13,1.4-0.2,2.26-0.2c0.82,0,1.67,0.07,2.57,0.2
		c0.89,0.13,1.54,0.23,1.95,0.31v4.13c0-0.97,0.11-1.75,0.34-2.34c0.22-0.59,0.56-1.06,1-1.4c0.45-0.33,1-0.57,1.65-0.7
		c0.65-0.13,1.4-0.2,2.26-0.2c0.82,0,1.67,0.07,2.57,0.2c0.89,0.13,1.54,0.23,1.95,0.31v4.13C63.48,57.13,63.59,56.35,63.81,55.76z"
		/>
	<path class="st0" d="M68,43.7c-0.86,0-1.72-0.06-2.6-0.17c-0.87-0.11-1.51-0.22-1.93-0.33v-4.13c0,0.97-0.11,1.75-0.34,2.34
		c-0.22,0.6-0.56,1.06-1,1.4c-0.45,0.34-0.99,0.57-1.65,0.7c-0.65,0.13-1.4,0.19-2.26,0.19c-0.86,0-1.72-0.06-2.6-0.17
		c-0.87-0.11-1.51-0.22-1.93-0.33v-4.13c0,0.97-0.11,1.75-0.34,2.34c-0.22,0.6-0.56,1.06-1,1.4c-0.45,0.34-0.99,0.57-1.65,0.7
		c-0.65,0.13-1.4,0.19-2.26,0.19c-0.86,0-1.72-0.06-2.6-0.17c-0.87-0.11-1.51-0.22-1.93-0.33v-4.13c0,0.97-0.11,1.75-0.34,2.34
		c-0.22,0.6-0.56,1.06-1,1.4c-0.45,0.34-0.99,0.57-1.65,0.7c-0.65,0.13-1.4,0.19-2.26,0.19c-0.86,0-1.72-0.06-2.6-0.17
		c-0.87-0.11-1.51-0.22-1.93-0.33v-4.13c0,0.97-0.11,1.75-0.34,2.34c-0.22,0.6-0.56,1.06-1,1.4c-0.45,0.34-0.99,0.57-1.65,0.7
		c-0.65,0.13-1.4,0.19-2.26,0.19c-0.86,0-1.72-0.06-2.6-0.17c-0.87-0.11-1.51-0.22-1.93-0.33v-4.13c0,0.97-0.11,1.75-0.34,2.34
		c-0.22,0.6-0.56,1.06-1,1.4c-0.45,0.34-0.99,0.57-1.65,0.7c-0.65,0.13-1.4,0.19-2.26,0.19c-0.86,0-1.72-0.06-2.6-0.17
		c-0.87-0.11-1.51-0.22-1.93-0.33v-4.13c0,0.97-0.11,1.75-0.34,2.34c-0.22,0.6-0.56,1.06-1,1.4c-0.45,0.34-0.99,0.57-1.65,0.7
		c-0.65,0.13-1.4,0.19-2.26,0.19c-0.86,0-1.72-0.06-2.6-0.17c-0.87-0.11-1.51-0.22-1.93-0.33v-4.13c0,0.97-0.11,1.75-0.34,2.34
		c-0.22,0.6-0.56,1.06-1,1.4c-0.45,0.34-0.99,0.57-1.65,0.7c-0.55,0.11-1.2,0.16-1.9,0.18v0.03c0.12,0,0.23-0.01,0.36-0.01
		c0.82,0,1.67,0.07,2.57,0.2c0.89,0.13,1.54,0.23,1.95,0.31v4.13c0-0.97,0.11-1.75,0.34-2.34c0.22-0.59,0.56-1.06,1-1.4
		c0.45-0.33,1-0.57,1.65-0.7c0.65-0.13,1.4-0.2,2.26-0.2c0.82,0,1.67,0.07,2.57,0.2c0.89,0.13,1.54,0.23,1.95,0.31v4.13
		c0-0.97,0.11-1.75,0.34-2.34c0.22-0.59,0.56-1.06,1-1.4c0.45-0.33,1-0.57,1.65-0.7c0.65-0.13,1.4-0.2,2.26-0.2
		c0.82,0,1.67,0.07,2.57,0.2c0.89,0.13,1.54,0.23,1.95,0.31v4.13c0-0.97,0.11-1.75,0.34-2.34c0.22-0.59,0.56-1.06,1-1.4
		c0.45-0.33,1-0.57,1.65-0.7c0.65-0.13,1.4-0.2,2.26-0.2c0.82,0,1.67,0.07,2.57,0.2c0.89,0.13,1.54,0.23,1.95,0.31v4.13
		c0-0.97,0.11-1.75,0.34-2.34c0.22-0.59,0.56-1.06,1-1.4c0.45-0.33,1-0.57,1.65-0.7c0.65-0.13,1.4-0.2,2.26-0.2
		c0.82,0,1.67,0.07,2.57,0.2c0.89,0.13,1.54,0.23,1.95,0.31v4.13c0-0.97,0.11-1.75,0.34-2.34c0.22-0.59,0.56-1.06,1-1.4
		c0.45-0.33,1-0.57,1.65-0.7c0.65-0.13,1.4-0.2,2.26-0.2c0.82,0,1.67,0.07,2.57,0.2c0.89,0.13,1.54,0.23,1.95,0.31v4.13
		c0-0.97,0.11-1.75,0.34-2.34c0.22-0.59,0.56-1.06,1-1.4c0.45-0.33,1-0.57,1.65-0.7c0.65-0.13,1.4-0.2,2.26-0.2
		c0.82,0,1.67,0.07,2.57,0.2c0.89,0.13,1.54,0.23,1.95,0.31v4.13c0-0.97,0.11-1.75,0.34-2.34c0.22-0.59,0.56-1.06,1-1.4
		c0.45-0.33,1-0.57,1.65-0.7c0.65-0.13,1.4-0.2,2.26-0.2c0.21,0,0.43,0.02,0.64,0.03v-0.1C68.94,43.67,68.49,43.7,68,43.7z"/>
	<path class="st0" d="M68,33.93c-0.86,0-1.72-0.06-2.6-0.17c-0.87-0.11-1.51-0.22-1.93-0.33V29.3c0,0.97-0.11,1.75-0.34,2.34
		c-0.22,0.6-0.56,1.06-1,1.4c-0.45,0.34-0.99,0.57-1.65,0.7c-0.65,0.13-1.4,0.19-2.26,0.19c-0.86,0-1.72-0.06-2.6-0.17
		c-0.87-0.11-1.51-0.22-1.93-0.33V29.3c0,0.97-0.11,1.75-0.34,2.34c-0.22,0.6-0.56,1.06-1,1.4c-0.45,0.34-0.99,0.57-1.65,0.7
		c-0.65,0.13-1.4,0.19-2.26,0.19c-0.86,0-1.72-0.06-2.6-0.17c-0.87-0.11-1.51-0.22-1.93-0.33V29.3c0,0.97-0.11,1.75-0.34,2.34
		c-0.22,0.6-0.56,1.06-1,1.4c-0.45,0.34-0.99,0.57-1.65,0.7c-0.65,0.13-1.4,0.19-2.26,0.19c-0.86,0-1.72-0.06-2.6-0.17
		c-0.87-0.11-1.51-0.22-1.93-0.33V29.3c0,0.97-0.11,1.75-0.34,2.34c-0.22,0.6-0.56,1.06-1,1.4c-0.45,0.34-0.99,0.57-1.65,0.7
		c-0.65,0.13-1.4,0.19-2.26,0.19c-0.86,0-1.72-0.06-2.6-0.17c-0.87-0.11-1.51-0.22-1.93-0.33V29.3c0,0.97-0.11,1.75-0.34,2.34
		c-0.22,0.6-0.56,1.06-1,1.4c-0.45,0.34-0.99,0.57-1.65,0.7c-0.65,0.13-1.4,0.19-2.26,0.19c-0.86,0-1.72-0.06-2.6-0.17
		c-0.87-0.11-1.51-0.22-1.93-0.33V29.3c0,0.97-0.11,1.75-0.34,2.34c-0.22,0.6-0.56,1.06-1,1.4c-0.45,0.34-0.99,0.57-1.65,0.7
		c-0.65,0.13-1.4,0.19-2.26,0.19c-0.86,0-1.72-0.06-2.6-0.17c-0.87-0.11-1.51-0.22-1.93-0.33V29.3c0,0.97-0.11,1.75-0.34,2.34
		c-0.22,0.6-0.56,1.06-1,1.4c-0.45,0.34-0.99,0.57-1.65,0.7C1.34,33.85,0.7,33.9,0,33.92v0.03c0.12,0,0.23-0.01,0.36-0.01
		c0.82,0,1.67,0.07,2.57,0.2c0.89,0.13,1.54,0.23,1.95,0.31v4.13c0-0.97,0.11-1.75,0.34-2.34c0.22-0.59,0.56-1.06,1-1.4
		c0.45-0.33,1-0.57,1.65-0.7c0.65-0.13,1.4-0.2,2.26-0.2c0.82,0,1.67,0.07,2.57,0.2c0.89,0.13,1.54,0.23,1.95,0.31v4.13
		c0-0.97,0.11-1.75,0.34-2.34c0.22-0.59,0.56-1.06,1-1.4c0.45-0.33,1-0.57,1.65-0.7c0.65-0.13,1.4-0.2,2.26-0.2
		c0.82,0,1.67,0.07,2.57,0.2c0.89,0.13,1.54,0.23,1.95,0.31v4.13c0-0.97,0.11-1.75,0.34-2.34c0.22-0.59,0.56-1.06,1-1.4
		c0.45-0.33,1-0.57,1.65-0.7c0.65-0.13,1.4-0.2,2.26-0.2c0.82,0,1.67,0.07,2.57,0.2c0.89,0.13,1.54,0.23,1.95,0.31v4.13
		c0-0.97,0.11-1.75,0.34-2.34c0.22-0.59,0.56-1.06,1-1.4c0.45-0.33,1-0.57,1.65-0.7c0.65-0.13,1.4-0.2,2.26-0.2
		c0.82,0,1.67,0.07,2.57,0.2c0.89,0.13,1.54,0.23,1.95,0.31v4.13c0-0.97,0.11-1.75,0.34-2.34c0.22-0.59,0.56-1.06,1-1.4
		c0.45-0.33,1-0.57,1.65-0.7c0.65-0.13,1.4-0.2,2.26-0.2c0.82,0,1.67,0.07,2.57,0.2c0.89,0.13,1.54,0.23,1.95,0.31v4.13
		c0-0.97,0.11-1.75,0.34-2.34c0.22-0.59,0.56-1.06,1-1.4c0.45-0.33,1-0.57,1.65-0.7c0.65-0.13,1.4-0.2,2.26-0.2
		c0.82,0,1.67,0.07,2.57,0.2c0.89,0.13,1.54,0.23,1.95,0.31v4.13c0-0.97,0.11-1.75,0.34-2.34c0.22-0.59,0.56-1.06,1-1.4
		c0.45-0.33,1-0.57,1.65-0.7c0.65-0.13,1.4-0.2,2.26-0.2c0.21,0,0.43,0.02,0.64,0.03v-0.1C68.94,33.9,68.49,33.93,68,33.93z"/>
	<path class="st0" d="M24.42,69.12v-0.75c0,0.26-0.01,0.51-0.03,0.75H24.42z"/>
	<path class="st0" d="M63.48,69.12v-0.75c0,0.26-0.01,0.51-0.03,0.75H63.48z"/>
	<path class="st0" d="M53.71,69.12v-0.75c0,0.26-0.01,0.51-0.03,0.75H53.71z"/>
	<path class="st0" d="M68,63.23c-0.86,0-1.72-0.06-2.6-0.17c-0.87-0.11-1.51-0.22-1.93-0.33V58.6c0,0.97-0.11,1.75-0.34,2.34
		c-0.22,0.6-0.56,1.06-1,1.4c-0.45,0.34-0.99,0.57-1.65,0.7c-0.65,0.13-1.4,0.19-2.26,0.19c-0.86,0-1.72-0.06-2.6-0.17
		c-0.87-0.11-1.51-0.22-1.93-0.33V58.6c0,0.97-0.11,1.75-0.34,2.34c-0.22,0.6-0.56,1.06-1,1.4c-0.45,0.34-0.99,0.57-1.65,0.7
		c-0.65,0.13-1.4,0.19-2.26,0.19c-0.86,0-1.72-0.06-2.6-0.17c-0.87-0.11-1.51-0.22-1.93-0.33V58.6c0,0.97-0.11,1.75-0.34,2.34
		c-0.22,0.6-0.56,1.06-1,1.4c-0.45,0.34-0.99,0.57-1.65,0.7c-0.65,0.13-1.4,0.19-2.26,0.19c-0.86,0-1.72-0.06-2.6-0.17
		c-0.87-0.11-1.51-0.22-1.93-0.33V58.6c0,0.97-0.11,1.75-0.34,2.34c-0.22,0.6-0.56,1.06-1,1.4c-0.45,0.34-0.99,0.57-1.65,0.7
		c-0.65,0.13-1.4,0.19-2.26,0.19c-0.86,0-1.72-0.06-2.6-0.17c-0.87-0.11-1.51-0.22-1.93-0.33V58.6c0,0.97-0.11,1.75-0.34,2.34
		c-0.22,0.6-0.56,1.06-1,1.4c-0.45,0.34-0.99,0.57-1.65,0.7c-0.65,0.13-1.4,0.19-2.26,0.19c-0.86,0-1.72-0.06-2.6-0.17
		c-0.87-0.11-1.51-0.22-1.93-0.33V58.6c0,0.97-0.11,1.75-0.34,2.34c-0.22,0.6-0.56,1.06-1,1.4c-0.45,0.34-0.99,0.57-1.65,0.7
		c-0.65,0.13-1.4,0.19-2.26,0.19c-0.86,0-1.72-0.06-2.6-0.17c-0.87-0.11-1.51-0.22-1.93-0.33V58.6c0,0.97-0.11,1.75-0.34,2.34
		c-0.22,0.6-0.56,1.06-1,1.4c-0.45,0.34-0.99,0.57-1.65,0.7C1.34,63.15,0.7,63.2,0,63.22v0.03c0.12,0,0.23-0.01,0.36-0.01
		c0.82,0,1.67,0.07,2.57,0.2c0.89,0.13,1.54,0.23,1.95,0.31v4.13c0-0.97,0.11-1.75,0.34-2.34c0.22-0.59,0.56-1.06,1-1.4
		c0.45-0.33,1-0.57,1.65-0.7c0.65-0.13,1.4-0.2,2.26-0.2c0.82,0,1.67,0.07,2.57,0.2c0.89,0.13,1.54,0.23,1.95,0.31v4.13
		c0-0.97,0.11-1.75,0.34-2.34c0.22-0.59,0.56-1.06,1-1.4c0.45-0.33,1-0.57,1.65-0.7c0.65-0.13,1.4-0.2,2.26-0.2
		c0.82,0,1.67,0.07,2.57,0.2c0.89,0.13,1.54,0.23,1.95,0.31v4.13c0-0.97,0.11-1.75,0.34-2.34c0.22-0.59,0.56-1.06,1-1.4
		c0.45-0.33,1-0.57,1.65-0.7c0.65-0.13,1.4-0.2,2.26-0.2c0.82,0,1.67,0.07,2.57,0.2c0.89,0.13,1.54,0.23,1.95,0.31v4.13
		c0-0.97,0.11-1.75,0.34-2.34c0.22-0.59,0.56-1.06,1-1.4c0.45-0.33,1-0.57,1.65-0.7c0.65-0.13,1.4-0.2,2.26-0.2
		c0.82,0,1.67,0.07,2.57,0.2c0.89,0.13,1.54,0.23,1.95,0.31v4.13c0-0.97,0.11-1.75,0.34-2.34c0.22-0.59,0.56-1.06,1-1.4
		c0.45-0.33,1-0.57,1.65-0.7c0.65-0.13,1.4-0.2,2.26-0.2c0.82,0,1.67,0.07,2.57,0.2c0.89,0.13,1.54,0.23,1.95,0.31v4.13
		c0-0.97,0.11-1.75,0.34-2.34c0.22-0.59,0.56-1.06,1-1.4c0.45-0.33,1-0.57,1.65-0.7c0.65-0.13,1.4-0.2,2.26-0.2
		c0.82,0,1.67,0.07,2.57,0.2c0.89,0.13,1.54,0.23,1.95,0.31v4.13c0-0.97,0.11-1.75,0.34-2.34c0.22-0.59,0.56-1.06,1-1.4
		c0.45-0.33,1-0.57,1.65-0.7c0.65-0.13,1.4-0.2,2.26-0.2c0.21,0,0.43,0.02,0.64,0.03v-0.1C68.94,63.21,68.49,63.23,68,63.23z"/>
	<path class="st0" d="M34.18,69.12v-0.75c0,0.26-0.01,0.51-0.03,0.75H34.18z"/>
	<path class="st0" d="M43.95,69.12v-0.75c0,0.26-0.01,0.51-0.03,0.75H43.95z"/>
	<path class="st0" d="M14.65,69.12v-0.75c0,0.26-0.01,0.51-0.03,0.75H14.65z"/>
</g>
<g>
	<path class="st0" d="M137.37,14.4c-0.86,0-1.72-0.06-2.6-0.17c-0.87-0.11-1.51-0.22-1.93-0.33V9.77c0,0.97-0.11,1.75-0.34,2.34
		c-0.22,0.6-0.56,1.06-1,1.4c-0.45,0.34-0.99,0.57-1.65,0.7c-0.65,0.13-1.4,0.19-2.26,0.19c-0.86,0-1.72-0.06-2.6-0.17
		c-0.87-0.11-1.51-0.22-1.93-0.33V9.77c0,0.97-0.11,1.75-0.34,2.34c-0.22,0.6-0.56,1.06-1,1.4c-0.45,0.34-0.99,0.57-1.65,0.7
		c-0.65,0.13-1.4,0.19-2.26,0.19c-0.86,0-1.72-0.06-2.6-0.17c-0.87-0.11-1.51-0.22-1.93-0.33V9.77c0,0.97-0.11,1.75-0.34,2.34
		c-0.22,0.6-0.56,1.06-1,1.4c-0.45,0.34-0.99,0.57-1.65,0.7c-0.65,0.13-1.4,0.19-2.26,0.19c-0.86,0-1.72-0.06-2.6-0.17
		c-0.87-0.11-1.51-0.22-1.93-0.33V9.77c0,0.97-0.11,1.75-0.34,2.34c-0.22,0.6-0.56,1.06-1,1.4c-0.45,0.34-0.99,0.57-1.65,0.7
		c-0.65,0.13-1.4,0.19-2.26,0.19c-0.86,0-1.72-0.06-2.6-0.17c-0.87-0.11-1.51-0.22-1.93-0.33V9.77c0,0.97-0.11,1.75-0.34,2.34
		c-0.22,0.6-0.56,1.06-1,1.4c-0.45,0.34-0.99,0.57-1.65,0.7c-0.65,0.13-1.4,0.19-2.26,0.19c-0.86,0-1.72-0.06-2.6-0.17
		c-0.87-0.11-1.51-0.22-1.93-0.33V9.77c0,0.97-0.11,1.75-0.34,2.34c-0.22,0.6-0.56,1.06-1,1.4c-0.45,0.34-0.99,0.57-1.65,0.7
		c-0.65,0.13-1.4,0.19-2.26,0.19c-0.86,0-1.72-0.06-2.6-0.17c-0.87-0.11-1.51-0.22-1.93-0.33V9.77c0,0.97-0.11,1.75-0.34,2.34
		c-0.22,0.6-0.56,1.06-1,1.4c-0.45,0.34-0.99,0.57-1.65,0.7c-0.55,0.11-1.2,0.16-1.9,0.18v0.03c0.12,0,0.23-0.01,0.36-0.01
		c0.82,0,1.67,0.07,2.57,0.2c0.89,0.13,1.54,0.23,1.95,0.31v4.13c0-0.97,0.11-1.75,0.34-2.34c0.22-0.59,0.56-1.06,1-1.4
		c0.45-0.33,1-0.57,1.65-0.7c0.65-0.13,1.4-0.2,2.26-0.2c0.82,0,1.67,0.07,2.57,0.2c0.89,0.13,1.54,0.23,1.95,0.31v4.13
		c0-0.97,0.11-1.75,0.34-2.34c0.22-0.59,0.56-1.06,1-1.4c0.45-0.33,1-0.57,1.65-0.7c0.65-0.13,1.4-0.2,2.26-0.2
		c0.82,0,1.67,0.07,2.57,0.2c0.89,0.13,1.54,0.23,1.95,0.31v4.13c0-0.97,0.11-1.75,0.34-2.34c0.22-0.59,0.56-1.06,1-1.4
		c0.45-0.33,1-0.57,1.65-0.7c0.65-0.13,1.4-0.2,2.26-0.2c0.82,0,1.67,0.07,2.57,0.2c0.89,0.13,1.54,0.23,1.95,0.31v4.13
		c0-0.97,0.11-1.75,0.34-2.34c0.22-0.59,0.56-1.06,1-1.4c0.45-0.33,1-0.57,1.65-0.7c0.65-0.13,1.4-0.2,2.26-0.2
		c0.82,0,1.67,0.07,2.57,0.2c0.89,0.13,1.54,0.23,1.95,0.31v4.13c0-0.97,0.11-1.75,0.34-2.34c0.22-0.59,0.56-1.06,1-1.4
		c0.45-0.33,1-0.57,1.65-0.7c0.65-0.13,1.4-0.2,2.26-0.2c0.82,0,1.67,0.07,2.57,0.2c0.89,0.13,1.54,0.23,1.95,0.31v4.13
		c0-0.97,0.11-1.75,0.34-2.34c0.22-0.59,0.56-1.06,1-1.4c0.45-0.33,1-0.57,1.65-0.7c0.65-0.13,1.4-0.2,2.26-0.2
		c0.82,0,1.67,0.07,2.57,0.2c0.89,0.13,1.54,0.23,1.95,0.31v4.13c0-0.97,0.11-1.75,0.34-2.34c0.22-0.59,0.56-1.06,1-1.4
		c0.45-0.33,1-0.57,1.65-0.7c0.65-0.13,1.4-0.2,2.26-0.2c0.21,0,0.43,0.02,0.64,0.03v-0.1C138.31,14.37,137.86,14.4,137.37,14.4z"/>
	<path class="st0" d="M137.37,4.63c-0.86,0-1.72-0.06-2.6-0.17c-0.87-0.11-1.51-0.22-1.93-0.33V0c0,0.97-0.11,1.75-0.34,2.34
		c-0.22,0.6-0.56,1.06-1,1.4c-0.45,0.34-0.99,0.57-1.65,0.7c-0.65,0.13-1.4,0.19-2.26,0.19c-0.86,0-1.72-0.06-2.6-0.17
		c-0.87-0.11-1.51-0.22-1.93-0.33V0c0,0.97-0.11,1.75-0.34,2.34c-0.22,0.6-0.56,1.06-1,1.4c-0.45,0.34-0.99,0.57-1.65,0.7
		c-0.65,0.13-1.4,0.19-2.26,0.19c-0.86,0-1.72-0.06-2.6-0.17c-0.87-0.11-1.51-0.22-1.93-0.33V0c0,0.97-0.11,1.75-0.34,2.34
		c-0.22,0.6-0.56,1.06-1,1.4c-0.45,0.34-0.99,0.57-1.65,0.7c-0.65,0.13-1.4,0.19-2.26,0.19c-0.86,0-1.72-0.06-2.6-0.17
		c-0.87-0.11-1.51-0.22-1.93-0.33V0c0,0.97-0.11,1.75-0.34,2.34c-0.22,0.6-0.56,1.06-1,1.4c-0.45,0.34-0.99,0.57-1.65,0.7
		c-0.65,0.13-1.4,0.19-2.26,0.19c-0.86,0-1.72-0.06-2.6-0.17c-0.87-0.11-1.51-0.22-1.93-0.33V0c0,0.97-0.11,1.75-0.34,2.34
		c-0.22,0.6-0.56,1.06-1,1.4C92,4.07,91.45,4.31,90.8,4.44c-0.65,0.13-1.4,0.19-2.26,0.19c-0.86,0-1.72-0.06-2.6-0.17
		c-0.87-0.11-1.51-0.22-1.93-0.33V0c0,0.97-0.11,1.75-0.34,2.34c-0.22,0.6-0.56,1.06-1,1.4c-0.45,0.34-0.99,0.57-1.65,0.7
		c-0.65,0.13-1.4,0.19-2.26,0.19c-0.86,0-1.72-0.06-2.6-0.17c-0.87-0.11-1.51-0.22-1.93-0.33V0c0,0.97-0.11,1.75-0.34,2.34
		c-0.22,0.6-0.56,1.06-1,1.4c-0.45,0.34-0.99,0.57-1.65,0.7c-0.55,0.11-1.2,0.16-1.9,0.18v0.03c0.12,0,0.23-0.01,0.36-0.01
		c0.82,0,1.67,0.07,2.57,0.2c0.89,0.13,1.54,0.23,1.95,0.31v4.13c0-0.97,0.11-1.75,0.34-2.34c0.22-0.59,0.56-1.06,1-1.4
		c0.45-0.33,1-0.57,1.65-0.7c0.65-0.13,1.4-0.2,2.26-0.2c0.82,0,1.67,0.07,2.57,0.2c0.89,0.13,1.54,0.23,1.95,0.31v4.13
		c0-0.97,0.11-1.75,0.34-2.34c0.22-0.59,0.56-1.06,1-1.4c0.45-0.33,1-0.57,1.65-0.7c0.65-0.13,1.4-0.2,2.26-0.2
		c0.82,0,1.67,0.07,2.57,0.2c0.89,0.13,1.54,0.23,1.95,0.31v4.13c0-0.97,0.11-1.75,0.34-2.34c0.22-0.59,0.56-1.06,1-1.4
		c0.45-0.33,1-0.57,1.65-0.7c0.65-0.13,1.4-0.2,2.26-0.2c0.82,0,1.67,0.07,2.57,0.2c0.89,0.13,1.54,0.23,1.95,0.31v4.13
		c0-0.97,0.11-1.75,0.34-2.34c0.22-0.59,0.56-1.06,1-1.4c0.45-0.33,1-0.57,1.65-0.7c0.65-0.13,1.4-0.2,2.26-0.2
		c0.82,0,1.67,0.07,2.57,0.2c0.89,0.13,1.54,0.23,1.95,0.31v4.13c0-0.97,0.11-1.75,0.34-2.34c0.22-0.59,0.56-1.06,1-1.4
		c0.45-0.33,1-0.57,1.65-0.7c0.65-0.13,1.4-0.2,2.26-0.2c0.82,0,1.67,0.07,2.57,0.2c0.89,0.13,1.54,0.23,1.95,0.31v4.13
		c0-0.97,0.11-1.75,0.34-2.34c0.22-0.59,0.56-1.06,1-1.4c0.45-0.33,1-0.57,1.65-0.7c0.65-0.13,1.4-0.2,2.26-0.2
		c0.82,0,1.67,0.07,2.57,0.2c0.89,0.13,1.54,0.23,1.95,0.31v4.13c0-0.97,0.11-1.75,0.34-2.34c0.22-0.59,0.56-1.06,1-1.4
		c0.45-0.33,1-0.57,1.65-0.7c0.65-0.13,1.4-0.2,2.26-0.2c0.21,0,0.43,0.02,0.64,0.03v-0.1C138.31,4.6,137.86,4.63,137.37,4.63z"/>
	<path class="st0" d="M137.37,24.17c-0.86,0-1.72-0.06-2.6-0.17c-0.87-0.11-1.51-0.22-1.93-0.33v-4.13c0,0.97-0.11,1.75-0.34,2.34
		c-0.22,0.6-0.56,1.06-1,1.4c-0.45,0.34-0.99,0.57-1.65,0.7c-0.65,0.13-1.4,0.19-2.26,0.19c-0.86,0-1.72-0.06-2.6-0.17
		c-0.87-0.11-1.51-0.22-1.93-0.33v-4.13c0,0.97-0.11,1.75-0.34,2.34c-0.22,0.6-0.56,1.06-1,1.4c-0.45,0.34-0.99,0.57-1.65,0.7
		c-0.65,0.13-1.4,0.19-2.26,0.19c-0.86,0-1.72-0.06-2.6-0.17c-0.87-0.11-1.51-0.22-1.93-0.33v-4.13c0,0.97-0.11,1.75-0.34,2.34
		c-0.22,0.6-0.56,1.06-1,1.4c-0.45,0.34-0.99,0.57-1.65,0.7c-0.65,0.13-1.4,0.19-2.26,0.19c-0.86,0-1.72-0.06-2.6-0.17
		c-0.87-0.11-1.51-0.22-1.93-0.33v-4.13c0,0.97-0.11,1.75-0.34,2.34c-0.22,0.6-0.56,1.06-1,1.4c-0.45,0.34-0.99,0.57-1.65,0.7
		c-0.65,0.13-1.4,0.19-2.26,0.19c-0.86,0-1.72-0.06-2.6-0.17c-0.87-0.11-1.51-0.22-1.93-0.33v-4.13c0,0.97-0.11,1.75-0.34,2.34
		c-0.22,0.6-0.56,1.06-1,1.4c-0.45,0.34-0.99,0.57-1.65,0.7c-0.65,0.13-1.4,0.19-2.26,0.19c-0.86,0-1.72-0.06-2.6-0.17
		c-0.87-0.11-1.51-0.22-1.93-0.33v-4.13c0,0.97-0.11,1.75-0.34,2.34c-0.22,0.6-0.56,1.06-1,1.4c-0.45,0.34-0.99,0.57-1.65,0.7
		c-0.65,0.13-1.4,0.19-2.26,0.19c-0.86,0-1.72-0.06-2.6-0.17c-0.87-0.11-1.51-0.22-1.93-0.33v-4.13c0,0.97-0.11,1.75-0.34,2.34
		c-0.22,0.6-0.56,1.06-1,1.4c-0.45,0.34-0.99,0.57-1.65,0.7c-0.55,0.11-1.2,0.16-1.9,0.18v0.03c0.12,0,0.23-0.01,0.36-0.01
		c0.82,0,1.67,0.07,2.57,0.2c0.89,0.13,1.54,0.23,1.95,0.31v4.13c0-0.97,0.11-1.75,0.34-2.34c0.22-0.59,0.56-1.06,1-1.4
		c0.45-0.33,1-0.57,1.65-0.7c0.65-0.13,1.4-0.2,2.26-0.2c0.82,0,1.67,0.07,2.57,0.2c0.89,0.13,1.54,0.23,1.95,0.31v4.13
		c0-0.97,0.11-1.75,0.34-2.34c0.22-0.59,0.56-1.06,1-1.4c0.45-0.33,1-0.57,1.65-0.7c0.65-0.13,1.4-0.2,2.26-0.2
		c0.82,0,1.67,0.07,2.57,0.2c0.89,0.13,1.54,0.23,1.95,0.31v4.13c0-0.97,0.11-1.75,0.34-2.34c0.22-0.59,0.56-1.06,1-1.4
		c0.45-0.33,1-0.57,1.65-0.7c0.65-0.13,1.4-0.2,2.26-0.2c0.82,0,1.67,0.07,2.57,0.2c0.89,0.13,1.54,0.23,1.95,0.31v4.13
		c0-0.97,0.11-1.75,0.34-2.34c0.22-0.59,0.56-1.06,1-1.4c0.45-0.33,1-0.57,1.65-0.7c0.65-0.13,1.4-0.2,2.26-0.2
		c0.82,0,1.67,0.07,2.57,0.2c0.89,0.13,1.54,0.23,1.95,0.31v4.13c0-0.97,0.11-1.75,0.34-2.34c0.22-0.59,0.56-1.06,1-1.4
		c0.45-0.33,1-0.57,1.65-0.7c0.65-0.13,1.4-0.2,2.26-0.2c0.82,0,1.67,0.07,2.57,0.2c0.89,0.13,1.54,0.23,1.95,0.31v4.13
		c0-0.97,0.11-1.75,0.34-2.34c0.22-0.59,0.56-1.06,1-1.4c0.45-0.33,1-0.57,1.65-0.7c0.65-0.13,1.4-0.2,2.26-0.2
		c0.82,0,1.67,0.07,2.57,0.2c0.89,0.13,1.54,0.23,1.95,0.31v4.13c0-0.97,0.11-1.75,0.34-2.34c0.22-0.59,0.56-1.06,1-1.4
		c0.45-0.33,1-0.57,1.65-0.7c0.65-0.13,1.4-0.2,2.26-0.2c0.21,0,0.43,0.02,0.64,0.03v-0.1C138.31,24.14,137.86,24.17,137.37,24.17z"
		/>
	<path class="st0" d="M74.25,69.12v-0.75c0,0.26-0.01,0.51-0.03,0.75H74.25z"/>
	<path class="st0" d="M133.18,55.76c0.22-0.59,0.56-1.06,1-1.4c0.45-0.33,1-0.57,1.65-0.7c0.65-0.13,1.4-0.2,2.26-0.2
		c0.21,0,0.43,0.02,0.64,0.03v-0.1c-0.43,0.04-0.88,0.07-1.37,0.07c-0.86,0-1.72-0.06-2.6-0.17c-0.87-0.11-1.51-0.22-1.93-0.33
		v-4.13c0,0.97-0.11,1.75-0.34,2.34c-0.22,0.6-0.56,1.06-1,1.4c-0.45,0.34-0.99,0.57-1.65,0.7c-0.65,0.13-1.4,0.19-2.26,0.19
		c-0.86,0-1.72-0.06-2.6-0.17c-0.87-0.11-1.51-0.22-1.93-0.33v-4.13c0,0.97-0.11,1.75-0.34,2.34c-0.22,0.6-0.56,1.06-1,1.4
		c-0.45,0.34-0.99,0.57-1.65,0.7c-0.65,0.13-1.4,0.19-2.26,0.19c-0.86,0-1.72-0.06-2.6-0.17c-0.87-0.11-1.51-0.22-1.93-0.33v-4.13
		c0,0.97-0.11,1.75-0.34,2.34c-0.22,0.6-0.56,1.06-1,1.4c-0.45,0.34-0.99,0.57-1.65,0.7c-0.65,0.13-1.4,0.19-2.26,0.19
		c-0.86,0-1.72-0.06-2.6-0.17c-0.87-0.11-1.51-0.22-1.93-0.33v-4.13c0,0.97-0.11,1.75-0.34,2.34c-0.22,0.6-0.56,1.06-1,1.4
		c-0.45,0.34-0.99,0.57-1.65,0.7c-0.65,0.13-1.4,0.19-2.26,0.19c-0.86,0-1.72-0.06-2.6-0.17c-0.87-0.11-1.51-0.22-1.93-0.33v-4.13
		c0,0.97-0.11,1.75-0.34,2.34c-0.22,0.6-0.56,1.06-1,1.4c-0.45,0.34-0.99,0.57-1.65,0.7c-0.65,0.13-1.4,0.19-2.26,0.19
		c-0.86,0-1.72-0.06-2.6-0.17c-0.87-0.11-1.51-0.22-1.93-0.33v-4.13c0,0.97-0.11,1.75-0.34,2.34c-0.22,0.6-0.56,1.06-1,1.4
		c-0.45,0.34-0.99,0.57-1.65,0.7c-0.65,0.13-1.4,0.19-2.26,0.19c-0.86,0-1.72-0.06-2.6-0.17c-0.87-0.11-1.51-0.22-1.93-0.33v-4.13
		c0,0.97-0.11,1.75-0.34,2.34c-0.22,0.6-0.56,1.06-1,1.4c-0.45,0.34-0.99,0.57-1.65,0.7c-0.55,0.11-1.2,0.16-1.9,0.18v0.03
		c0.12,0,0.23-0.01,0.36-0.01c0.82,0,1.67,0.07,2.57,0.2c0.89,0.13,1.54,0.23,1.95,0.31v4.13c0-0.97,0.11-1.75,0.34-2.34
		c0.22-0.59,0.56-1.06,1-1.4c0.45-0.33,1-0.57,1.65-0.7c0.65-0.13,1.4-0.2,2.26-0.2c0.82,0,1.67,0.07,2.57,0.2
		c0.89,0.13,1.54,0.23,1.95,0.31v4.13c0-0.97,0.11-1.75,0.34-2.34c0.22-0.59,0.56-1.06,1-1.4c0.45-0.33,1-0.57,1.65-0.7
		c0.65-0.13,1.4-0.2,2.26-0.2c0.82,0,1.67,0.07,2.57,0.2c0.89,0.13,1.54,0.23,1.95,0.31v4.13c0-0.97,0.11-1.75,0.34-2.34
		c0.22-0.59,0.56-1.06,1-1.4c0.45-0.33,1-0.57,1.65-0.7c0.65-0.13,1.4-0.2,2.26-0.2c0.82,0,1.67,0.07,2.57,0.2
		c0.89,0.13,1.54,0.23,1.95,0.31v4.13c0-0.97,0.11-1.75,0.34-2.34c0.22-0.59,0.56-1.06,1-1.4c0.45-0.33,1-0.57,1.65-0.7
		c0.65-0.13,1.4-0.2,2.26-0.2c0.82,0,1.67,0.07,2.57,0.2c0.89,0.13,1.54,0.23,1.95,0.31v4.13c0-0.97,0.11-1.75,0.34-2.34
		c0.22-0.59,0.56-1.06,1-1.4c0.45-0.33,1-0.57,1.65-0.7c0.65-0.13,1.4-0.2,2.26-0.2c0.82,0,1.67,0.07,2.57,0.2
		c0.89,0.13,1.54,0.23,1.95,0.31v4.13c0-0.97,0.11-1.75,0.34-2.34c0.22-0.59,0.56-1.06,1-1.4c0.45-0.33,1-0.57,1.65-0.7
		c0.65-0.13,1.4-0.2,2.26-0.2c0.82,0,1.67,0.07,2.57,0.2c0.89,0.13,1.54,0.23,1.95,0.31v4.13
		C132.85,57.13,132.96,56.35,133.18,55.76z"/>
	<path class="st0" d="M137.37,43.7c-0.86,0-1.72-0.06-2.6-0.17c-0.87-0.11-1.51-0.22-1.93-0.33v-4.13c0,0.97-0.11,1.75-0.34,2.34
		c-0.22,0.6-0.56,1.06-1,1.4c-0.45,0.34-0.99,0.57-1.65,0.7c-0.65,0.13-1.4,0.19-2.26,0.19c-0.86,0-1.72-0.06-2.6-0.17
		c-0.87-0.11-1.51-0.22-1.93-0.33v-4.13c0,0.97-0.11,1.75-0.34,2.34c-0.22,0.6-0.56,1.06-1,1.4c-0.45,0.34-0.99,0.57-1.65,0.7
		c-0.65,0.13-1.4,0.19-2.26,0.19c-0.86,0-1.72-0.06-2.6-0.17c-0.87-0.11-1.51-0.22-1.93-0.33v-4.13c0,0.97-0.11,1.75-0.34,2.34
		c-0.22,0.6-0.56,1.06-1,1.4c-0.45,0.34-0.99,0.57-1.65,0.7c-0.65,0.13-1.4,0.19-2.26,0.19c-0.86,0-1.72-0.06-2.6-0.17
		c-0.87-0.11-1.51-0.22-1.93-0.33v-4.13c0,0.97-0.11,1.75-0.34,2.34c-0.22,0.6-0.56,1.06-1,1.4c-0.45,0.34-0.99,0.57-1.65,0.7
		c-0.65,0.13-1.4,0.19-2.26,0.19c-0.86,0-1.72-0.06-2.6-0.17c-0.87-0.11-1.51-0.22-1.93-0.33v-4.13c0,0.97-0.11,1.75-0.34,2.34
		c-0.22,0.6-0.56,1.06-1,1.4c-0.45,0.34-0.99,0.57-1.65,0.7c-0.65,0.13-1.4,0.19-2.26,0.19c-0.86,0-1.72-0.06-2.6-0.17
		c-0.87-0.11-1.51-0.22-1.93-0.33v-4.13c0,0.97-0.11,1.75-0.34,2.34c-0.22,0.6-0.56,1.06-1,1.4c-0.45,0.34-0.99,0.57-1.65,0.7
		c-0.65,0.13-1.4,0.19-2.26,0.19c-0.86,0-1.72-0.06-2.6-0.17c-0.87-0.11-1.51-0.22-1.93-0.33v-4.13c0,0.97-0.11,1.75-0.34,2.34
		c-0.22,0.6-0.56,1.06-1,1.4c-0.45,0.34-0.99,0.57-1.65,0.7c-0.55,0.11-1.2,0.16-1.9,0.18v0.03c0.12,0,0.23-0.01,0.36-0.01
		c0.82,0,1.67,0.07,2.57,0.2c0.89,0.13,1.54,0.23,1.95,0.31v4.13c0-0.97,0.11-1.75,0.34-2.34c0.22-0.59,0.56-1.06,1-1.4
		c0.45-0.33,1-0.57,1.65-0.7c0.65-0.13,1.4-0.2,2.26-0.2c0.82,0,1.67,0.07,2.57,0.2c0.89,0.13,1.54,0.23,1.95,0.31v4.13
		c0-0.97,0.11-1.75,0.34-2.34c0.22-0.59,0.56-1.06,1-1.4c0.45-0.33,1-0.57,1.65-0.7c0.65-0.13,1.4-0.2,2.26-0.2
		c0.82,0,1.67,0.07,2.57,0.2c0.89,0.13,1.54,0.23,1.95,0.31v4.13c0-0.97,0.11-1.75,0.34-2.34c0.22-0.59,0.56-1.06,1-1.4
		c0.45-0.33,1-0.57,1.65-0.7c0.65-0.13,1.4-0.2,2.26-0.2c0.82,0,1.67,0.07,2.57,0.2c0.89,0.13,1.54,0.23,1.95,0.31v4.13
		c0-0.97,0.11-1.75,0.34-2.34c0.22-0.59,0.56-1.06,1-1.4c0.45-0.33,1-0.57,1.65-0.7c0.65-0.13,1.4-0.2,2.26-0.2
		c0.82,0,1.67,0.07,2.57,0.2c0.89,0.13,1.54,0.23,1.95,0.31v4.13c0-0.97,0.11-1.75,0.34-2.34c0.22-0.59,0.56-1.06,1-1.4
		c0.45-0.33,1-0.57,1.65-0.7c0.65-0.13,1.4-0.2,2.26-0.2c0.82,0,1.67,0.07,2.57,0.2c0.89,0.13,1.54,0.23,1.95,0.31v4.13
		c0-0.97,0.11-1.75,0.34-2.34c0.22-0.59,0.56-1.06,1-1.4c0.45-0.33,1-0.57,1.65-0.7c0.65-0.13,1.4-0.2,2.26-0.2
		c0.82,0,1.67,0.07,2.57,0.2c0.89,0.13,1.54,0.23,1.95,0.31v4.13c0-0.97,0.11-1.75,0.34-2.34c0.22-0.59,0.56-1.06,1-1.4
		c0.45-0.33,1-0.57,1.65-0.7c0.65-0.13,1.4-0.2,2.26-0.2c0.21,0,0.43,0.02,0.64,0.03v-0.1C138.31,43.67,137.86,43.7,137.37,43.7z"/>
	<path class="st0" d="M137.37,33.93c-0.86,0-1.72-0.06-2.6-0.17c-0.87-0.11-1.51-0.22-1.93-0.33V29.3c0,0.97-0.11,1.75-0.34,2.34
		c-0.22,0.6-0.56,1.06-1,1.4c-0.45,0.34-0.99,0.57-1.65,0.7c-0.65,0.13-1.4,0.19-2.26,0.19c-0.86,0-1.72-0.06-2.6-0.17
		c-0.87-0.11-1.51-0.22-1.93-0.33V29.3c0,0.97-0.11,1.75-0.34,2.34c-0.22,0.6-0.56,1.06-1,1.4c-0.45,0.34-0.99,0.57-1.65,0.7
		c-0.65,0.13-1.4,0.19-2.26,0.19c-0.86,0-1.72-0.06-2.6-0.17c-0.87-0.11-1.51-0.22-1.93-0.33V29.3c0,0.97-0.11,1.75-0.34,2.34
		c-0.22,0.6-0.56,1.06-1,1.4c-0.45,0.34-0.99,0.57-1.65,0.7c-0.65,0.13-1.4,0.19-2.26,0.19c-0.86,0-1.72-0.06-2.6-0.17
		c-0.87-0.11-1.51-0.22-1.93-0.33V29.3c0,0.97-0.11,1.75-0.34,2.34c-0.22,0.6-0.56,1.06-1,1.4c-0.45,0.34-0.99,0.57-1.65,0.7
		c-0.65,0.13-1.4,0.19-2.26,0.19c-0.86,0-1.72-0.06-2.6-0.17c-0.87-0.11-1.51-0.22-1.93-0.33V29.3c0,0.97-0.11,1.75-0.34,2.34
		c-0.22,0.6-0.56,1.06-1,1.4c-0.45,0.34-0.99,0.57-1.65,0.7c-0.65,0.13-1.4,0.19-2.26,0.19c-0.86,0-1.72-0.06-2.6-0.17
		c-0.87-0.11-1.51-0.22-1.93-0.33V29.3c0,0.97-0.11,1.75-0.34,2.34c-0.22,0.6-0.56,1.06-1,1.4c-0.45,0.34-0.99,0.57-1.65,0.7
		c-0.65,0.13-1.4,0.19-2.26,0.19c-0.86,0-1.72-0.06-2.6-0.17c-0.87-0.11-1.51-0.22-1.93-0.33V29.3c0,0.97-0.11,1.75-0.34,2.34
		c-0.22,0.6-0.56,1.06-1,1.4c-0.45,0.34-0.99,0.57-1.65,0.7c-0.55,0.11-1.2,0.16-1.9,0.18v0.03c0.12,0,0.23-0.01,0.36-0.01
		c0.82,0,1.67,0.07,2.57,0.2c0.89,0.13,1.54,0.23,1.95,0.31v4.13c0-0.97,0.11-1.75,0.34-2.34c0.22-0.59,0.56-1.06,1-1.4
		c0.45-0.33,1-0.57,1.65-0.7c0.65-0.13,1.4-0.2,2.26-0.2c0.82,0,1.67,0.07,2.57,0.2c0.89,0.13,1.54,0.23,1.95,0.31v4.13
		c0-0.97,0.11-1.75,0.34-2.34c0.22-0.59,0.56-1.06,1-1.4c0.45-0.33,1-0.57,1.65-0.7c0.65-0.13,1.4-0.2,2.26-0.2
		c0.82,0,1.67,0.07,2.57,0.2c0.89,0.13,1.54,0.23,1.95,0.31v4.13c0-0.97,0.11-1.75,0.34-2.34c0.22-0.59,0.56-1.06,1-1.4
		c0.45-0.33,1-0.57,1.65-0.7c0.65-0.13,1.4-0.2,2.26-0.2c0.82,0,1.67,0.07,2.57,0.2c0.89,0.13,1.54,0.23,1.95,0.31v4.13
		c0-0.97,0.11-1.75,0.34-2.34c0.22-0.59,0.56-1.06,1-1.4c0.45-0.33,1-0.57,1.65-0.7c0.65-0.13,1.4-0.2,2.26-0.2
		c0.82,0,1.67,0.07,2.57,0.2c0.89,0.13,1.54,0.23,1.95,0.31v4.13c0-0.97,0.11-1.75,0.34-2.34c0.22-0.59,0.56-1.06,1-1.4
		c0.45-0.33,1-0.57,1.65-0.7c0.65-0.13,1.4-0.2,2.26-0.2c0.82,0,1.67,0.07,2.57,0.2c0.89,0.13,1.54,0.23,1.95,0.31v4.13
		c0-0.97,0.11-1.75,0.34-2.34c0.22-0.59,0.56-1.06,1-1.4c0.45-0.33,1-0.57,1.65-0.7c0.65-0.13,1.4-0.2,2.26-0.2
		c0.82,0,1.67,0.07,2.57,0.2c0.89,0.13,1.54,0.23,1.95,0.31v4.13c0-0.97,0.11-1.75,0.34-2.34c0.22-0.59,0.56-1.06,1-1.4
		c0.45-0.33,1-0.57,1.65-0.7c0.65-0.13,1.4-0.2,2.26-0.2c0.21,0,0.43,0.02,0.64,0.03v-0.1C138.31,33.9,137.86,33.93,137.37,33.93z"
		/>
	<path class="st0" d="M93.78,69.12v-0.75c0,0.26-0.01,0.51-0.03,0.75H93.78z"/>
	<path class="st0" d="M132.85,69.12v-0.75c0,0.26-0.01,0.51-0.03,0.75H132.85z"/>
	<path class="st0" d="M123.08,69.12v-0.75c0,0.26-0.01,0.51-0.03,0.75H123.08z"/>
	<path class="st0" d="M137.37,63.23c-0.86,0-1.72-0.06-2.6-0.17c-0.87-0.11-1.51-0.22-1.93-0.33V58.6c0,0.97-0.11,1.75-0.34,2.34
		c-0.22,0.6-0.56,1.06-1,1.4c-0.45,0.34-0.99,0.57-1.65,0.7c-0.65,0.13-1.4,0.19-2.26,0.19c-0.86,0-1.72-0.06-2.6-0.17
		c-0.87-0.11-1.51-0.22-1.93-0.33V58.6c0,0.97-0.11,1.75-0.34,2.34c-0.22,0.6-0.56,1.06-1,1.4c-0.45,0.34-0.99,0.57-1.65,0.7
		c-0.65,0.13-1.4,0.19-2.26,0.19c-0.86,0-1.72-0.06-2.6-0.17c-0.87-0.11-1.51-0.22-1.93-0.33V58.6c0,0.97-0.11,1.75-0.34,2.34
		c-0.22,0.6-0.56,1.06-1,1.4c-0.45,0.34-0.99,0.57-1.65,0.7c-0.65,0.13-1.4,0.19-2.26,0.19c-0.86,0-1.72-0.06-2.6-0.17
		c-0.87-0.11-1.51-0.22-1.93-0.33V58.6c0,0.97-0.11,1.75-0.34,2.34c-0.22,0.6-0.56,1.06-1,1.4c-0.45,0.34-0.99,0.57-1.65,0.7
		c-0.65,0.13-1.4,0.19-2.26,0.19c-0.86,0-1.72-0.06-2.6-0.17c-0.87-0.11-1.51-0.22-1.93-0.33V58.6c0,0.97-0.11,1.75-0.34,2.34
		c-0.22,0.6-0.56,1.06-1,1.4c-0.45,0.34-0.99,0.57-1.65,0.7c-0.65,0.13-1.4,0.19-2.26,0.19c-0.86,0-1.72-0.06-2.6-0.17
		c-0.87-0.11-1.51-0.22-1.93-0.33V58.6c0,0.97-0.11,1.75-0.34,2.34c-0.22,0.6-0.56,1.06-1,1.4c-0.45,0.34-0.99,0.57-1.65,0.7
		c-0.65,0.13-1.4,0.19-2.26,0.19c-0.86,0-1.72-0.06-2.6-0.17c-0.87-0.11-1.51-0.22-1.93-0.33V58.6c0,0.97-0.11,1.75-0.34,2.34
		c-0.22,0.6-0.56,1.06-1,1.4c-0.45,0.34-0.99,0.57-1.65,0.7c-0.55,0.11-1.2,0.16-1.9,0.18v0.03c0.12,0,0.23-0.01,0.36-0.01
		c0.82,0,1.67,0.07,2.57,0.2c0.89,0.13,1.54,0.23,1.95,0.31v4.13c0-0.97,0.11-1.75,0.34-2.34c0.22-0.59,0.56-1.06,1-1.4
		c0.45-0.33,1-0.57,1.65-0.7c0.65-0.13,1.4-0.2,2.26-0.2c0.82,0,1.67,0.07,2.57,0.2c0.89,0.13,1.54,0.23,1.95,0.31v4.13
		c0-0.97,0.11-1.75,0.34-2.34c0.22-0.59,0.56-1.06,1-1.4c0.45-0.33,1-0.57,1.65-0.7c0.65-0.13,1.4-0.2,2.26-0.2
		c0.82,0,1.67,0.07,2.57,0.2c0.89,0.13,1.54,0.23,1.95,0.31v4.13c0-0.97,0.11-1.75,0.34-2.34c0.22-0.59,0.56-1.06,1-1.4
		c0.45-0.33,1-0.57,1.65-0.7c0.65-0.13,1.4-0.2,2.26-0.2c0.82,0,1.67,0.07,2.57,0.2c0.89,0.13,1.54,0.23,1.95,0.31v4.13
		c0-0.97,0.11-1.75,0.34-2.34c0.22-0.59,0.56-1.06,1-1.4c0.45-0.33,1-0.57,1.65-0.7c0.65-0.13,1.4-0.2,2.26-0.2
		c0.82,0,1.67,0.07,2.57,0.2c0.89,0.13,1.54,0.23,1.95,0.31v4.13c0-0.97,0.11-1.75,0.34-2.34c0.22-0.59,0.56-1.06,1-1.4
		c0.45-0.33,1-0.57,1.65-0.7c0.65-0.13,1.4-0.2,2.26-0.2c0.82,0,1.67,0.07,2.57,0.2c0.89,0.13,1.54,0.23,1.95,0.31v4.13
		c0-0.97,0.11-1.75,0.34-2.34c0.22-0.59,0.56-1.06,1-1.4c0.45-0.33,1-0.57,1.65-0.7c0.65-0.13,1.4-0.2,2.26-0.2
		c0.82,0,1.67,0.07,2.57,0.2c0.89,0.13,1.54,0.23,1.95,0.31v4.13c0-0.97,0.11-1.75,0.34-2.34c0.22-0.59,0.56-1.06,1-1.4
		c0.45-0.33,1-0.57,1.65-0.7c0.65-0.13,1.4-0.2,2.26-0.2c0.21,0,0.43,0.02,0.64,0.03v-0.1C138.31,63.21,137.86,63.23,137.37,63.23z"
		/>
	<path class="st0" d="M103.55,69.12v-0.75c0,0.26-0.01,0.51-0.03,0.75H103.55z"/>
	<path class="st0" d="M113.32,69.12v-0.75c0,0.26-0.01,0.51-0.03,0.75H113.32z"/>
	<path class="st0" d="M84.02,69.12v-0.75c0,0.26-0.01,0.51-0.03,0.75H84.02z"/>
</g>
<g>
	<path class="st0" d="M68,81.95c-0.86,0-1.72-0.06-2.6-0.17c-0.87-0.11-1.51-0.22-1.93-0.33v-4.13c0,0.97-0.11,1.75-0.34,2.34
		c-0.22,0.6-0.56,1.06-1,1.4c-0.45,0.34-0.99,0.57-1.65,0.7c-0.65,0.13-1.4,0.19-2.26,0.19c-0.86,0-1.72-0.06-2.6-0.17
		c-0.87-0.11-1.51-0.22-1.93-0.33v-4.13c0,0.97-0.11,1.75-0.34,2.34c-0.22,0.6-0.56,1.06-1,1.4c-0.45,0.34-0.99,0.57-1.65,0.7
		c-0.65,0.13-1.4,0.19-2.26,0.19c-0.86,0-1.72-0.06-2.6-0.17c-0.87-0.11-1.51-0.22-1.93-0.33v-4.13c0,0.97-0.11,1.75-0.34,2.34
		c-0.22,0.6-0.56,1.06-1,1.4c-0.45,0.34-0.99,0.57-1.65,0.7c-0.65,0.13-1.4,0.19-2.26,0.19c-0.86,0-1.72-0.06-2.6-0.17
		c-0.87-0.11-1.51-0.22-1.93-0.33v-4.13c0,0.97-0.11,1.75-0.34,2.34c-0.22,0.6-0.56,1.06-1,1.4c-0.45,0.34-0.99,0.57-1.65,0.7
		c-0.65,0.13-1.4,0.19-2.26,0.19c-0.86,0-1.72-0.06-2.6-0.17c-0.87-0.11-1.51-0.22-1.93-0.33v-4.13c0,0.97-0.11,1.75-0.34,2.34
		c-0.22,0.6-0.56,1.06-1,1.4c-0.45,0.34-0.99,0.57-1.65,0.7c-0.65,0.13-1.4,0.19-2.26,0.19c-0.86,0-1.72-0.06-2.6-0.17
		c-0.87-0.11-1.51-0.22-1.93-0.33v-4.13c0,0.97-0.11,1.75-0.34,2.34c-0.22,0.6-0.56,1.06-1,1.4c-0.45,0.34-0.99,0.57-1.65,0.7
		c-0.65,0.13-1.4,0.19-2.26,0.19c-0.86,0-1.72-0.06-2.6-0.17c-0.87-0.11-1.51-0.22-1.93-0.33v-4.13c0,0.97-0.11,1.75-0.34,2.34
		c-0.22,0.6-0.56,1.06-1,1.4c-0.45,0.34-0.99,0.57-1.65,0.7c-0.55,0.11-1.2,0.16-1.9,0.18v0.03c0.12,0,0.23-0.01,0.36-0.01
		c0.82,0,1.67,0.07,2.57,0.2c0.89,0.13,1.54,0.23,1.95,0.31v4.13c0-0.97,0.11-1.75,0.34-2.34c0.22-0.59,0.56-1.06,1-1.4
		c0.45-0.33,1-0.57,1.65-0.7c0.65-0.13,1.4-0.2,2.26-0.2c0.82,0,1.67,0.07,2.57,0.2c0.89,0.13,1.54,0.23,1.95,0.31v4.13
		c0-0.97,0.11-1.75,0.34-2.34c0.22-0.59,0.56-1.06,1-1.4c0.45-0.33,1-0.57,1.65-0.7c0.65-0.13,1.4-0.2,2.26-0.2
		c0.82,0,1.67,0.07,2.57,0.2c0.89,0.13,1.54,0.23,1.95,0.31v4.13c0-0.97,0.11-1.75,0.34-2.34c0.22-0.59,0.56-1.06,1-1.4
		c0.45-0.33,1-0.57,1.65-0.7c0.65-0.13,1.4-0.2,2.26-0.2c0.82,0,1.67,0.07,2.57,0.2c0.89,0.13,1.54,0.23,1.95,0.31v4.13
		c0-0.97,0.11-1.75,0.34-2.34c0.22-0.59,0.56-1.06,1-1.4c0.45-0.33,1-0.57,1.65-0.7c0.65-0.13,1.4-0.2,2.26-0.2
		c0.82,0,1.67,0.07,2.57,0.2c0.89,0.13,1.54,0.23,1.95,0.31v4.13c0-0.97,0.11-1.75,0.34-2.34c0.22-0.59,0.56-1.06,1-1.4
		c0.45-0.33,1-0.57,1.65-0.7c0.65-0.13,1.4-0.2,2.26-0.2c0.82,0,1.67,0.07,2.57,0.2c0.89,0.13,1.54,0.23,1.95,0.31v4.13
		c0-0.97,0.11-1.75,0.34-2.34c0.22-0.59,0.56-1.06,1-1.4c0.45-0.33,1-0.57,1.65-0.7c0.65-0.13,1.4-0.2,2.26-0.2
		c0.82,0,1.67,0.07,2.57,0.2c0.89,0.13,1.54,0.23,1.95,0.31v4.13c0-0.97,0.11-1.75,0.34-2.34c0.22-0.59,0.56-1.06,1-1.4
		c0.45-0.33,1-0.57,1.65-0.7c0.65-0.13,1.4-0.2,2.26-0.2c0.21,0,0.43,0.02,0.64,0.03v-0.1C68.94,81.92,68.49,81.95,68,81.95z"/>
	<path class="st0" d="M15.99,73.07c0.45-0.33,1-0.57,1.65-0.7c0.65-0.13,1.4-0.2,2.26-0.2c0.82,0,1.67,0.07,2.57,0.2
		c0.89,0.13,1.54,0.23,1.95,0.31v4.13c0-0.97,0.11-1.75,0.34-2.34c0.22-0.59,0.56-1.06,1-1.4c0.45-0.33,1-0.57,1.65-0.7
		c0.65-0.13,1.4-0.2,2.26-0.2c0.82,0,1.67,0.07,2.57,0.2c0.89,0.13,1.54,0.23,1.95,0.31v4.13c0-0.97,0.11-1.75,0.34-2.34
		c0.22-0.59,0.56-1.06,1-1.4c0.45-0.33,1-0.57,1.65-0.7c0.65-0.13,1.4-0.2,2.26-0.2c0.82,0,1.67,0.07,2.57,0.2
		c0.89,0.13,1.54,0.23,1.95,0.31v4.13c0-0.97,0.11-1.75,0.34-2.34c0.22-0.59,0.56-1.06,1-1.4c0.45-0.33,1-0.57,1.65-0.7
		c0.65-0.13,1.4-0.2,2.26-0.2c0.82,0,1.67,0.07,2.57,0.2c0.89,0.13,1.54,0.23,1.95,0.31v4.13c0-0.97,0.11-1.75,0.34-2.34
		c0.22-0.59,0.56-1.06,1-1.4c0.45-0.33,1-0.57,1.65-0.7c0.65-0.13,1.4-0.2,2.26-0.2c0.82,0,1.67,0.07,2.57,0.2
		c0.89,0.13,1.54,0.23,1.95,0.31v4.13c0-0.97,0.11-1.75,0.34-2.34c0.22-0.59,0.56-1.06,1-1.4c0.45-0.33,1-0.57,1.65-0.7
		c0.65-0.13,1.4-0.2,2.26-0.2c0.21,0,0.43,0.02,0.64,0.03v-0.1c-0.43,0.04-0.88,0.07-1.37,0.07c-0.86,0-1.72-0.06-2.6-0.17
		c-0.87-0.11-1.51-0.22-1.93-0.33v-4.13c0,0.97-0.11,1.75-0.34,2.34c-0.22,0.6-0.56,1.06-1,1.4c-0.45,0.34-0.99,0.57-1.65,0.7
		c-0.65,0.13-1.4,0.19-2.26,0.19c-0.86,0-1.72-0.06-2.6-0.17c-0.87-0.11-1.51-0.22-1.93-0.33v-4.13c0,0.97-0.11,1.75-0.34,2.34
		c-0.22,0.6-0.56,1.06-1,1.4c-0.45,0.34-0.99,0.57-1.65,0.7c-0.65,0.13-1.4,0.19-2.26,0.19c-0.86,0-1.72-0.06-2.6-0.17
		c-0.87-0.11-1.51-0.22-1.93-0.33v-4.13c0,0.97-0.11,1.75-0.34,2.34c-0.22,0.6-0.56,1.06-1,1.4c-0.45,0.34-0.99,0.57-1.65,0.7
		c-0.65,0.13-1.4,0.19-2.26,0.19c-0.86,0-1.72-0.06-2.6-0.17c-0.87-0.11-1.51-0.22-1.93-0.33v-4.13c0,0.97-0.11,1.75-0.34,2.34
		c-0.22,0.6-0.56,1.06-1,1.4c-0.45,0.34-0.99,0.57-1.65,0.7c-0.65,0.13-1.4,0.19-2.26,0.19c-0.86,0-1.72-0.06-2.6-0.17
		c-0.87-0.11-1.51-0.22-1.93-0.33v-4.13c0,0.97-0.11,1.75-0.34,2.34c-0.22,0.6-0.56,1.06-1,1.4c-0.45,0.34-0.99,0.57-1.65,0.7
		c-0.65,0.13-1.4,0.19-2.26,0.19c-0.86,0-1.72-0.06-2.6-0.17c-0.87-0.11-1.51-0.22-1.93-0.33v-4.13c0,0.97-0.11,1.75-0.34,2.34
		c-0.22,0.6-0.56,1.06-1,1.4c-0.45,0.34-0.99,0.57-1.65,0.7c-0.65,0.13-1.4,0.19-2.26,0.19c-0.86,0-1.72-0.06-2.6-0.17
		c-0.87-0.11-1.51-0.22-1.93-0.33v-4.13c0,0.97-0.11,1.75-0.34,2.34c-0.22,0.6-0.56,1.06-1,1.4c-0.45,0.34-0.99,0.57-1.65,0.7
		c-0.55,0.11-1.2,0.16-1.9,0.18v0.03c0.12,0,0.23-0.01,0.36-0.01c0.82,0,1.67,0.07,2.57,0.2c0.89,0.13,1.54,0.23,1.95,0.31v4.13
		c0-0.97,0.11-1.75,0.34-2.34c0.22-0.59,0.56-1.06,1-1.4c0.45-0.33,1-0.57,1.65-0.7c0.65-0.13,1.4-0.2,2.26-0.2
		c0.82,0,1.67,0.07,2.57,0.2c0.89,0.13,1.54,0.23,1.95,0.31v4.13c0-0.97,0.11-1.75,0.34-2.34C15.21,73.87,15.54,73.41,15.99,73.07"
		/>
	<path class="st0" d="M68,91.71c-0.86,0-1.72-0.06-2.6-0.17c-0.87-0.11-1.51-0.22-1.93-0.33v-4.13c0,0.97-0.11,1.75-0.34,2.34
		c-0.22,0.6-0.56,1.06-1,1.4c-0.45,0.34-0.99,0.57-1.65,0.7c-0.65,0.13-1.4,0.19-2.26,0.19c-0.86,0-1.72-0.06-2.6-0.17
		c-0.87-0.11-1.51-0.22-1.93-0.33v-4.13c0,0.97-0.11,1.75-0.34,2.34c-0.22,0.6-0.56,1.06-1,1.4c-0.45,0.34-0.99,0.57-1.65,0.7
		c-0.65,0.13-1.4,0.19-2.26,0.19c-0.86,0-1.72-0.06-2.6-0.17c-0.87-0.11-1.51-0.22-1.93-0.33v-4.13c0,0.97-0.11,1.75-0.34,2.34
		c-0.22,0.6-0.56,1.06-1,1.4c-0.45,0.34-0.99,0.57-1.65,0.7c-0.65,0.13-1.4,0.19-2.26,0.19c-0.86,0-1.72-0.06-2.6-0.17
		c-0.87-0.11-1.51-0.22-1.93-0.33v-4.13c0,0.97-0.11,1.75-0.34,2.34c-0.22,0.6-0.56,1.06-1,1.4c-0.45,0.34-0.99,0.57-1.65,0.7
		c-0.65,0.13-1.4,0.19-2.26,0.19c-0.86,0-1.72-0.06-2.6-0.17c-0.87-0.11-1.51-0.22-1.93-0.33v-4.13c0,0.97-0.11,1.75-0.34,2.34
		c-0.22,0.6-0.56,1.06-1,1.4c-0.45,0.34-0.99,0.57-1.65,0.7c-0.65,0.13-1.4,0.19-2.26,0.19c-0.86,0-1.72-0.06-2.6-0.17
		c-0.87-0.11-1.51-0.22-1.93-0.33v-4.13c0,0.97-0.11,1.75-0.34,2.34c-0.22,0.6-0.56,1.06-1,1.4c-0.45,0.34-0.99,0.57-1.65,0.7
		c-0.65,0.13-1.4,0.19-2.26,0.19c-0.86,0-1.72-0.06-2.6-0.17c-0.87-0.11-1.51-0.22-1.93-0.33v-4.13c0,0.97-0.11,1.75-0.34,2.34
		c-0.22,0.6-0.56,1.06-1,1.4c-0.45,0.34-0.99,0.57-1.65,0.7C1.34,91.63,0.7,91.68,0,91.7v0.03c0.12,0,0.23-0.01,0.36-0.01
		c0.82,0,1.67,0.07,2.57,0.2c0.89,0.13,1.54,0.23,1.95,0.31v4.13c0-0.97,0.11-1.75,0.34-2.34c0.22-0.59,0.56-1.06,1-1.4
		c0.45-0.33,1-0.57,1.65-0.7c0.65-0.13,1.4-0.2,2.26-0.2c0.82,0,1.67,0.07,2.57,0.2c0.89,0.13,1.54,0.23,1.95,0.31v4.13
		c0-0.97,0.11-1.75,0.34-2.34c0.22-0.59,0.56-1.06,1-1.4c0.45-0.33,1-0.57,1.65-0.7c0.65-0.13,1.4-0.2,2.26-0.2
		c0.82,0,1.67,0.07,2.57,0.2c0.89,0.13,1.54,0.23,1.95,0.31v4.13c0-0.97,0.11-1.75,0.34-2.34c0.22-0.59,0.56-1.06,1-1.4
		c0.45-0.33,1-0.57,1.65-0.7c0.65-0.13,1.4-0.2,2.26-0.2c0.82,0,1.67,0.07,2.57,0.2c0.89,0.13,1.54,0.23,1.95,0.31v4.13
		c0-0.97,0.11-1.75,0.34-2.34c0.22-0.59,0.56-1.06,1-1.4c0.45-0.33,1-0.57,1.65-0.7c0.65-0.13,1.4-0.2,2.26-0.2
		c0.82,0,1.67,0.07,2.57,0.2c0.89,0.13,1.54,0.23,1.95,0.31v4.13c0-0.97,0.11-1.75,0.34-2.34c0.22-0.59,0.56-1.06,1-1.4
		c0.45-0.33,1-0.57,1.65-0.7c0.65-0.13,1.4-0.2,2.26-0.2c0.82,0,1.67,0.07,2.57,0.2c0.89,0.13,1.54,0.23,1.95,0.31v4.13
		c0-0.97,0.11-1.75,0.34-2.34c0.22-0.59,0.56-1.06,1-1.4c0.45-0.33,1-0.57,1.65-0.7c0.65-0.13,1.4-0.2,2.26-0.2
		c0.82,0,1.67,0.07,2.57,0.2c0.89,0.13,1.54,0.23,1.95,0.31v4.13c0-0.97,0.11-1.75,0.34-2.34c0.22-0.59,0.56-1.06,1-1.4
		c0.45-0.33,1-0.57,1.65-0.7c0.65-0.13,1.4-0.2,2.26-0.2c0.21,0,0.43,0.02,0.64,0.03v-0.1C68.94,91.69,68.49,91.71,68,91.71z"/>
	<path class="st0" d="M4.88,136.67v-0.75c0,0.26-0.01,0.51-0.03,0.75H4.88z"/>
	<path class="st0" d="M63.81,123.3c0.22-0.59,0.56-1.06,1-1.4c0.45-0.33,1-0.57,1.65-0.7c0.65-0.13,1.4-0.2,2.26-0.2
		c0.21,0,0.43,0.02,0.64,0.03v-0.1c-0.43,0.04-0.88,0.07-1.37,0.07c-0.86,0-1.72-0.06-2.6-0.17c-0.87-0.11-1.51-0.22-1.93-0.33
		v-4.13c0,0.97-0.11,1.75-0.34,2.34c-0.22,0.6-0.56,1.06-1,1.4c-0.45,0.34-0.99,0.57-1.65,0.7c-0.65,0.13-1.4,0.19-2.26,0.19
		c-0.86,0-1.72-0.06-2.6-0.17c-0.87-0.11-1.51-0.22-1.93-0.33v-4.13c0,0.97-0.11,1.75-0.34,2.34c-0.22,0.6-0.56,1.06-1,1.4
		c-0.45,0.34-0.99,0.57-1.65,0.7c-0.65,0.13-1.4,0.19-2.26,0.19c-0.86,0-1.72-0.06-2.6-0.17c-0.87-0.11-1.51-0.22-1.93-0.33v-4.13
		c0,0.97-0.11,1.75-0.34,2.34c-0.22,0.6-0.56,1.06-1,1.4c-0.45,0.34-0.99,0.57-1.65,0.7c-0.65,0.13-1.4,0.19-2.26,0.19
		c-0.86,0-1.72-0.06-2.6-0.17c-0.87-0.11-1.51-0.22-1.93-0.33v-4.13c0,0.97-0.11,1.75-0.34,2.34c-0.22,0.6-0.56,1.06-1,1.4
		c-0.45,0.34-0.99,0.57-1.65,0.7c-0.65,0.13-1.4,0.19-2.26,0.19c-0.86,0-1.72-0.06-2.6-0.17c-0.87-0.11-1.51-0.22-1.93-0.33v-4.13
		c0,0.97-0.11,1.75-0.34,2.34c-0.22,0.6-0.56,1.06-1,1.4c-0.45,0.34-0.99,0.57-1.65,0.7c-0.65,0.13-1.4,0.19-2.26,0.19
		c-0.86,0-1.72-0.06-2.6-0.17c-0.87-0.11-1.51-0.22-1.93-0.33v-4.13c0,0.97-0.11,1.75-0.34,2.34c-0.22,0.6-0.56,1.06-1,1.4
		c-0.45,0.34-0.99,0.57-1.65,0.7c-0.65,0.13-1.4,0.19-2.26,0.19c-0.86,0-1.72-0.06-2.6-0.17c-0.87-0.11-1.51-0.22-1.93-0.33v-4.13
		c0,0.97-0.11,1.75-0.34,2.34c-0.22,0.6-0.56,1.06-1,1.4c-0.45,0.34-0.99,0.57-1.65,0.7c-0.55,0.11-1.2,0.16-1.9,0.18v0.03
		c0.12,0,0.23-0.01,0.36-0.01c0.82,0,1.67,0.07,2.57,0.2c0.89,0.13,1.54,0.23,1.95,0.31v4.13c0-0.97,0.11-1.75,0.34-2.34
		c0.22-0.59,0.56-1.06,1-1.4c0.45-0.33,1-0.57,1.65-0.7c0.65-0.13,1.4-0.2,2.26-0.2c0.82,0,1.67,0.07,2.57,0.2
		c0.89,0.13,1.54,0.23,1.95,0.31v4.13c0-0.97,0.11-1.75,0.34-2.34c0.22-0.59,0.56-1.06,1-1.4c0.45-0.33,1-0.57,1.65-0.7
		c0.65-0.13,1.4-0.2,2.26-0.2c0.82,0,1.67,0.07,2.57,0.2c0.89,0.13,1.54,0.23,1.95,0.31v4.13c0-0.97,0.11-1.75,0.34-2.34
		c0.22-0.59,0.56-1.06,1-1.4c0.45-0.33,1-0.57,1.65-0.7c0.65-0.13,1.4-0.2,2.26-0.2c0.82,0,1.67,0.07,2.57,0.2
		c0.89,0.13,1.54,0.23,1.95,0.31v4.13c0-0.97,0.11-1.75,0.34-2.34c0.22-0.59,0.56-1.06,1-1.4c0.45-0.33,1-0.57,1.65-0.7
		c0.65-0.13,1.4-0.2,2.26-0.2c0.82,0,1.67,0.07,2.57,0.2c0.89,0.13,1.54,0.23,1.95,0.31v4.13c0-0.97,0.11-1.75,0.34-2.34
		c0.22-0.59,0.56-1.06,1-1.4c0.45-0.33,1-0.57,1.65-0.7c0.65-0.13,1.4-0.2,2.26-0.2c0.82,0,1.67,0.07,2.57,0.2
		c0.89,0.13,1.54,0.23,1.95,0.31v4.13c0-0.97,0.11-1.75,0.34-2.34c0.22-0.59,0.56-1.06,1-1.4c0.45-0.33,1-0.57,1.65-0.7
		c0.65-0.13,1.4-0.2,2.26-0.2c0.82,0,1.67,0.07,2.57,0.2c0.89,0.13,1.54,0.23,1.95,0.31v4.13C63.48,124.68,63.59,123.9,63.81,123.3z
		"/>
	<path class="st0" d="M68,111.25c-0.86,0-1.72-0.06-2.6-0.17c-0.87-0.11-1.51-0.22-1.93-0.33v-4.13c0,0.97-0.11,1.75-0.34,2.34
		c-0.22,0.6-0.56,1.06-1,1.4c-0.45,0.34-0.99,0.57-1.65,0.7c-0.65,0.13-1.4,0.19-2.26,0.19c-0.86,0-1.72-0.06-2.6-0.17
		c-0.87-0.11-1.51-0.22-1.93-0.33v-4.13c0,0.97-0.11,1.75-0.34,2.34c-0.22,0.6-0.56,1.06-1,1.4c-0.45,0.34-0.99,0.57-1.65,0.7
		c-0.65,0.13-1.4,0.19-2.26,0.19c-0.86,0-1.72-0.06-2.6-0.17c-0.87-0.11-1.51-0.22-1.93-0.33v-4.13c0,0.97-0.11,1.75-0.34,2.34
		c-0.22,0.6-0.56,1.06-1,1.4c-0.45,0.34-0.99,0.57-1.65,0.7c-0.65,0.13-1.4,0.19-2.26,0.19c-0.86,0-1.72-0.06-2.6-0.17
		c-0.87-0.11-1.51-0.22-1.93-0.33v-4.13c0,0.97-0.11,1.75-0.34,2.34c-0.22,0.6-0.56,1.06-1,1.4c-0.45,0.34-0.99,0.57-1.65,0.7
		c-0.65,0.13-1.4,0.19-2.26,0.19c-0.86,0-1.72-0.06-2.6-0.17c-0.87-0.11-1.51-0.22-1.93-0.33v-4.13c0,0.97-0.11,1.75-0.34,2.34
		c-0.22,0.6-0.56,1.06-1,1.4c-0.45,0.34-0.99,0.57-1.65,0.7c-0.65,0.13-1.4,0.19-2.26,0.19c-0.86,0-1.72-0.06-2.6-0.17
		c-0.87-0.11-1.51-0.22-1.93-0.33v-4.13c0,0.97-0.11,1.75-0.34,2.34c-0.22,0.6-0.56,1.06-1,1.4c-0.45,0.34-0.99,0.57-1.65,0.7
		c-0.65,0.13-1.4,0.19-2.26,0.19c-0.86,0-1.72-0.06-2.6-0.17c-0.87-0.11-1.51-0.22-1.93-0.33v-4.13c0,0.97-0.11,1.75-0.34,2.34
		c-0.22,0.6-0.56,1.06-1,1.4c-0.45,0.34-0.99,0.57-1.65,0.7c-0.55,0.11-1.2,0.16-1.9,0.18v0.03c0.12,0,0.23-0.01,0.36-0.01
		c0.82,0,1.67,0.07,2.57,0.2c0.89,0.13,1.54,0.23,1.95,0.31v4.13c0-0.97,0.11-1.75,0.34-2.34c0.22-0.59,0.56-1.06,1-1.4
		c0.45-0.33,1-0.57,1.65-0.7c0.65-0.13,1.4-0.2,2.26-0.2c0.82,0,1.67,0.07,2.57,0.2c0.89,0.13,1.54,0.23,1.95,0.31v4.13
		c0-0.97,0.11-1.75,0.34-2.34c0.22-0.59,0.56-1.06,1-1.4c0.45-0.33,1-0.57,1.65-0.7c0.65-0.13,1.4-0.2,2.26-0.2
		c0.82,0,1.67,0.07,2.57,0.2c0.89,0.13,1.54,0.23,1.95,0.31v4.13c0-0.97,0.11-1.75,0.34-2.34c0.22-0.59,0.56-1.06,1-1.4
		c0.45-0.33,1-0.57,1.65-0.7c0.65-0.13,1.4-0.2,2.26-0.2c0.82,0,1.67,0.07,2.57,0.2c0.89,0.13,1.54,0.23,1.95,0.31v4.13
		c0-0.97,0.11-1.75,0.34-2.34c0.22-0.59,0.56-1.06,1-1.4c0.45-0.33,1-0.57,1.65-0.7c0.65-0.13,1.4-0.2,2.26-0.2
		c0.82,0,1.67,0.07,2.57,0.2c0.89,0.13,1.54,0.23,1.95,0.31v4.13c0-0.97,0.11-1.75,0.34-2.34c0.22-0.59,0.56-1.06,1-1.4
		c0.45-0.33,1-0.57,1.65-0.7c0.65-0.13,1.4-0.2,2.26-0.2c0.82,0,1.67,0.07,2.57,0.2c0.89,0.13,1.54,0.23,1.95,0.31v4.13
		c0-0.97,0.11-1.75,0.34-2.34c0.22-0.59,0.56-1.06,1-1.4c0.45-0.33,1-0.57,1.65-0.7c0.65-0.13,1.4-0.2,2.26-0.2
		c0.82,0,1.67,0.07,2.57,0.2c0.89,0.13,1.54,0.23,1.95,0.31v4.13c0-0.97,0.11-1.75,0.34-2.34c0.22-0.59,0.56-1.06,1-1.4
		c0.45-0.33,1-0.57,1.65-0.7c0.65-0.13,1.4-0.2,2.26-0.2c0.21,0,0.43,0.02,0.64,0.03v-0.1C68.94,111.22,68.49,111.25,68,111.25z"/>
	<path class="st0" d="M68,101.48c-0.86,0-1.72-0.06-2.6-0.17c-0.87-0.11-1.51-0.22-1.93-0.33v-4.13c0,0.97-0.11,1.75-0.34,2.34
		c-0.22,0.6-0.56,1.06-1,1.4c-0.45,0.34-0.99,0.57-1.65,0.7c-0.65,0.13-1.4,0.19-2.26,0.19c-0.86,0-1.72-0.06-2.6-0.17
		c-0.87-0.11-1.51-0.22-1.93-0.33v-4.13c0,0.97-0.11,1.75-0.34,2.34c-0.22,0.6-0.56,1.06-1,1.4c-0.45,0.34-0.99,0.57-1.65,0.7
		c-0.65,0.13-1.4,0.19-2.26,0.19c-0.86,0-1.72-0.06-2.6-0.17c-0.87-0.11-1.51-0.22-1.93-0.33v-4.13c0,0.97-0.11,1.75-0.34,2.34
		c-0.22,0.6-0.56,1.06-1,1.4c-0.45,0.34-0.99,0.57-1.65,0.7c-0.65,0.13-1.4,0.19-2.26,0.19c-0.86,0-1.72-0.06-2.6-0.17
		c-0.87-0.11-1.51-0.22-1.93-0.33v-4.13c0,0.97-0.11,1.75-0.34,2.34c-0.22,0.6-0.56,1.06-1,1.4c-0.45,0.34-0.99,0.57-1.65,0.7
		c-0.65,0.13-1.4,0.19-2.26,0.19c-0.86,0-1.72-0.06-2.6-0.17c-0.87-0.11-1.51-0.22-1.93-0.33v-4.13c0,0.97-0.11,1.75-0.34,2.34
		c-0.22,0.6-0.56,1.06-1,1.4c-0.45,0.34-0.99,0.57-1.65,0.7c-0.65,0.13-1.4,0.19-2.26,0.19c-0.86,0-1.72-0.06-2.6-0.17
		c-0.87-0.11-1.51-0.22-1.93-0.33v-4.13c0,0.97-0.11,1.75-0.34,2.34c-0.22,0.6-0.56,1.06-1,1.4c-0.45,0.34-0.99,0.57-1.65,0.7
		c-0.65,0.13-1.4,0.19-2.26,0.19c-0.86,0-1.72-0.06-2.6-0.17c-0.87-0.11-1.51-0.22-1.93-0.33v-4.13c0,0.97-0.11,1.75-0.34,2.34
		c-0.22,0.6-0.56,1.06-1,1.4c-0.45,0.34-0.99,0.57-1.65,0.7c-0.55,0.11-1.2,0.16-1.9,0.18v0.03c0.12,0,0.23-0.01,0.36-0.01
		c0.82,0,1.67,0.07,2.57,0.2c0.89,0.13,1.54,0.23,1.95,0.31v4.13c0-0.97,0.11-1.75,0.34-2.34c0.22-0.59,0.56-1.06,1-1.4
		c0.45-0.33,1-0.57,1.65-0.7c0.65-0.13,1.4-0.2,2.26-0.2c0.82,0,1.67,0.07,2.57,0.2c0.89,0.13,1.54,0.23,1.95,0.31v4.13
		c0-0.97,0.11-1.75,0.34-2.34c0.22-0.59,0.56-1.06,1-1.4c0.45-0.33,1-0.57,1.65-0.7c0.65-0.13,1.4-0.2,2.26-0.2
		c0.82,0,1.67,0.07,2.57,0.2c0.89,0.13,1.54,0.23,1.95,0.31v4.13c0-0.97,0.11-1.75,0.34-2.34c0.22-0.59,0.56-1.06,1-1.4
		c0.45-0.33,1-0.57,1.65-0.7c0.65-0.13,1.4-0.2,2.26-0.2c0.82,0,1.67,0.07,2.57,0.2c0.89,0.13,1.54,0.23,1.95,0.31v4.13
		c0-0.97,0.11-1.75,0.34-2.34c0.22-0.59,0.56-1.06,1-1.4c0.45-0.33,1-0.57,1.65-0.7c0.65-0.13,1.4-0.2,2.26-0.2
		c0.82,0,1.67,0.07,2.57,0.2c0.89,0.13,1.54,0.23,1.95,0.31v4.13c0-0.97,0.11-1.75,0.34-2.34c0.22-0.59,0.56-1.06,1-1.4
		c0.45-0.33,1-0.57,1.65-0.7c0.65-0.13,1.4-0.2,2.26-0.2c0.82,0,1.67,0.07,2.57,0.2c0.89,0.13,1.54,0.23,1.95,0.31v4.13
		c0-0.97,0.11-1.75,0.34-2.34c0.22-0.59,0.56-1.06,1-1.4c0.45-0.33,1-0.57,1.65-0.7c0.65-0.13,1.4-0.2,2.26-0.2
		c0.82,0,1.67,0.07,2.57,0.2c0.89,0.13,1.54,0.23,1.95,0.31v4.13c0-0.97,0.11-1.75,0.34-2.34c0.22-0.59,0.56-1.06,1-1.4
		c0.45-0.33,1-0.57,1.65-0.7c0.65-0.13,1.4-0.2,2.26-0.2c0.21,0,0.43,0.02,0.64,0.03v-0.1C68.94,101.45,68.49,101.48,68,101.48z"/>
	<path class="st0" d="M24.42,136.67v-0.75c0,0.26-0.01,0.51-0.03,0.75H24.42z"/>
	<path class="st0" d="M63.48,136.67v-0.75c0,0.26-0.01,0.51-0.03,0.75H63.48z"/>
	<path class="st0" d="M53.71,136.67v-0.75c0,0.26-0.01,0.51-0.03,0.75H53.71z"/>
	<path class="st0" d="M68,130.78c-0.86,0-1.72-0.06-2.6-0.17c-0.87-0.11-1.51-0.22-1.93-0.33v-4.13c0,0.97-0.11,1.75-0.34,2.34
		c-0.22,0.6-0.56,1.06-1,1.4c-0.45,0.34-0.99,0.57-1.65,0.7c-0.65,0.13-1.4,0.19-2.26,0.19c-0.86,0-1.72-0.06-2.6-0.17
		c-0.87-0.11-1.51-0.22-1.93-0.33v-4.13c0,0.97-0.11,1.75-0.34,2.34c-0.22,0.6-0.56,1.06-1,1.4c-0.45,0.34-0.99,0.57-1.65,0.7
		c-0.65,0.13-1.4,0.19-2.26,0.19c-0.86,0-1.72-0.06-2.6-0.17c-0.87-0.11-1.51-0.22-1.93-0.33v-4.13c0,0.97-0.11,1.75-0.34,2.34
		c-0.22,0.6-0.56,1.06-1,1.4c-0.45,0.34-0.99,0.57-1.65,0.7c-0.65,0.13-1.4,0.19-2.26,0.19c-0.86,0-1.72-0.06-2.6-0.17
		c-0.87-0.11-1.51-0.22-1.93-0.33v-4.13c0,0.97-0.11,1.75-0.34,2.34c-0.22,0.6-0.56,1.06-1,1.4c-0.45,0.34-0.99,0.57-1.65,0.7
		c-0.65,0.13-1.4,0.19-2.26,0.19c-0.86,0-1.72-0.06-2.6-0.17c-0.87-0.11-1.51-0.22-1.93-0.33v-4.13c0,0.97-0.11,1.75-0.34,2.34
		c-0.22,0.6-0.56,1.06-1,1.4c-0.45,0.34-0.99,0.57-1.65,0.7c-0.65,0.13-1.4,0.19-2.26,0.19c-0.86,0-1.72-0.06-2.6-0.17
		c-0.87-0.11-1.51-0.22-1.93-0.33v-4.13c0,0.97-0.11,1.75-0.34,2.34c-0.22,0.6-0.56,1.06-1,1.4c-0.45,0.34-0.99,0.57-1.65,0.7
		c-0.65,0.13-1.4,0.19-2.26,0.19c-0.86,0-1.72-0.06-2.6-0.17c-0.87-0.11-1.51-0.22-1.93-0.33v-4.13c0,0.97-0.11,1.75-0.34,2.34
		c-0.22,0.6-0.56,1.06-1,1.4c-0.45,0.34-0.99,0.57-1.65,0.7c-0.55,0.11-1.2,0.16-1.9,0.18v0.03c0.12,0,0.23-0.01,0.36-0.01
		c0.82,0,1.67,0.07,2.57,0.2c0.89,0.13,1.54,0.23,1.95,0.31v4.13c0-0.97,0.11-1.75,0.34-2.34c0.22-0.59,0.56-1.06,1-1.4
		c0.45-0.33,1-0.57,1.65-0.7c0.65-0.13,1.4-0.2,2.26-0.2c0.82,0,1.67,0.07,2.57,0.2c0.89,0.13,1.54,0.23,1.95,0.31v4.13
		c0-0.97,0.11-1.75,0.34-2.34c0.22-0.59,0.56-1.06,1-1.4c0.45-0.33,1-0.57,1.65-0.7c0.65-0.13,1.4-0.2,2.26-0.2
		c0.82,0,1.67,0.07,2.57,0.2c0.89,0.13,1.54,0.23,1.95,0.31v4.13c0-0.97,0.11-1.75,0.34-2.34c0.22-0.59,0.56-1.06,1-1.4
		c0.45-0.33,1-0.57,1.65-0.7c0.65-0.13,1.4-0.2,2.26-0.2c0.82,0,1.67,0.07,2.57,0.2c0.89,0.13,1.54,0.23,1.95,0.31v4.13
		c0-0.97,0.11-1.75,0.34-2.34c0.22-0.59,0.56-1.06,1-1.4c0.45-0.33,1-0.57,1.65-0.7c0.65-0.13,1.4-0.2,2.26-0.2
		c0.82,0,1.67,0.07,2.57,0.2c0.89,0.13,1.54,0.23,1.95,0.31v4.13c0-0.97,0.11-1.75,0.34-2.34c0.22-0.59,0.56-1.06,1-1.4
		c0.45-0.33,1-0.57,1.65-0.7c0.65-0.13,1.4-0.2,2.26-0.2c0.82,0,1.67,0.07,2.57,0.2c0.89,0.13,1.54,0.23,1.95,0.31v4.13
		c0-0.97,0.11-1.75,0.34-2.34c0.22-0.59,0.56-1.06,1-1.4c0.45-0.33,1-0.57,1.65-0.7c0.65-0.13,1.4-0.2,2.26-0.2
		c0.82,0,1.67,0.07,2.57,0.2c0.89,0.13,1.54,0.23,1.95,0.31v4.13c0-0.97,0.11-1.75,0.34-2.34c0.22-0.59,0.56-1.06,1-1.4
		c0.45-0.33,1-0.57,1.65-0.7c0.65-0.13,1.4-0.2,2.26-0.2c0.21,0,0.43,0.02,0.64,0.03v-0.1C68.94,130.75,68.49,130.78,68,130.78z"/>
	<path class="st0" d="M34.18,136.67v-0.75c0,0.26-0.01,0.51-0.03,0.75H34.18z"/>
	<path class="st0" d="M43.95,136.67v-0.75c0,0.26-0.01,0.51-0.03,0.75H43.95z"/>
	<path class="st0" d="M14.65,136.67v-0.75c0,0.26-0.01,0.51-0.03,0.75H14.65z"/>
</g>
<g>
	<path class="st0" d="M137.37,81.95c-0.86,0-1.72-0.06-2.6-0.17c-0.87-0.11-1.51-0.22-1.93-0.33v-4.13c0,0.97-0.11,1.75-0.34,2.34
		c-0.22,0.6-0.56,1.06-1,1.4c-0.45,0.34-0.99,0.57-1.65,0.7c-0.65,0.13-1.4,0.19-2.26,0.19c-0.86,0-1.72-0.06-2.6-0.17
		c-0.87-0.11-1.51-0.22-1.93-0.33v-4.13c0,0.97-0.11,1.75-0.34,2.34c-0.22,0.6-0.56,1.06-1,1.4c-0.45,0.34-0.99,0.57-1.65,0.7
		c-0.65,0.13-1.4,0.19-2.26,0.19c-0.86,0-1.72-0.06-2.6-0.17c-0.87-0.11-1.51-0.22-1.93-0.33v-4.13c0,0.97-0.11,1.75-0.34,2.34
		c-0.22,0.6-0.56,1.06-1,1.4c-0.45,0.34-0.99,0.57-1.65,0.7c-0.65,0.13-1.4,0.19-2.26,0.19c-0.86,0-1.72-0.06-2.6-0.17
		c-0.87-0.11-1.51-0.22-1.93-0.33v-4.13c0,0.97-0.11,1.75-0.34,2.34c-0.22,0.6-0.56,1.06-1,1.4c-0.45,0.34-0.99,0.57-1.65,0.7
		c-0.65,0.13-1.4,0.19-2.26,0.19c-0.86,0-1.72-0.06-2.6-0.17c-0.87-0.11-1.51-0.22-1.93-0.33v-4.13c0,0.97-0.11,1.75-0.34,2.34
		c-0.22,0.6-0.56,1.06-1,1.4c-0.45,0.34-0.99,0.57-1.65,0.7c-0.65,0.13-1.4,0.19-2.26,0.19c-0.86,0-1.72-0.06-2.6-0.17
		c-0.87-0.11-1.51-0.22-1.93-0.33v-4.13c0,0.97-0.11,1.75-0.34,2.34c-0.22,0.6-0.56,1.06-1,1.4c-0.45,0.34-0.99,0.57-1.65,0.7
		c-0.65,0.13-1.4,0.19-2.26,0.19c-0.86,0-1.72-0.06-2.6-0.17c-0.87-0.11-1.51-0.22-1.93-0.33v-4.13c0,0.97-0.11,1.75-0.34,2.34
		c-0.22,0.6-0.56,1.06-1,1.4c-0.45,0.34-0.99,0.57-1.65,0.7c-0.55,0.11-1.2,0.16-1.9,0.18v0.03c0.12,0,0.23-0.01,0.36-0.01
		c0.82,0,1.67,0.07,2.57,0.2c0.89,0.13,1.54,0.23,1.95,0.31v4.13c0-0.97,0.11-1.75,0.34-2.34c0.22-0.59,0.56-1.06,1-1.4
		c0.45-0.33,1-0.57,1.65-0.7c0.65-0.13,1.4-0.2,2.26-0.2c0.82,0,1.67,0.07,2.57,0.2c0.89,0.13,1.54,0.23,1.95,0.31v4.13
		c0-0.97,0.11-1.75,0.34-2.34c0.22-0.59,0.56-1.06,1-1.4c0.45-0.33,1-0.57,1.65-0.7c0.65-0.13,1.4-0.2,2.26-0.2
		c0.82,0,1.67,0.07,2.57,0.2c0.89,0.13,1.54,0.23,1.95,0.31v4.13c0-0.97,0.11-1.75,0.34-2.34c0.22-0.59,0.56-1.06,1-1.4
		c0.45-0.33,1-0.57,1.65-0.7c0.65-0.13,1.4-0.2,2.26-0.2c0.82,0,1.67,0.07,2.57,0.2c0.89,0.13,1.54,0.23,1.95,0.31v4.13
		c0-0.97,0.11-1.75,0.34-2.34c0.22-0.59,0.56-1.06,1-1.4c0.45-0.33,1-0.57,1.65-0.7c0.65-0.13,1.4-0.2,2.26-0.2
		c0.82,0,1.67,0.07,2.57,0.2c0.89,0.13,1.54,0.23,1.95,0.31v4.13c0-0.97,0.11-1.75,0.34-2.34c0.22-0.59,0.56-1.06,1-1.4
		c0.45-0.33,1-0.57,1.65-0.7c0.65-0.13,1.4-0.2,2.26-0.2c0.82,0,1.67,0.07,2.57,0.2c0.89,0.13,1.54,0.23,1.95,0.31v4.13
		c0-0.97,0.11-1.75,0.34-2.34c0.22-0.59,0.56-1.06,1-1.4c0.45-0.33,1-0.57,1.65-0.7c0.65-0.13,1.4-0.2,2.26-0.2
		c0.82,0,1.67,0.07,2.57,0.2c0.89,0.13,1.54,0.23,1.95,0.31v4.13c0-0.97,0.11-1.75,0.34-2.34c0.22-0.59,0.56-1.06,1-1.4
		c0.45-0.33,1-0.57,1.65-0.7c0.65-0.13,1.4-0.2,2.26-0.2c0.21,0,0.43,0.02,0.64,0.03v-0.1C138.31,81.92,137.86,81.95,137.37,81.95z"
		/>
	<path class="st0" d="M137.37,72.18c-0.86,0-1.72-0.06-2.6-0.17c-0.87-0.11-1.51-0.22-1.93-0.33v-4.13c0,0.97-0.11,1.75-0.34,2.34
		c-0.22,0.6-0.56,1.06-1,1.4c-0.45,0.34-0.99,0.57-1.65,0.7c-0.65,0.13-1.4,0.19-2.26,0.19c-0.86,0-1.72-0.06-2.6-0.17
		c-0.87-0.11-1.51-0.22-1.93-0.33v-4.13c0,0.97-0.11,1.75-0.34,2.34c-0.22,0.6-0.56,1.06-1,1.4c-0.45,0.34-0.99,0.57-1.65,0.7
		c-0.65,0.13-1.4,0.19-2.26,0.19c-0.86,0-1.72-0.06-2.6-0.17c-0.87-0.11-1.51-0.22-1.93-0.33v-4.13c0,0.97-0.11,1.75-0.34,2.34
		c-0.22,0.6-0.56,1.06-1,1.4c-0.45,0.34-0.99,0.57-1.65,0.7c-0.65,0.13-1.4,0.19-2.26,0.19c-0.86,0-1.72-0.06-2.6-0.17
		c-0.87-0.11-1.51-0.22-1.93-0.33v-4.13c0,0.97-0.11,1.75-0.34,2.34c-0.22,0.6-0.56,1.06-1,1.4c-0.45,0.34-0.99,0.57-1.65,0.7
		c-0.65,0.13-1.4,0.19-2.26,0.19c-0.86,0-1.72-0.06-2.6-0.17c-0.87-0.11-1.51-0.22-1.93-0.33v-4.13c0,0.97-0.11,1.75-0.34,2.34
		c-0.22,0.6-0.56,1.06-1,1.4c-0.45,0.34-0.99,0.57-1.65,0.7c-0.65,0.13-1.4,0.19-2.26,0.19c-0.86,0-1.72-0.06-2.6-0.17
		c-0.87-0.11-1.51-0.22-1.93-0.33v-4.13c0,0.97-0.11,1.75-0.34,2.34c-0.22,0.6-0.56,1.06-1,1.4c-0.45,0.34-0.99,0.57-1.65,0.7
		c-0.65,0.13-1.4,0.19-2.26,0.19c-0.86,0-1.72-0.06-2.6-0.17c-0.87-0.11-1.51-0.22-1.93-0.33v-4.13c0,0.97-0.11,1.75-0.34,2.34
		c-0.22,0.6-0.56,1.06-1,1.4c-0.45,0.34-0.99,0.57-1.65,0.7c-0.55,0.11-1.2,0.16-1.9,0.18v0.03c0.12,0,0.23-0.01,0.36-0.01
		c0.82,0,1.67,0.07,2.57,0.2c0.89,0.13,1.54,0.23,1.95,0.31v4.13c0-0.97,0.11-1.75,0.34-2.34c0.22-0.59,0.56-1.06,1-1.4
		c0.45-0.33,1-0.57,1.65-0.7c0.65-0.13,1.4-0.2,2.26-0.2c0.82,0,1.67,0.07,2.57,0.2c0.89,0.13,1.54,0.23,1.95,0.31v4.13
		c0-0.97,0.11-1.75,0.34-2.34c0.22-0.59,0.56-1.06,1-1.4c0.45-0.33,1-0.57,1.65-0.7c0.65-0.13,1.4-0.2,2.26-0.2
		c0.82,0,1.67,0.07,2.57,0.2c0.89,0.13,1.54,0.23,1.95,0.31v4.13c0-0.97,0.11-1.75,0.34-2.34c0.22-0.59,0.56-1.06,1-1.4
		c0.45-0.33,1-0.57,1.65-0.7c0.65-0.13,1.4-0.2,2.26-0.2c0.82,0,1.67,0.07,2.57,0.2c0.89,0.13,1.54,0.23,1.95,0.31v4.13
		c0-0.97,0.11-1.75,0.34-2.34c0.22-0.59,0.56-1.06,1-1.4c0.45-0.33,1-0.57,1.65-0.7c0.65-0.13,1.4-0.2,2.26-0.2
		c0.82,0,1.67,0.07,2.57,0.2c0.89,0.13,1.54,0.23,1.95,0.31v4.13c0-0.97,0.11-1.75,0.34-2.34c0.22-0.59,0.56-1.06,1-1.4
		c0.45-0.33,1-0.57,1.65-0.7c0.65-0.13,1.4-0.2,2.26-0.2c0.82,0,1.67,0.07,2.57,0.2c0.89,0.13,1.54,0.23,1.95,0.31v4.13
		c0-0.97,0.11-1.75,0.34-2.34c0.22-0.59,0.56-1.06,1-1.4c0.45-0.33,1-0.57,1.65-0.7c0.65-0.13,1.4-0.2,2.26-0.2
		c0.82,0,1.67,0.07,2.57,0.2c0.89,0.13,1.54,0.23,1.95,0.31v4.13c0-0.97,0.11-1.75,0.34-2.34c0.22-0.59,0.56-1.06,1-1.4
		c0.45-0.33,1-0.57,1.65-0.7c0.65-0.13,1.4-0.2,2.26-0.2c0.21,0,0.43,0.02,0.64,0.03v-0.1C138.31,72.15,137.86,72.18,137.37,72.18z"
		/>
	<path class="st0" d="M137.37,91.71c-0.86,0-1.72-0.06-2.6-0.17c-0.87-0.11-1.51-0.22-1.93-0.33v-4.13c0,0.97-0.11,1.75-0.34,2.34
		c-0.22,0.6-0.56,1.06-1,1.4c-0.45,0.34-0.99,0.57-1.65,0.7c-0.65,0.13-1.4,0.19-2.26,0.19c-0.86,0-1.72-0.06-2.6-0.17
		c-0.87-0.11-1.51-0.22-1.93-0.33v-4.13c0,0.97-0.11,1.75-0.34,2.34c-0.22,0.6-0.56,1.06-1,1.4c-0.45,0.34-0.99,0.57-1.65,0.7
		c-0.65,0.13-1.4,0.19-2.26,0.19c-0.86,0-1.72-0.06-2.6-0.17c-0.87-0.11-1.51-0.22-1.93-0.33v-4.13c0,0.97-0.11,1.75-0.34,2.34
		c-0.22,0.6-0.56,1.06-1,1.4c-0.45,0.34-0.99,0.57-1.65,0.7c-0.65,0.13-1.4,0.19-2.26,0.19c-0.86,0-1.72-0.06-2.6-0.17
		c-0.87-0.11-1.51-0.22-1.93-0.33v-4.13c0,0.97-0.11,1.75-0.34,2.34c-0.22,0.6-0.56,1.06-1,1.4c-0.45,0.34-0.99,0.57-1.65,0.7
		c-0.65,0.13-1.4,0.19-2.26,0.19c-0.86,0-1.72-0.06-2.6-0.17c-0.87-0.11-1.51-0.22-1.93-0.33v-4.13c0,0.97-0.11,1.75-0.34,2.34
		c-0.22,0.6-0.56,1.06-1,1.4c-0.45,0.34-0.99,0.57-1.65,0.7c-0.65,0.13-1.4,0.19-2.26,0.19c-0.86,0-1.72-0.06-2.6-0.17
		c-0.87-0.11-1.51-0.22-1.93-0.33v-4.13c0,0.97-0.11,1.75-0.34,2.34c-0.22,0.6-0.56,1.06-1,1.4c-0.45,0.34-0.99,0.57-1.65,0.7
		c-0.65,0.13-1.4,0.19-2.26,0.19c-0.86,0-1.72-0.06-2.6-0.17c-0.87-0.11-1.51-0.22-1.93-0.33v-4.13c0,0.97-0.11,1.75-0.34,2.34
		c-0.22,0.6-0.56,1.06-1,1.4c-0.45,0.34-0.99,0.57-1.65,0.7c-0.55,0.11-1.2,0.16-1.9,0.18v0.03c0.12,0,0.23-0.01,0.36-0.01
		c0.82,0,1.67,0.07,2.57,0.2c0.89,0.13,1.54,0.23,1.95,0.31v4.13c0-0.97,0.11-1.75,0.34-2.34c0.22-0.59,0.56-1.06,1-1.4
		c0.45-0.33,1-0.57,1.65-0.7c0.65-0.13,1.4-0.2,2.26-0.2c0.82,0,1.67,0.07,2.57,0.2c0.89,0.13,1.54,0.23,1.95,0.31v4.13
		c0-0.97,0.11-1.75,0.34-2.34c0.22-0.59,0.56-1.06,1-1.4c0.45-0.33,1-0.57,1.65-0.7c0.65-0.13,1.4-0.2,2.26-0.2
		c0.82,0,1.67,0.07,2.57,0.2c0.89,0.13,1.54,0.23,1.95,0.31v4.13c0-0.97,0.11-1.75,0.34-2.34c0.22-0.59,0.56-1.06,1-1.4
		c0.45-0.33,1-0.57,1.65-0.7c0.65-0.13,1.4-0.2,2.26-0.2c0.82,0,1.67,0.07,2.57,0.2c0.89,0.13,1.54,0.23,1.95,0.31v4.13
		c0-0.97,0.11-1.75,0.34-2.34c0.22-0.59,0.56-1.06,1-1.4c0.45-0.33,1-0.57,1.65-0.7c0.65-0.13,1.4-0.2,2.26-0.2
		c0.82,0,1.67,0.07,2.57,0.2c0.89,0.13,1.54,0.23,1.95,0.31v4.13c0-0.97,0.11-1.75,0.34-2.34c0.22-0.59,0.56-1.06,1-1.4
		c0.45-0.33,1-0.57,1.65-0.7c0.65-0.13,1.4-0.2,2.26-0.2c0.82,0,1.67,0.07,2.57,0.2c0.89,0.13,1.54,0.23,1.95,0.31v4.13
		c0-0.97,0.11-1.75,0.34-2.34c0.22-0.59,0.56-1.06,1-1.4c0.45-0.33,1-0.57,1.65-0.7c0.65-0.13,1.4-0.2,2.26-0.2
		c0.82,0,1.67,0.07,2.57,0.2c0.89,0.13,1.54,0.23,1.95,0.31v4.13c0-0.97,0.11-1.75,0.34-2.34c0.22-0.59,0.56-1.06,1-1.4
		c0.45-0.33,1-0.57,1.65-0.7c0.65-0.13,1.4-0.2,2.26-0.2c0.21,0,0.43,0.02,0.64,0.03v-0.1C138.31,91.69,137.86,91.71,137.37,91.71z"
		/>
	<path class="st0" d="M74.25,136.67v-0.75c0,0.26-0.01,0.51-0.03,0.75H74.25z"/>
	<path class="st0" d="M133.18,123.3c0.22-0.59,0.56-1.06,1-1.4c0.45-0.33,1-0.57,1.65-0.7c0.65-0.13,1.4-0.2,2.26-0.2
		c0.21,0,0.43,0.02,0.64,0.03v-0.1c-0.43,0.04-0.88,0.07-1.37,0.07c-0.86,0-1.72-0.06-2.6-0.17c-0.87-0.11-1.51-0.22-1.93-0.33
		v-4.13c0,0.97-0.11,1.75-0.34,2.34c-0.22,0.6-0.56,1.06-1,1.4c-0.45,0.34-0.99,0.57-1.65,0.7c-0.65,0.13-1.4,0.19-2.26,0.19
		c-0.86,0-1.72-0.06-2.6-0.17c-0.87-0.11-1.51-0.22-1.93-0.33v-4.13c0,0.97-0.11,1.75-0.34,2.34c-0.22,0.6-0.56,1.06-1,1.4
		c-0.45,0.34-0.99,0.57-1.65,0.7c-0.65,0.13-1.4,0.19-2.26,0.19c-0.86,0-1.72-0.06-2.6-0.17c-0.87-0.11-1.51-0.22-1.93-0.33v-4.13
		c0,0.97-0.11,1.75-0.34,2.34c-0.22,0.6-0.56,1.06-1,1.4c-0.45,0.34-0.99,0.57-1.65,0.7c-0.65,0.13-1.4,0.19-2.26,0.19
		c-0.86,0-1.72-0.06-2.6-0.17c-0.87-0.11-1.51-0.22-1.93-0.33v-4.13c0,0.97-0.11,1.75-0.34,2.34c-0.22,0.6-0.56,1.06-1,1.4
		c-0.45,0.34-0.99,0.57-1.65,0.7c-0.65,0.13-1.4,0.19-2.26,0.19c-0.86,0-1.72-0.06-2.6-0.17c-0.87-0.11-1.51-0.22-1.93-0.33v-4.13
		c0,0.97-0.11,1.75-0.34,2.34c-0.22,0.6-0.56,1.06-1,1.4c-0.45,0.34-0.99,0.57-1.65,0.7c-0.65,0.13-1.4,0.19-2.26,0.19
		c-0.86,0-1.72-0.06-2.6-0.17c-0.87-0.11-1.51-0.22-1.93-0.33v-4.13c0,0.97-0.11,1.75-0.34,2.34c-0.22,0.6-0.56,1.06-1,1.4
		c-0.45,0.34-0.99,0.57-1.65,0.7c-0.65,0.13-1.4,0.19-2.26,0.19c-0.86,0-1.72-0.06-2.6-0.17c-0.87-0.11-1.51-0.22-1.93-0.33v-4.13
		c0,0.97-0.11,1.75-0.34,2.34c-0.22,0.6-0.56,1.06-1,1.4c-0.45,0.34-0.99,0.57-1.65,0.7c-0.55,0.11-1.2,0.16-1.9,0.18v0.03
		c0.12,0,0.23-0.01,0.36-0.01c0.82,0,1.67,0.07,2.57,0.2c0.89,0.13,1.54,0.23,1.95,0.31v4.13c0-0.97,0.11-1.75,0.34-2.34
		c0.22-0.59,0.56-1.06,1-1.4c0.45-0.33,1-0.57,1.65-0.7c0.65-0.13,1.4-0.2,2.26-0.2c0.82,0,1.67,0.07,2.57,0.2
		c0.89,0.13,1.54,0.23,1.95,0.31v4.13c0-0.97,0.11-1.75,0.34-2.34c0.22-0.59,0.56-1.06,1-1.4c0.45-0.33,1-0.57,1.65-0.7
		c0.65-0.13,1.4-0.2,2.26-0.2c0.82,0,1.67,0.07,2.57,0.2c0.89,0.13,1.54,0.23,1.95,0.31v4.13c0-0.97,0.11-1.75,0.34-2.34
		c0.22-0.59,0.56-1.06,1-1.4c0.45-0.33,1-0.57,1.65-0.7c0.65-0.13,1.4-0.2,2.26-0.2c0.82,0,1.67,0.07,2.57,0.2
		c0.89,0.13,1.54,0.23,1.95,0.31v4.13c0-0.97,0.11-1.75,0.34-2.34c0.22-0.59,0.56-1.06,1-1.4c0.45-0.33,1-0.57,1.65-0.7
		c0.65-0.13,1.4-0.2,2.26-0.2c0.82,0,1.67,0.07,2.57,0.2c0.89,0.13,1.54,0.23,1.95,0.31v4.13c0-0.97,0.11-1.75,0.34-2.34
		c0.22-0.59,0.56-1.06,1-1.4c0.45-0.33,1-0.57,1.65-0.7c0.65-0.13,1.4-0.2,2.26-0.2c0.82,0,1.67,0.07,2.57,0.2
		c0.89,0.13,1.54,0.23,1.95,0.31v4.13c0-0.97,0.11-1.75,0.34-2.34c0.22-0.59,0.56-1.06,1-1.4c0.45-0.33,1-0.57,1.65-0.7
		c0.65-0.13,1.4-0.2,2.26-0.2c0.82,0,1.67,0.07,2.57,0.2c0.89,0.13,1.54,0.23,1.95,0.31v4.13
		C132.85,124.68,132.96,123.9,133.18,123.3z"/>
	<path class="st0" d="M137.37,111.25c-0.86,0-1.72-0.06-2.6-0.17c-0.87-0.11-1.51-0.22-1.93-0.33v-4.13c0,0.97-0.11,1.75-0.34,2.34
		c-0.22,0.6-0.56,1.06-1,1.4c-0.45,0.34-0.99,0.57-1.65,0.7c-0.65,0.13-1.4,0.19-2.26,0.19c-0.86,0-1.72-0.06-2.6-0.17
		c-0.87-0.11-1.51-0.22-1.93-0.33v-4.13c0,0.97-0.11,1.75-0.34,2.34c-0.22,0.6-0.56,1.06-1,1.4c-0.45,0.34-0.99,0.57-1.65,0.7
		c-0.65,0.13-1.4,0.19-2.26,0.19c-0.86,0-1.72-0.06-2.6-0.17c-0.87-0.11-1.51-0.22-1.93-0.33v-4.13c0,0.97-0.11,1.75-0.34,2.34
		c-0.22,0.6-0.56,1.06-1,1.4c-0.45,0.34-0.99,0.57-1.65,0.7c-0.65,0.13-1.4,0.19-2.26,0.19c-0.86,0-1.72-0.06-2.6-0.17
		c-0.87-0.11-1.51-0.22-1.93-0.33v-4.13c0,0.97-0.11,1.75-0.34,2.34c-0.22,0.6-0.56,1.06-1,1.4c-0.45,0.34-0.99,0.57-1.65,0.7
		c-0.65,0.13-1.4,0.19-2.26,0.19c-0.86,0-1.72-0.06-2.6-0.17c-0.87-0.11-1.51-0.22-1.93-0.33v-4.13c0,0.97-0.11,1.75-0.34,2.34
		c-0.22,0.6-0.56,1.06-1,1.4c-0.45,0.34-0.99,0.57-1.65,0.7c-0.65,0.13-1.4,0.19-2.26,0.19c-0.86,0-1.72-0.06-2.6-0.17
		c-0.87-0.11-1.51-0.22-1.93-0.33v-4.13c0,0.97-0.11,1.75-0.34,2.34c-0.22,0.6-0.56,1.06-1,1.4c-0.45,0.34-0.99,0.57-1.65,0.7
		c-0.65,0.13-1.4,0.19-2.26,0.19c-0.86,0-1.72-0.06-2.6-0.17c-0.87-0.11-1.51-0.22-1.93-0.33v-4.13c0,0.97-0.11,1.75-0.34,2.34
		c-0.22,0.6-0.56,1.06-1,1.4c-0.45,0.34-0.99,0.57-1.65,0.7c-0.55,0.11-1.2,0.16-1.9,0.18v0.03c0.12,0,0.23-0.01,0.36-0.01
		c0.82,0,1.67,0.07,2.57,0.2c0.89,0.13,1.54,0.23,1.95,0.31v4.13c0-0.97,0.11-1.75,0.34-2.34c0.22-0.59,0.56-1.06,1-1.4
		c0.45-0.33,1-0.57,1.65-0.7c0.65-0.13,1.4-0.2,2.26-0.2c0.82,0,1.67,0.07,2.57,0.2c0.89,0.13,1.54,0.23,1.95,0.31v4.13
		c0-0.97,0.11-1.75,0.34-2.34c0.22-0.59,0.56-1.06,1-1.4c0.45-0.33,1-0.57,1.65-0.7c0.65-0.13,1.4-0.2,2.26-0.2
		c0.82,0,1.67,0.07,2.57,0.2c0.89,0.13,1.54,0.23,1.95,0.31v4.13c0-0.97,0.11-1.75,0.34-2.34c0.22-0.59,0.56-1.06,1-1.4
		c0.45-0.33,1-0.57,1.65-0.7c0.65-0.13,1.4-0.2,2.26-0.2c0.82,0,1.67,0.07,2.57,0.2c0.89,0.13,1.54,0.23,1.95,0.31v4.13
		c0-0.97,0.11-1.75,0.34-2.34c0.22-0.59,0.56-1.06,1-1.4c0.45-0.33,1-0.57,1.65-0.7c0.65-0.13,1.4-0.2,2.26-0.2
		c0.82,0,1.67,0.07,2.57,0.2c0.89,0.13,1.54,0.23,1.95,0.31v4.13c0-0.97,0.11-1.75,0.34-2.34c0.22-0.59,0.56-1.06,1-1.4
		c0.45-0.33,1-0.57,1.65-0.7c0.65-0.13,1.4-0.2,2.26-0.2c0.82,0,1.67,0.07,2.57,0.2c0.89,0.13,1.54,0.23,1.95,0.31v4.13
		c0-0.97,0.11-1.75,0.34-2.34c0.22-0.59,0.56-1.06,1-1.4c0.45-0.33,1-0.57,1.65-0.7c0.65-0.13,1.4-0.2,2.26-0.2
		c0.82,0,1.67,0.07,2.57,0.2c0.89,0.13,1.54,0.23,1.95,0.31v4.13c0-0.97,0.11-1.75,0.34-2.34c0.22-0.59,0.56-1.06,1-1.4
		c0.45-0.33,1-0.57,1.65-0.7c0.65-0.13,1.4-0.2,2.26-0.2c0.21,0,0.43,0.02,0.64,0.03v-0.1
		C138.31,111.22,137.86,111.25,137.37,111.25z"/>
	<path class="st0" d="M137.37,101.48c-0.86,0-1.72-0.06-2.6-0.17c-0.87-0.11-1.51-0.22-1.93-0.33v-4.13c0,0.97-0.11,1.75-0.34,2.34
		c-0.22,0.6-0.56,1.06-1,1.4c-0.45,0.34-0.99,0.57-1.65,0.7c-0.65,0.13-1.4,0.19-2.26,0.19c-0.86,0-1.72-0.06-2.6-0.17
		c-0.87-0.11-1.51-0.22-1.93-0.33v-4.13c0,0.97-0.11,1.75-0.34,2.34c-0.22,0.6-0.56,1.06-1,1.4c-0.45,0.34-0.99,0.57-1.65,0.7
		c-0.65,0.13-1.4,0.19-2.26,0.19c-0.86,0-1.72-0.06-2.6-0.17c-0.87-0.11-1.51-0.22-1.93-0.33v-4.13c0,0.97-0.11,1.75-0.34,2.34
		c-0.22,0.6-0.56,1.06-1,1.4c-0.45,0.34-0.99,0.57-1.65,0.7c-0.65,0.13-1.4,0.19-2.26,0.19c-0.86,0-1.72-0.06-2.6-0.17
		c-0.87-0.11-1.51-0.22-1.93-0.33v-4.13c0,0.97-0.11,1.75-0.34,2.34c-0.22,0.6-0.56,1.06-1,1.4c-0.45,0.34-0.99,0.57-1.65,0.7
		c-0.65,0.13-1.4,0.19-2.26,0.19c-0.86,0-1.72-0.06-2.6-0.17c-0.87-0.11-1.51-0.22-1.93-0.33v-4.13c0,0.97-0.11,1.75-0.34,2.34
		c-0.22,0.6-0.56,1.06-1,1.4c-0.45,0.34-0.99,0.57-1.65,0.7c-0.65,0.13-1.4,0.19-2.26,0.19c-0.86,0-1.72-0.06-2.6-0.17
		c-0.87-0.11-1.51-0.22-1.93-0.33v-4.13c0,0.97-0.11,1.75-0.34,2.34c-0.22,0.6-0.56,1.06-1,1.4c-0.45,0.34-0.99,0.57-1.65,0.7
		c-0.65,0.13-1.4,0.19-2.26,0.19c-0.86,0-1.72-0.06-2.6-0.17c-0.87-0.11-1.51-0.22-1.93-0.33v-4.13c0,0.97-0.11,1.75-0.34,2.34
		c-0.22,0.6-0.56,1.06-1,1.4c-0.45,0.34-0.99,0.57-1.65,0.7c-0.55,0.11-1.2,0.16-1.9,0.18v0.03c0.12,0,0.23-0.01,0.36-0.01
		c0.82,0,1.67,0.07,2.57,0.2c0.89,0.13,1.54,0.23,1.95,0.31v4.13c0-0.97,0.11-1.75,0.34-2.34c0.22-0.59,0.56-1.06,1-1.4
		c0.45-0.33,1-0.57,1.65-0.7c0.65-0.13,1.4-0.2,2.26-0.2c0.82,0,1.67,0.07,2.57,0.2c0.89,0.13,1.54,0.23,1.95,0.31v4.13
		c0-0.97,0.11-1.75,0.34-2.34c0.22-0.59,0.56-1.06,1-1.4c0.45-0.33,1-0.57,1.65-0.7c0.65-0.13,1.4-0.2,2.26-0.2
		c0.82,0,1.67,0.07,2.57,0.2c0.89,0.13,1.54,0.23,1.95,0.31v4.13c0-0.97,0.11-1.75,0.34-2.34c0.22-0.59,0.56-1.06,1-1.4
		c0.45-0.33,1-0.57,1.65-0.7c0.65-0.13,1.4-0.2,2.26-0.2c0.82,0,1.67,0.07,2.57,0.2c0.89,0.13,1.54,0.23,1.95,0.31v4.13
		c0-0.97,0.11-1.75,0.34-2.34c0.22-0.59,0.56-1.06,1-1.4c0.45-0.33,1-0.57,1.65-0.7c0.65-0.13,1.4-0.2,2.26-0.2
		c0.82,0,1.67,0.07,2.57,0.2c0.89,0.13,1.54,0.23,1.95,0.31v4.13c0-0.97,0.11-1.75,0.34-2.34c0.22-0.59,0.56-1.06,1-1.4
		c0.45-0.33,1-0.57,1.65-0.7c0.65-0.13,1.4-0.2,2.26-0.2c0.82,0,1.67,0.07,2.57,0.2c0.89,0.13,1.54,0.23,1.95,0.31v4.13
		c0-0.97,0.11-1.75,0.34-2.34c0.22-0.59,0.56-1.06,1-1.4c0.45-0.33,1-0.57,1.65-0.7c0.65-0.13,1.4-0.2,2.26-0.2
		c0.82,0,1.67,0.07,2.57,0.2c0.89,0.13,1.54,0.23,1.95,0.31v4.13c0-0.97,0.11-1.75,0.34-2.34c0.22-0.59,0.56-1.06,1-1.4
		c0.45-0.33,1-0.57,1.65-0.7c0.65-0.13,1.4-0.2,2.26-0.2c0.21,0,0.43,0.02,0.64,0.03v-0.1
		C138.31,101.45,137.86,101.48,137.37,101.48z"/>
	<path class="st0" d="M93.78,136.67v-0.75c0,0.26-0.01,0.51-0.03,0.75H93.78z"/>
	<path class="st0" d="M132.85,136.67v-0.75c0,0.26-0.01,0.51-0.03,0.75H132.85z"/>
	<path class="st0" d="M123.08,136.67v-0.75c0,0.26-0.01,0.51-0.03,0.75H123.08z"/>
	<path class="st0" d="M137.37,130.78c-0.86,0-1.72-0.06-2.6-0.17c-0.87-0.11-1.51-0.22-1.93-0.33v-4.13c0,0.97-0.11,1.75-0.34,2.34
		c-0.22,0.6-0.56,1.06-1,1.4c-0.45,0.34-0.99,0.57-1.65,0.7c-0.65,0.13-1.4,0.19-2.26,0.19c-0.86,0-1.72-0.06-2.6-0.17
		c-0.87-0.11-1.51-0.22-1.93-0.33v-4.13c0,0.97-0.11,1.75-0.34,2.34c-0.22,0.6-0.56,1.06-1,1.4c-0.45,0.34-0.99,0.57-1.65,0.7
		c-0.65,0.13-1.4,0.19-2.26,0.19c-0.86,0-1.72-0.06-2.6-0.17c-0.87-0.11-1.51-0.22-1.93-0.33v-4.13c0,0.97-0.11,1.75-0.34,2.34
		c-0.22,0.6-0.56,1.06-1,1.4c-0.45,0.34-0.99,0.57-1.65,0.7c-0.65,0.13-1.4,0.19-2.26,0.19c-0.86,0-1.72-0.06-2.6-0.17
		c-0.87-0.11-1.51-0.22-1.93-0.33v-4.13c0,0.97-0.11,1.75-0.34,2.34c-0.22,0.6-0.56,1.06-1,1.4c-0.45,0.34-0.99,0.57-1.65,0.7
		c-0.65,0.13-1.4,0.19-2.26,0.19c-0.86,0-1.72-0.06-2.6-0.17c-0.87-0.11-1.51-0.22-1.93-0.33v-4.13c0,0.97-0.11,1.75-0.34,2.34
		c-0.22,0.6-0.56,1.06-1,1.4c-0.45,0.34-0.99,0.57-1.65,0.7c-0.65,0.13-1.4,0.19-2.26,0.19c-0.86,0-1.72-0.06-2.6-0.17
		c-0.87-0.11-1.51-0.22-1.93-0.33v-4.13c0,0.97-0.11,1.75-0.34,2.34c-0.22,0.6-0.56,1.06-1,1.4c-0.45,0.34-0.99,0.57-1.65,0.7
		c-0.65,0.13-1.4,0.19-2.26,0.19c-0.86,0-1.72-0.06-2.6-0.17c-0.87-0.11-1.51-0.22-1.93-0.33v-4.13c0,0.97-0.11,1.75-0.34,2.34
		c-0.22,0.6-0.56,1.06-1,1.4c-0.45,0.34-0.99,0.57-1.65,0.7c-0.55,0.11-1.2,0.16-1.9,0.18v0.03c0.12,0,0.23-0.01,0.36-0.01
		c0.82,0,1.67,0.07,2.57,0.2c0.89,0.13,1.54,0.23,1.95,0.31v4.13c0-0.97,0.11-1.75,0.34-2.34c0.22-0.59,0.56-1.06,1-1.4
		c0.45-0.33,1-0.57,1.65-0.7c0.65-0.13,1.4-0.2,2.26-0.2c0.82,0,1.67,0.07,2.57,0.2c0.89,0.13,1.54,0.23,1.95,0.31v4.13
		c0-0.97,0.11-1.75,0.34-2.34c0.22-0.59,0.56-1.06,1-1.4c0.45-0.33,1-0.57,1.65-0.7c0.65-0.13,1.4-0.2,2.26-0.2
		c0.82,0,1.67,0.07,2.57,0.2c0.89,0.13,1.54,0.23,1.95,0.31v4.13c0-0.97,0.11-1.75,0.34-2.34c0.22-0.59,0.56-1.06,1-1.4
		c0.45-0.33,1-0.57,1.65-0.7c0.65-0.13,1.4-0.2,2.26-0.2c0.82,0,1.67,0.07,2.57,0.2c0.89,0.13,1.54,0.23,1.95,0.31v4.13
		c0-0.97,0.11-1.75,0.34-2.34c0.22-0.59,0.56-1.06,1-1.4c0.45-0.33,1-0.57,1.65-0.7c0.65-0.13,1.4-0.2,2.26-0.2
		c0.82,0,1.67,0.07,2.57,0.2c0.89,0.13,1.54,0.23,1.95,0.31v4.13c0-0.97,0.11-1.75,0.34-2.34c0.22-0.59,0.56-1.06,1-1.4
		c0.45-0.33,1-0.57,1.65-0.7c0.65-0.13,1.4-0.2,2.26-0.2c0.82,0,1.67,0.07,2.57,0.2c0.89,0.13,1.54,0.23,1.95,0.31v4.13
		c0-0.97,0.11-1.75,0.34-2.34c0.22-0.59,0.56-1.06,1-1.4c0.45-0.33,1-0.57,1.65-0.7c0.65-0.13,1.4-0.2,2.26-0.2
		c0.82,0,1.67,0.07,2.57,0.2c0.89,0.13,1.54,0.23,1.95,0.31v4.13c0-0.97,0.11-1.75,0.34-2.34c0.22-0.59,0.56-1.06,1-1.4
		c0.45-0.33,1-0.57,1.65-0.7c0.65-0.13,1.4-0.2,2.26-0.2c0.21,0,0.43,0.02,0.64,0.03v-0.1
		C138.31,130.75,137.86,130.78,137.37,130.78z"/>
	<path class="st0" d="M103.55,136.67v-0.75c0,0.26-0.01,0.51-0.03,0.75H103.55z"/>
	<path class="st0" d="M113.32,136.67v-0.75c0,0.26-0.01,0.51-0.03,0.75H113.32z"/>
	<path class="st0" d="M84.02,136.67v-0.75c0,0.26-0.01,0.51-0.03,0.75H84.02z"/>
</g>
</svg>
