<svg height="512pt" viewBox="-26 0 511 512" width="512pt" xmlns="http://www.w3.org/2000/svg"><path d="m116.074219 396.914062 7.5-12.992187 49.0625 28.332031-7.503907 12.988282zm0 0"/><path d="m115.988281 115.34375 49.140625-28.378906 7.503906 12.992187-49.144531 28.378907zm0 0"/><path d="m287.335938 99.925781 7.503906-12.992187 49.140625 28.382812-7.5 12.988282zm0 0"/><path d="m393.882812 227.609375h15v57.128906h-15zm0 0"/><path d="m229.984375 395.832031c-32.027344 0-58.085937 26.058594-58.085937 58.082031 0 32.03125 26.058593 58.085938 58.085937 58.085938s58.082031-26.054688 58.082031-58.085938c0-32.023437-26.054687-58.082031-58.082031-58.082031zm0 101.167969c-23.757813 0-43.085937-19.328125-43.085937-43.085938 0-23.753906 19.328124-43.082031 43.085937-43.082031s43.082031 19.328125 43.082031 43.082031c0 23.757813-19.324218 43.085938-43.082031 43.085938zm0 0"/><path d="m229.984375 116.167969c32.027344 0 58.082031-26.058594 58.082031-58.082031 0-32.03125-26.054687-58.085938-58.082031-58.085938s-58.085937 26.054688-58.085937 58.085938c0 32.023437 26.058593 58.082031 58.085937 58.082031zm0-101.167969c23.757813 0 43.082031 19.328125 43.082031 43.085938 0 23.753906-19.324218 43.082031-43.082031 43.082031s-43.085937-19.328125-43.085937-43.082031c0-23.757813 19.328124-43.085938 43.085937-43.085938zm0 0"/><path d="m229.984375 314.128906c32.027344 0 58.082031-26.054687 58.082031-58.082031s-26.054687-58.085937-58.082031-58.085937-58.085937 26.058593-58.085937 58.085937 26.058593 58.082031 58.085937 58.082031zm0-101.167968c23.757813 0 43.082031 19.328124 43.082031 43.082031 0 23.757812-19.324218 43.085937-43.082031 43.085937s-43.085937-19.328125-43.085937-43.085937c0-23.753907 19.328124-43.082031 43.085937-43.082031zm0 0"/><path d="m401.382812 214.855469c32.027344 0 58.085938-26.054688 58.085938-58.085938 0-32.027343-26.058594-58.082031-58.085938-58.082031-32.027343 0-58.082031 26.054688-58.082031 58.082031 0 32.03125 26.054688 58.085938 58.082031 58.085938zm0-101.167969c23.757813 0 43.085938 19.328125 43.085938 43.082031 0 23.757813-19.328125 43.085938-43.085938 43.085938-23.753906 0-43.082031-19.328125-43.082031-43.085938 0-23.753906 19.328125-43.082031 43.082031-43.082031zm0 0"/><path d="m401.382812 296.976562c-32.027343 0-58.082031 26.054688-58.082031 58.082032s26.054688 58.082031 58.082031 58.082031c32.027344 0 58.085938-26.054687 58.085938-58.082031s-26.058594-58.082032-58.085938-58.082032zm0 101.167969c-23.753906 0-43.082031-19.328125-43.082031-43.085937 0-23.753906 19.328125-43.082032 43.082031-43.082032 23.757813 0 43.085938 19.328126 43.085938 43.082032 0 23.757812-19.328125 43.085937-43.085938 43.085937zm0 0"/><path d="m58.585938 214.855469c32.023437 0 58.082031-26.054688 58.082031-58.085938 0-32.027343-26.058594-58.082031-58.082031-58.082031-32.03125 0-58.085938 26.054688-58.085938 58.082031 0 32.03125 26.054688 58.085938 58.085938 58.085938zm0-101.167969c23.753906 0 43.082031 19.328125 43.082031 43.082031 0 23.757813-19.328125 43.085938-43.082031 43.085938-23.757813 0-43.085938-19.328125-43.085938-43.085938 0-23.753906 19.328125-43.082031 43.085938-43.082031zm0 0"/><path d="m58.585938 296.976562c-32.03125 0-58.085938 26.054688-58.085938 58.082032s26.054688 58.082031 58.085938 58.082031c32.023437 0 58.082031-26.054687 58.082031-58.082031s-26.058594-58.082032-58.082031-58.082032zm0 101.167969c-23.757813 0-43.085938-19.328125-43.085938-43.085937 0-23.753906 19.328125-43.082032 43.085938-43.082032 23.753906 0 43.082031 19.328126 43.082031 43.082032 0 23.757812-19.328125 43.085937-43.082031 43.085937zm0 0"/><path d="m222.484375 128.761719h15v56.699219h-15zm0 0"/><path d="m115.824219 313.363281 49.300781-28.515625 7.507812 12.984375-49.300781 28.515625zm0 0"/><path d="m287.339844 297.824219 7.511718-12.984375 49.300782 28.523437-7.511719 12.984375zm0 0"/><path d="m253.378906 477.308594-10.609375-10.605469c3.410157-3.40625 5.285157-7.949219 5.285157-12.789063 0-2.453124-.480469-4.835937-1.429688-7.078124l13.8125-5.851563c1.738281 4.105469 2.621094 8.453125 2.621094 12.929687-.003906 8.847657-3.441406 17.152344-9.679688 23.394532zm-36.183594-36.179688-10.605468-10.605468c4.625-4.625 10.457031-7.75 16.863281-9.03125l2.945313 14.707031c-3.496094.699219-6.675782 2.40625-9.203126 4.929687zm25.480469-.09375c-2.539062-2.503906-5.734375-4.1875-9.234375-4.859375l2.839844-14.730469c6.417969 1.238282 12.269531 4.316407 16.925781 8.910157zm0 0"/><path d="m253.378906 81.476562-10.605468-10.605468c3.40625-3.40625 5.285156-7.949219 5.285156-12.785156 0-2.457032-.484375-4.839844-1.433594-7.082032l13.8125-5.851562c1.738281 4.105468 2.621094 8.457031 2.621094 12.933594-.003906 8.84375-3.441406 17.148437-9.679688 23.390624zm-36.183594-36.179687-10.605468-10.605469c4.625-4.625 10.457031-7.75 16.863281-9.03125l2.945313 14.707032c-3.496094.699218-6.675782 2.402343-9.203126 4.929687zm25.484376-.09375c-2.542969-2.503906-5.738282-4.1875-9.238282-4.859375l2.839844-14.730469c6.414062 1.234375 12.269531 4.316407 16.925781 8.90625zm0 0"/><path d="m253.378906 279.4375-10.609375-10.605469c3.410157-3.410156 5.289063-7.949219 5.289063-12.789062 0-2.453125-.484375-4.835938-1.433594-7.078125l13.8125-5.851563c1.738281 4.105469 2.621094 8.453125 2.621094 12.929688-.003906 8.84375-3.441406 17.152343-9.679688 23.394531zm-36.183594-36.179688-10.605468-10.605468c4.625-4.625 10.457031-7.75 16.863281-9.03125l2.945313 14.707031c-3.496094.699219-6.675782 2.402344-9.203126 4.929687zm25.484376-.09375c-2.542969-2.503906-5.738282-4.1875-9.238282-4.859374l2.839844-14.730469c6.414062 1.234375 12.269531 4.316406 16.925781 8.90625zm0 0"/><path d="m424.777344 180.164062-10.605469-10.605468c3.40625-3.40625 5.285156-7.949219 5.285156-12.789063 0-2.453125-.480469-4.835937-1.433593-7.082031l13.816406-5.847656c1.734375 4.105468 2.617187 8.457031 2.617187 12.929687 0 8.847657-3.4375 17.15625-9.679687 23.394531zm-36.179688-36.179687-10.605468-10.605469c4.625-4.625 10.457031-7.75 16.859374-9.03125l2.945313 14.707032c-3.492187.699218-6.675781 2.402343-9.199219 4.929687zm25.480469-.09375c-2.542969-2.503906-5.734375-4.1875-9.234375-4.863281l2.835938-14.726563c6.417968 1.234375 12.269531 4.316407 16.929687 8.90625zm0 0"/><path d="m424.777344 378.453125-10.605469-10.605469c3.40625-3.410156 5.285156-7.949218 5.285156-12.789062 0-2.457032-.480469-4.835938-1.433593-7.078125l13.816406-5.851563c1.734375 4.101563 2.617187 8.453125 2.617187 12.929688 0 8.84375-3.4375 17.152344-9.679687 23.394531zm-36.179688-36.183594-10.605468-10.605469c4.625-4.625 10.457031-7.75 16.859374-9.03125l2.945313 14.710938c-3.492187.699219-6.675781 2.402344-9.199219 4.925781zm25.480469-.089843c-2.542969-2.507813-5.734375-4.1875-9.234375-4.863282l2.839844-14.726562c6.414062 1.234375 12.269531 4.316406 16.925781 8.90625zm0 0"/><path d="m81.976562 180.164062-10.605468-10.605468c3.410156-3.40625 5.285156-7.949219 5.285156-12.789063 0-2.453125-.480469-4.835937-1.429688-7.082031l13.8125-5.847656c1.738282 4.105468 2.617188 8.457031 2.617188 12.929687 0 8.847657-3.4375 17.15625-9.679688 23.394531zm-36.179687-36.179687-10.605469-10.605469c4.625-4.625 10.457032-7.75 16.859375-9.03125l2.945313 14.707032c-3.492188.699218-6.675782 2.402343-9.199219 4.929687zm25.480469-.09375c-2.542969-2.503906-5.738282-4.1875-9.238282-4.863281l2.839844-14.726563c6.417969 1.234375 12.269532 4.316407 16.929688 8.90625zm0 0"/><path d="m81.976562 378.453125-10.605468-10.605469c3.40625-3.410156 5.285156-7.949218 5.285156-12.789062 0-2.457032-.480469-4.835938-1.429688-7.078125l13.8125-5.851563c1.738282 4.101563 2.617188 8.453125 2.617188 12.929688 0 8.84375-3.4375 17.152344-9.679688 23.394531zm-36.179687-36.183594-10.605469-10.605469c4.625-4.625 10.457032-7.75 16.859375-9.03125l2.945313 14.710938c-3.492188.699219-6.675782 2.402344-9.199219 4.925781zm25.480469-.089843c-2.542969-2.507813-5.734375-4.1875-9.234375-4.863282l2.839843-14.726562c6.414063 1.234375 12.269532 4.316406 16.925782 8.90625zm0 0"/></svg>