<?xml version="1.0" encoding="iso-8859-1"?>
<!-- Generator: Adobe Illustrator 19.0.0, SVG Export Plug-In . SVG Version: 6.00 Build 0)  -->
<svg version="1.1" id="Capa_1" xmlns="http://www.w3.org/2000/svg" xmlns:xlink="http://www.w3.org/1999/xlink" x="0px" y="0px"
	 viewBox="0 0 480 480" style="enable-background:new 0 0 480 480;" xml:space="preserve">
<g>
	<g>
		<path d="M456,212h-8V92V12c0-4.416-3.584-8-8-8H48C21.528,4,0,25.528,0,52v376c0,26.472,21.528,48,48,48h392c4.416,0,8-3.584,8-8
			V356h8c13.232,0,24-10.768,24-24v-96C480,222.768,469.232,212,456,212z M48,20h384v64H48c-17.648,0-32-14.352-32-32
			S30.352,20,48,20z M248,236c0,4.408-3.592,8-8,8c-4.408,0-8-3.592-8-8c0-4.408,3.592-8,8-8S248,231.592,248,236z M272,380
			c-4.408,0-8-3.592-8-8c0-4.408,3.592-8,8-8c4.408,0,8,3.592,8,8C280,376.408,276.408,380,272,380z M432,460h-32v-40
			c0-13.232-10.768-24-24-24h-17.472c-3.312-9.288-12.112-16-22.528-16c-13.232,0-24,10.768-24,24s10.768,24,24,24
			c10.416,0,19.216-6.712,22.528-16H376c4.408,0,8,3.592,8,8v40H280v-65.472c9.288-3.312,16-12.112,16-22.528
			c0-13.232-10.768-24-24-24s-24,10.768-24,24c0,10.416,6.712,19.216,16,22.528V460h-80V324c0-4.408,3.592-8,8-8h25.472
			c3.312,9.288,12.112,16,22.528,16c13.232,0,24-10.768,24-24s-10.768-24-24-24c-10.416,0-19.216,6.712-22.528,16H192
			c-13.232,0-24,10.768-24,24v136H48c-17.648,0-32-14.352-32-32v-8h89.472c3.312,9.288,12.112,16,22.528,16
			c13.232,0,24-10.768,24-24s-10.768-24-24-24c-10.416,0-19.216,6.712-22.528,16H16v-48h80c13.232,0,24-10.768,24-24v-25.472
			c9.288-3.312,16-12.112,16-22.528c0-13.232-10.768-24-24-24s-24,10.768-24,24c0,10.416,6.712,19.216,16,22.528V332
			c0,4.408-3.592,8-8,8H16V212h41.472c3.312,9.288,12.112,16,22.528,16c13.232,0,24-10.768,24-24s-10.768-24-24-24
			c-10.416,0-19.216,6.712-22.528,16H16v-48h120c13.232,0,24,10.768,24,24v41.472c-9.288,3.312-16,12.112-16,22.528
			c0,13.232,10.768,24,24,24s24-10.768,24-24c0-10.416-6.712-19.216-16-22.528V172c0-22.056-17.944-40-40-40H16V87.744
			c0.136,0.12,0.296,0.208,0.432,0.32c1.872,1.64,3.872,3.136,5.984,4.472c0.336,0.216,0.672,0.416,1.016,0.616
			c2.16,1.296,4.416,2.44,6.776,3.384c0.328,0.136,0.672,0.24,1,0.368c2.448,0.92,4.968,1.672,7.584,2.184
			c0.24,0.048,0.48,0.064,0.72,0.112c2.76,0.496,5.592,0.8,8.488,0.8h184v113.472c-9.288,3.312-16,12.112-16,22.528
			c0,13.232,10.768,24,24,24s24-10.768,24-24c0-10.416-6.712-19.216-16-22.528V100h184v16h-80c-22.056,0-40,17.944-40,40v9.472
			c-9.288,3.312-16,12.112-16,22.528c0,13.232,10.768,24,24,24s24-10.768,24-24c0-10.416-6.712-19.216-16-22.528V156
			c0-13.232,10.768-24,24-24h80v80h-53.808H376c-30.816,0-57.104,19.504-67.352,46.784c-0.08,0.208-0.152,0.424-0.232,0.64
			c-0.616,1.688-1.184,3.4-1.672,5.144c-0.24,0.848-0.448,1.704-0.664,2.568c-0.304,1.248-0.592,2.504-0.824,3.784
			c-0.224,1.216-0.4,2.44-0.56,3.68c-0.144,1.08-0.28,2.152-0.376,3.24c-0.04,0.464-0.128,0.92-0.16,1.384
			c-0.056,0.832-0.008,1.648-0.032,2.472C304.096,282.464,304,283.224,304,284c0,0.432,0.056,0.856,0.064,1.288
			c0.024,1.352,0.112,2.688,0.208,4.024c0.08,1.064,0.152,2.12,0.28,3.168c0.176,1.488,0.416,2.952,0.672,4.416
			c0.152,0.84,0.296,1.688,0.48,2.52c0.352,1.632,0.784,3.232,1.248,4.832c0.184,0.624,0.36,1.256,0.56,1.872
			c0.552,1.704,1.168,3.376,1.848,5.032c0.208,0.496,0.408,1,0.624,1.488c0.72,1.664,1.512,3.296,2.36,4.896
			c0.256,0.488,0.52,0.976,0.792,1.464c0.848,1.52,1.752,3.008,2.72,4.472c0.368,0.56,0.752,1.112,1.136,1.664
			c0.936,1.336,1.904,2.64,2.936,3.92c0.504,0.624,1.032,1.232,1.56,1.84c0.664,0.776,1.272,1.584,1.976,2.336
			c0.368,0.392,0.776,0.728,1.152,1.112c0.584,0.592,1.2,1.16,1.8,1.736c1.096,1.04,2.192,2.08,3.352,3.048
			c0.744,0.624,1.528,1.2,2.296,1.792c1.064,0.816,2.112,1.648,3.216,2.408c1.136,0.784,2.328,1.488,3.512,2.208
			c0.792,0.48,1.568,1,2.376,1.448c1.792,0.992,3.64,1.888,5.528,2.736c0.256,0.112,0.504,0.256,0.768,0.368
			c8.76,3.784,18.4,5.912,28.536,5.912h56V460z M344,404c0,4.408-3.592,8-8,8c-4.408,0-8-3.592-8-8c0-4.408,3.592-8,8-8
			C340.408,396,344,399.592,344,404z M232,308c0-4.408,3.592-8,8-8s8,3.592,8,8c0,4.408-3.592,8-8,8
			C235.592,316,232,312.408,232,308z M120,412c0-4.408,3.592-8,8-8s8,3.592,8,8c0,4.408-3.592,8-8,8S120,416.408,120,412z M104,284
			c0-4.408,3.592-8,8-8s8,3.592,8,8c0,4.408-3.592,8-8,8S104,288.408,104,284z M72,204c0-4.408,3.592-8,8-8s8,3.592,8,8
			s-3.592,8-8,8S72,208.408,72,204z M168,228c4.408,0,8,3.592,8,8c0,4.408-3.592,8-8,8s-8-3.592-8-8
			C160,231.592,163.592,228,168,228z M328,188c0,4.408-3.592,8-8,8c-4.408,0-8-3.592-8-8s3.592-8,8-8
			C324.408,180,328,183.592,328,188z M464,332c0,4.408-3.592,8-8,8h-16h-64c-13.248,0-25.408-4.648-35.008-12.36
			c-0.256-0.208-0.52-0.392-0.768-0.608c-1-0.832-1.936-1.72-2.872-2.616c-0.44-0.416-0.88-0.824-1.312-1.264
			c-0.832-0.848-1.624-1.744-2.408-2.648c-0.424-0.488-0.856-0.984-1.256-1.488c-0.784-0.976-1.528-1.976-2.248-3.008
			c-0.312-0.44-0.616-0.888-0.912-1.336c-0.736-1.12-1.432-2.264-2.088-3.44c-0.224-0.392-0.44-0.792-0.648-1.192
			c-0.648-1.224-1.248-2.472-1.808-3.744c-0.176-0.408-0.352-0.824-0.52-1.24c-0.512-1.256-0.984-2.528-1.4-3.832
			c-0.168-0.52-0.32-1.04-0.464-1.56c-0.352-1.208-0.672-2.424-0.944-3.656c-0.152-0.688-0.272-1.384-0.4-2.072
			c-0.2-1.096-0.376-2.2-0.504-3.32c-0.096-0.856-0.16-1.72-0.224-2.584c-0.072-1.008-0.136-2.016-0.152-3.032
			c-0.016-0.952,0.008-1.904,0.04-2.856c0.032-0.992,0.064-1.976,0.152-2.952c0.072-0.856,0.184-1.696,0.296-2.544
			c0.128-0.952,0.264-1.896,0.432-2.832c0.192-1.04,0.424-2.064,0.68-3.088c0.144-0.592,0.296-1.184,0.456-1.768
			c6.784-23.68,29.472-40.96,56.072-40.96H440h16c4.408,0,8,3.592,8,8V332z"/>
	</g>
</g>
<g>
	<g>
		<path d="M376,252c-17.648,0-32,14.352-32,32s14.352,32,32,32s32-14.352,32-32S393.648,252,376,252z M376,300
			c-8.824,0-16-7.176-16-16c0-8.824,7.176-16,16-16c8.824,0,16,7.176,16,16C392,292.824,384.824,300,376,300z"/>
	</g>
</g>
<g>
</g>
<g>
</g>
<g>
</g>
<g>
</g>
<g>
</g>
<g>
</g>
<g>
</g>
<g>
</g>
<g>
</g>
<g>
</g>
<g>
</g>
<g>
</g>
<g>
</g>
<g>
</g>
<g>
</g>
</svg>
