<?xml version="1.0" encoding="utf-8"?>
<!-- Generator: Adobe Illustrator 23.0.1, SVG Export Plug-In . SVG Version: 6.00 Build 0)  -->
<svg version="1.1" id="Capa_1" xmlns="http://www.w3.org/2000/svg" xmlns:xlink="http://www.w3.org/1999/xlink" x="0px" y="0px"
	 viewBox="0 0 140 140" style="enable-background:new 0 0 140 140;" xml:space="preserve">
<style type="text/css">
	.st0{fill:#F7C34D;}
</style>
<g>
	<path d="M134.4,48.31c-0.51,0-0.93-0.42-0.93-0.93V35.24c0-16.89-15.98-17.08-16.66-17.08H50.67c-0.51,0-0.93-0.42-0.93-0.93
		s0.42-0.93,0.93-0.93h66.13c0.18,0,18.52,0.22,18.52,18.95v12.14C135.33,47.89,134.91,48.31,134.4,48.31z"/>
</g>
<g>
	<path d="M16.3,31.23c-0.24,0-0.48-0.09-0.66-0.27L1.91,17.22L15.64,3.49c0.36-0.36,0.95-0.36,1.32,0s0.36,0.95,0,1.32L4.54,17.22
		l12.42,12.42c0.36,0.36,0.36,0.95,0,1.32C16.77,31.14,16.54,31.23,16.3,31.23z"/>
</g>
<g>
	<path d="M74.39,9.66H50.49c-0.51,0-0.93-0.42-0.93-0.93s0.42-0.93,0.93-0.93h23.89c0.51,0,0.93,0.42,0.93,0.93
		S74.9,9.66,74.39,9.66z"/>
</g>
<g>
	<path d="M30.31,18.15H3.22c-0.51,0-0.93-0.42-0.93-0.93s0.42-0.93,0.93-0.93h27.09c0.51,0,0.93,0.42,0.93,0.93
		S30.83,18.15,30.31,18.15z"/>
</g>
<g>
	<path d="M44.47,18.15H36.2c-0.51,0-0.93-0.42-0.93-0.93s0.42-0.93,0.93-0.93h8.28c0.51,0,0.93,0.42,0.93,0.93
		S44.99,18.15,44.47,18.15z"/>
</g>
<g>
	<path d="M135.57,52.96h-2.35c-1.49,0-2.72,1.22-2.72,2.72v2.35c0,1.49,1.22,2.72,2.72,2.72h2.35c1.49,0,2.72-1.22,2.72-2.72v-2.35
		C138.29,54.18,137.06,52.96,135.57,52.96z"/>
	<path d="M134.4,61.67c-2.66,0-4.82-2.16-4.82-4.82c0-2.66,2.16-4.82,4.82-4.82c2.66,0,4.82,2.16,4.82,4.82
		C139.22,59.51,137.05,61.67,134.4,61.67z M134.4,53.89c-1.63,0-2.96,1.33-2.96,2.96c0,1.63,1.33,2.96,2.96,2.96
		c1.63,0,2.96-1.33,2.96-2.96C137.36,55.22,136.03,53.89,134.4,53.89z"/>
</g>
<g id="_Path_2_20_">
	<path d="M43.73,57.64c-4.94,0-9.2-3.51-10.14-8.38l-0.03-0.18l0.03-0.18c0.94-4.81,5.19-8.38,10.09-8.49h50.74v17.22H43.81
		C43.78,57.64,43.76,57.64,43.73,57.64z M35.45,49.09c0.84,3.9,4.29,6.69,8.29,6.69c0.02,0,0.04,0,0.06,0h48.75v-13.5H43.7
		C39.74,42.37,36.3,45.22,35.45,49.09z"/>
</g>
<g id="_Path_3_8_">
	<path class="st0" d="M98.75,79.59c0,2.97-2.41,5.38-5.38,5.38s-5.38-2.41-5.38-5.38c0-2.97,2.41-5.38,5.38-5.38l0,0
		C96.34,74.2,98.75,76.61,98.75,79.59"/>
	<path d="M93.37,85.9c-3.48,0-6.31-2.83-6.31-6.31c0-3.48,2.83-6.31,6.31-6.31c3.48,0,6.31,2.83,6.31,6.31
		C99.69,83.07,96.85,85.9,93.37,85.9z M93.37,75.13c-2.46,0-4.45,2-4.45,4.45c0,2.45,2,4.45,4.45,4.45c2.45,0,4.45-2,4.45-4.45
		C97.82,77.13,95.83,75.13,93.37,75.13z"/>
</g>
<g>
	<path class="st0" d="M34.5,82.11c-0.29,0-0.57-0.13-0.75-0.39c-0.3-0.42-0.21-1,0.21-1.3l8.17-5.92h21.34
		c0.51,0,0.93,0.42,0.93,0.93s-0.42,0.93-0.93,0.93H42.73l-7.68,5.56C34.88,82.05,34.69,82.11,34.5,82.11z"/>
</g>
<g>
	<path class="st0" d="M108.29,96.32H59.47l-6.51-5.21c-0.4-0.32-0.47-0.91-0.14-1.31c0.32-0.4,0.91-0.47,1.31-0.15l6,4.8h48.17
		c0.51,0,0.93,0.42,0.93,0.93C109.23,95.91,108.81,96.32,108.29,96.32z"/>
</g>
<g>
	<circle class="st0" cx="64.35" cy="75.2" r="2.2"/>
</g>
<g>
	<circle class="st0" cx="52.89" cy="89.52" r="2.2"/>
</g>
<g>
	<path class="st0" d="M109.07,69.57c-0.19,0-0.38-0.06-0.54-0.18l-7.68-5.56h-23.6c-0.51,0-0.93-0.42-0.93-0.93s0.42-0.93,0.93-0.93
		h24.2l8.17,5.92c0.42,0.3,0.51,0.88,0.21,1.3C109.64,69.44,109.36,69.57,109.07,69.57z"/>
</g>
<g>
	<circle class="st0" cx="76.36" cy="62.66" r="2.2"/>
</g>
<g>
	<path d="M64.35,124.49H23.27c-0.19,0-18.52-0.22-18.52-18.95V93.4c0-0.51,0.42-0.93,0.93-0.93s0.93,0.42,0.93,0.93v12.14
		c0,16.85,15.98,17.08,16.66,17.08h41.07c0.51,0,0.93,0.42,0.93,0.93S64.86,124.49,64.35,124.49z"/>
</g>
<g>
	<path d="M123.78,137.56c-0.24,0-0.48-0.09-0.66-0.27c-0.36-0.36-0.36-0.95,0-1.32l12.42-12.41l-12.42-12.42
		c-0.36-0.36-0.36-0.95,0-1.32s0.95-0.36,1.32,0l13.73,13.73l-13.73,13.73C124.26,137.47,124.02,137.56,123.78,137.56z"/>
</g>
<g>
	<path d="M64.35,132.98H40.45c-0.51,0-0.93-0.42-0.93-0.93s0.42-0.93,0.93-0.93h23.89c0.51,0,0.93,0.42,0.93,0.93
		S64.86,132.98,64.35,132.98z"/>
</g>
<g>
	<path d="M136.85,124.49H85.94c-0.51,0-0.93-0.42-0.93-0.93s0.42-0.93,0.93-0.93h50.92c0.51,0,0.93,0.42,0.93,0.93
		S137.37,124.49,136.85,124.49z"/>
</g>
<g>
	<path d="M78.53,124.49h-8.28c-0.51,0-0.93-0.42-0.93-0.93s0.42-0.93,0.93-0.93h8.28c0.51,0,0.93,0.42,0.93,0.93
		S79.04,124.49,78.53,124.49z"/>
</g>
<g>
	<path d="M5.68,88.75c-2.66,0-4.82-2.16-4.82-4.82c0-2.66,2.16-4.82,4.82-4.82c2.66,0,4.82,2.16,4.82,4.82
		C10.5,86.59,8.34,88.75,5.68,88.75z M5.68,80.97c-1.63,0-2.96,1.33-2.96,2.96s1.33,2.96,2.96,2.96c1.63,0,2.96-1.33,2.96-2.96
		S7.31,80.97,5.68,80.97z"/>
</g>
<g id="_Path__8_">
	<path d="M110,102.72H43.7c-5.68-0.03-10.32-4.67-10.35-10.34v-41.5c0.01-0.68,0.1-1.35,0.25-2.01l1.01-4.33l0.81,4.37
		c0.74,3.99,4.23,6.93,8.29,6.98H110V102.72z M35.21,53.19v39.18c0.03,4.65,3.84,8.46,8.49,8.49h64.44v-43.1H43.7
		C40.21,57.71,37.08,55.93,35.21,53.19z"/>
</g>
</svg>
