<?xml version="1.0" encoding="utf-8"?>
<!-- Generator: Adobe Illustrator 23.0.1, SVG Export Plug-In . SVG Version: 6.00 Build 0)  -->
<svg version="1.1" id="Capa_1" xmlns="http://www.w3.org/2000/svg" xmlns:xlink="http://www.w3.org/1999/xlink" x="0px" y="0px"
	 viewBox="0 0 140 140" style="enable-background:new 0 0 140 140;" xml:space="preserve">
<style type="text/css">
	.st0{fill:#F7C34D;}
</style>
<g>
	<path d="M41.18,91.07H3.38c-0.48,0-0.86-0.39-0.86-0.86s0.39-0.86,0.86-0.86h37.8c0.48,0,0.86,0.39,0.86,0.86
		S41.66,91.07,41.18,91.07z"/>
</g>
<g>
	<path d="M138.01,91.07h-37.8c-0.48,0-0.86-0.39-0.86-0.86s0.39-0.86,0.86-0.86h37.8c0.48,0,0.86,0.39,0.86,0.86
		S138.49,91.07,138.01,91.07z"/>
</g>
<g>
	<path d="M5.71,84.45c-0.48,0-0.86-0.39-0.86-0.86V60.95c0-0.48,0.39-0.86,0.86-0.86s0.86,0.39,0.86,0.86v22.64
		C6.57,84.07,6.18,84.45,5.71,84.45z"/>
</g>
<g>
	<path d="M18.47,84.45c-0.48,0-0.86-0.39-0.86-0.86V39.64c0-0.48,0.39-0.86,0.86-0.86c0.48,0,0.86,0.39,0.86,0.86v43.95
		C19.34,84.07,18.95,84.45,18.47,84.45z"/>
</g>
<g>
	<path d="M31.24,84.45c-0.48,0-0.86-0.39-0.86-0.86V63.46c0-0.48,0.39-0.86,0.86-0.86c0.48,0,0.86,0.39,0.86,0.86v20.13
		C32.11,84.07,31.72,84.45,31.24,84.45z"/>
</g>
<g>
	<path d="M109.3,84.45c-0.48,0-0.86-0.39-0.86-0.86V54.2c0-0.48,0.39-0.86,0.86-0.86c0.48,0,0.86,0.39,0.86,0.86v29.39
		C110.16,84.07,109.77,84.45,109.3,84.45z"/>
</g>
<g>
	<path d="M122.06,84.45c-0.48,0-0.86-0.39-0.86-0.86V46.93c0-0.48,0.39-0.86,0.86-0.86s0.86,0.39,0.86,0.86v36.66
		C122.93,84.07,122.54,84.45,122.06,84.45z"/>
</g>
<g>
	<path d="M134.83,84.45c-0.48,0-0.86-0.39-0.86-0.86V60.95c0-0.48,0.39-0.86,0.86-0.86s0.86,0.39,0.86,0.86v22.64
		C135.7,84.07,135.31,84.45,134.83,84.45z"/>
</g>
<g>
	<path d="M134.83,58.11c-0.48,0-0.86-0.39-0.86-0.86v-6.09c0-0.48,0.39-0.86,0.86-0.86s0.86,0.39,0.86,0.86v6.09
		C135.7,57.72,135.31,58.11,134.83,58.11z"/>
</g>
<g>
	<path d="M122.06,36.51c-0.48,0-0.86-0.39-0.86-0.86v-5.97c0-0.48,0.39-0.86,0.86-0.86s0.86,0.39,0.86,0.86v5.97
		C122.93,36.12,122.54,36.51,122.06,36.51z"/>
</g>
<g>
	<path d="M109.3,51.3c-0.48,0-0.86-0.39-0.86-0.86v-8.28c0-0.48,0.39-0.86,0.86-0.86c0.48,0,0.86,0.39,0.86,0.86v8.28
		C110.16,50.92,109.77,51.3,109.3,51.3z"/>
</g>
<g>
	<path d="M122.06,44.26c-0.48,0-0.86-0.39-0.86-0.86v-4.33c0-0.48,0.39-0.86,0.86-0.86s0.86,0.39,0.86,0.86v4.33
		C122.93,43.88,122.54,44.26,122.06,44.26z"/>
</g>
<g>
	<path d="M134.83,49.26c-0.48,0-0.86-0.39-0.86-0.86v-2.93c0-0.48,0.39-0.86,0.86-0.86s0.86,0.39,0.86,0.86v2.93
		C135.7,48.87,135.31,49.26,134.83,49.26z"/>
</g>
<g>
	<path d="M109.3,38.89c-0.48,0-0.86-0.39-0.86-0.86v-3.99c0-0.48,0.39-0.86,0.86-0.86c0.48,0,0.86,0.39,0.86,0.86v3.99
		C110.16,38.51,109.77,38.89,109.3,38.89z"/>
</g>
<g>
	<path d="M5.63,17.26c-2.47,0-4.47-2.01-4.47-4.47c0-2.47,2.01-4.47,4.47-4.47s4.47,2.01,4.47,4.47C10.1,15.25,8.1,17.26,5.63,17.26
		z M5.63,10.04c-1.51,0-2.75,1.23-2.75,2.75c0,1.51,1.23,2.75,2.75,2.75s2.75-1.23,2.75-2.75C8.38,11.27,7.15,10.04,5.63,10.04z"/>
</g>
<g>
	<path d="M134.83,32.03L134.83,32.03c-1.98,0-3.61,1.62-3.61,3.61v0c0,1.98,1.62,3.61,3.61,3.61l0,0c1.98,0,3.61-1.62,3.61-3.61v0
		C138.44,33.66,136.82,32.03,134.83,32.03z"/>
</g>
<g>
	<path d="M138.07,123.67H3.38c-0.48,0-0.86-0.39-0.86-0.86s0.39-0.86,0.86-0.86h134.69c0.48,0,0.86,0.39,0.86,0.86
		S138.54,123.67,138.07,123.67z"/>
</g>
<g>
	<path d="M5.71,34.04c-0.48,0-0.86-0.39-0.86-0.86v-8.28c0-0.48,0.39-0.86,0.86-0.86s0.86,0.39,0.86,0.86v8.28
		C6.57,33.65,6.18,34.04,5.71,34.04z"/>
</g>
<g>
	<path d="M133.41,108.2h-6.64c-0.48,0-0.86-0.39-0.86-0.86s0.39-0.86,0.86-0.86h6.64c0.48,0,0.86,0.39,0.86,0.86
		S133.89,108.2,133.41,108.2z M120.13,108.2h-6.64c-0.48,0-0.86-0.39-0.86-0.86s0.39-0.86,0.86-0.86h6.64
		c0.48,0,0.86,0.39,0.86,0.86S120.61,108.2,120.13,108.2z M106.85,108.2h-6.64c-0.48,0-0.86-0.39-0.86-0.86s0.39-0.86,0.86-0.86
		h6.64c0.48,0,0.86,0.39,0.86,0.86S107.33,108.2,106.85,108.2z"/>
</g>
<g>
	<path d="M36.58,108.2h-6.64c-0.48,0-0.86-0.39-0.86-0.86s0.39-0.86,0.86-0.86h6.64c0.48,0,0.86,0.39,0.86,0.86
		S37.05,108.2,36.58,108.2z M23.3,108.2h-6.64c-0.48,0-0.86-0.39-0.86-0.86s0.39-0.86,0.86-0.86h6.64c0.48,0,0.86,0.39,0.86,0.86
		S23.77,108.2,23.3,108.2z M10.02,108.2H3.38c-0.48,0-0.86-0.39-0.86-0.86s0.39-0.86,0.86-0.86h6.64c0.48,0,0.86,0.39,0.86,0.86
		S10.49,108.2,10.02,108.2z"/>
</g>
<g>
	<path d="M92.17,115.94H49.22c-4.91,0-8.9-3.99-8.9-8.9V37.96c0-4.91,3.99-8.9,8.9-8.9h42.95c4.91,0,8.9,3.99,8.9,8.9v69.08
		C101.07,111.95,97.08,115.94,92.17,115.94z M49.22,30.79c-3.96,0-7.18,3.22-7.18,7.17v69.08c0,3.95,3.22,7.17,7.18,7.17h42.95
		c3.96,0,7.17-3.22,7.17-7.17V37.96c0-3.96-3.22-7.17-7.17-7.17H49.22z"/>
</g>
<g>
	<path d="M61.07,75.67H48.54V63.14h12.53V75.67z M50.27,73.94h9.08v-9.08h-9.08V73.94z"/>
</g>
<g>
	<path d="M77.02,75.67H64.49V63.14h12.53V75.67z M66.21,73.94h9.08v-9.08h-9.08V73.94z"/>
</g>
<g>
	<rect x="81.18" y="64" class="st0" width="10.81" height="10.81"/>
	<path d="M92.85,75.67H80.32V63.14h12.53V75.67z M82.05,73.94h9.08v-9.08h-9.08V73.94z"/>
</g>
<g>
	<path d="M61.07,91.45H48.54V78.92h12.53V91.45z M50.27,89.73h9.08v-9.08h-9.08V89.73z"/>
</g>
<g>
	<path d="M77.02,91.45H64.49V78.92h12.53V91.45z M66.21,89.73h9.08v-9.08h-9.08V89.73z"/>
</g>
<g>
	<rect x="81.18" y="79.79" class="st0" width="10.81" height="10.8"/>
	<path d="M92.85,91.45H80.32V78.92h12.53V91.45z M82.05,89.73h9.08v-9.08h-9.08V89.73z"/>
</g>
<g>
	<rect x="49.4" y="95.57" class="st0" width="10.81" height="10.81"/>
	<path d="M61.07,107.24H48.54V94.71h12.53V107.24z M50.27,105.51h9.08v-9.08h-9.08V105.51z"/>
</g>
<g>
	<path d="M77.02,107.24H64.49V94.71h12.53V107.24z M66.21,105.51h9.08v-9.08h-9.08V105.51z"/>
</g>
<g>
	<path d="M92.85,107.24H80.32V94.71h12.53V107.24z M82.05,105.51h9.08v-9.08h-9.08V105.51z"/>
</g>
<g>
	<path d="M100.21,57.33H41.18c-0.48,0-0.86-0.39-0.86-0.86c0-0.48,0.39-0.86,0.86-0.86h59.03c0.48,0,0.86,0.39,0.86,0.86
		C101.08,56.95,100.69,57.33,100.21,57.33z"/>
</g>
<g>
	<path d="M49.8,51.3c-0.48,0-0.86-0.39-0.86-0.86v-10.8c0-0.48,0.39-0.86,0.86-0.86c0.48,0,0.86,0.39,0.86,0.86v10.8
		C50.67,50.92,50.28,51.3,49.8,51.3z"/>
</g>
<g>
	<path d="M70.75,51.3c-0.48,0-0.86-0.39-0.86-0.86v-10.8c0-0.48,0.39-0.86,0.86-0.86s0.86,0.39,0.86,0.86v10.8
		C71.62,50.92,71.23,51.3,70.75,51.3z"/>
</g>
<g>
	<path d="M60.21,49.58c-0.48,0-0.86-0.39-0.86-0.86v-7.36c0-0.48,0.39-0.86,0.86-0.86c0.48,0,0.86,0.39,0.86,0.86v7.36
		C61.07,49.19,60.68,49.58,60.21,49.58z"/>
</g>
<g>
	<path d="M63.89,45.9h-7.36c-0.48,0-0.86-0.39-0.86-0.86s0.39-0.86,0.86-0.86h7.36c0.48,0,0.86,0.39,0.86,0.86
		S64.36,45.9,63.89,45.9z"/>
</g>
<g>
	<path d="M81.94,37.86h-1.33c-0.48,0-0.86-0.39-0.86-0.86s0.39-0.86,0.86-0.86h1.33c0.48,0,0.86,0.39,0.86,0.86
		S82.42,37.86,81.94,37.86z"/>
</g>
<g>
	<path d="M94.1,37.86h-6.69c-0.48,0-0.86-0.39-0.86-0.86s0.39-0.86,0.86-0.86h6.69c0.48,0,0.86,0.39,0.86,0.86
		S94.57,37.86,94.1,37.86z"/>
</g>
<g>
	<path class="st0" d="M6.52,42.38H4.74c-1.49,0-2.72,1.22-2.72,2.72v1.78c0,1.49,1.22,2.72,2.72,2.72h1.78
		c1.49,0,2.72-1.22,2.72-2.72V45.1C9.24,43.6,8.02,42.38,6.52,42.38z"/>
	<path d="M5.63,50.46c-2.47,0-4.47-2.01-4.47-4.47c0-2.47,2.01-4.47,4.47-4.47s4.47,2.01,4.47,4.47C10.1,48.46,8.1,50.46,5.63,50.46
		z M5.63,43.24c-1.51,0-2.75,1.23-2.75,2.75c0,1.51,1.23,2.75,2.75,2.75s2.75-1.23,2.75-2.75C8.38,44.48,7.15,43.24,5.63,43.24z"/>
</g>
</svg>
