<?xml version="1.0" encoding="utf-8"?>
<!-- Generator: Adobe Illustrator 23.0.1, SVG Export Plug-In . SVG Version: 6.00 Build 0)  -->
<svg version="1.1" id="Capa_1" xmlns="http://www.w3.org/2000/svg" xmlns:xlink="http://www.w3.org/1999/xlink" x="0px" y="0px"
	 viewBox="0 0 140 140" style="enable-background:new 0 0 140 140;" xml:space="preserve">
<style type="text/css">
	.st0{fill:#F7C34D;}
</style>
<g id="_Path_2_19_">
	<path d="M70.86,90.27c-3.34,0-6.7-0.41-10.02-1.26C45.21,84.97,33.42,72.07,30.8,56.15c-1.77-10.75,0.75-21.55,7.1-30.4
		c6.35-8.85,15.77-14.7,26.52-16.47c10.75-1.77,21.54,0.75,30.4,7.1c8.85,6.35,14.7,15.77,16.47,26.52
		c0.08,0.49-0.25,0.94-0.74,1.02c-0.49,0.08-0.94-0.25-1.02-0.73c-1.69-10.28-7.29-19.29-15.75-25.36
		c-8.47-6.07-18.79-8.49-29.07-6.79c-10.28,1.69-19.28,7.29-25.36,15.75s-8.48,18.79-6.79,29.07c2.51,15.23,13.78,27.56,28.72,31.43
		c16.67,4.27,34.47-3.06,43.29-17.83c0.25-0.42,0.8-0.56,1.22-0.31c0.42,0.25,0.56,0.8,0.31,1.22
		C98.64,82.87,85.02,90.27,70.86,90.27z"/>
</g>
<g>
	<path d="M66.67,45.8c-0.23,0-0.46-0.09-0.63-0.26l-8.37-8.37c-0.35-0.35-0.35-0.91,0-1.26c0.35-0.35,0.91-0.35,1.26,0l8.37,8.37
		c0.35,0.35,0.35,0.91,0,1.26C67.13,45.72,66.9,45.8,66.67,45.8z"/>
</g>
<g>
	<path d="M50.26,72.86c-0.23,0-0.46-0.09-0.63-0.26c-0.35-0.35-0.35-0.91,0-1.26l17.23-17.23c0.35-0.35,0.91-0.35,1.26,0
		c0.35,0.35,0.35,0.91,0,1.26L50.89,72.6C50.71,72.77,50.49,72.86,50.26,72.86z"/>
</g>
<g>
	<path d="M83.29,109.26c-0.49,0-0.89-0.4-0.89-0.89V96.02c0-0.49,0.4-0.89,0.89-0.89s0.89,0.4,0.89,0.89v12.36
		C84.18,108.87,83.78,109.26,83.29,109.26z"/>
</g>
<g>
	<path d="M70,131.21c-0.49,0-0.89-0.4-0.89-0.89V97.8c0-0.49,0.4-0.89,0.89-0.89s0.89,0.4,0.89,0.89v32.52
		C70.89,130.81,70.49,131.21,70,131.21z"/>
</g>
<g>
	<path d="M56.72,106.4c-0.49,0-0.89-0.4-0.89-0.89v-9.92c0-0.49,0.4-0.89,0.89-0.89s0.89,0.4,0.89,0.89v9.92
		C57.61,106,57.21,106.4,56.72,106.4z"/>
</g>
<g>
	<path d="M89.93,113.05c-0.49,0-0.89-0.4-0.89-0.89V94.1c0-0.49,0.4-0.89,0.89-0.89s0.89,0.4,0.89,0.89v18.05
		C90.82,112.65,90.42,113.05,89.93,113.05z"/>
</g>
<g>
	<path d="M76.65,123.19c-0.49,0-0.89-0.4-0.89-0.89V97.29c0-0.49,0.4-0.89,0.89-0.89s0.89,0.4,0.89,0.89v25.01
		C77.54,122.79,77.14,123.19,76.65,123.19z"/>
</g>
<g>
	<path d="M63.36,114.15c-0.49,0-0.89-0.4-0.89-0.89V97.04c0-0.49,0.4-0.89,0.89-0.89s0.89,0.4,0.89,0.89v16.22
		C64.25,113.75,63.85,114.15,63.36,114.15z"/>
</g>
<g>
	<path d="M110.55,45.54L96.33,33.56c-0.38-0.32-0.43-0.88-0.11-1.26c0.32-0.37,0.88-0.42,1.26-0.11l12.86,10.82l10.82-12.86
		c0.32-0.37,0.88-0.42,1.26-0.11c0.38,0.32,0.43,0.88,0.11,1.26L110.55,45.54z"/>
</g>
<g id="XMLID_21_">
	<circle class="st0" cx="70.78" cy="49.52" r="6.17"/>
	<path d="M70.78,56.58c-0.86,0-1.73-0.16-2.55-0.48c-1.76-0.68-3.15-2.01-3.91-3.73c-0.76-1.73-0.81-3.64-0.12-5.4
		c0.68-1.76,2.01-3.15,3.73-3.91c1.72-0.76,3.64-0.81,5.4-0.12c1.76,0.68,3.15,2.01,3.91,3.73l0,0c1.57,3.56-0.05,7.74-3.61,9.31
		C72.72,56.38,71.75,56.58,70.78,56.58z M70.78,44.24c-0.72,0-1.45,0.15-2.13,0.45c-1.29,0.57-2.28,1.61-2.79,2.92
		c-0.51,1.31-0.48,2.75,0.09,4.04c0.57,1.29,1.61,2.28,2.92,2.79c1.31,0.51,2.75,0.48,4.04-0.09c2.66-1.18,3.87-4.3,2.7-6.96
		c-0.57-1.29-1.61-2.28-2.92-2.79C72.07,44.35,71.42,44.24,70.78,44.24z"/>
</g>
<g id="_Path_2_18_">
	<path d="M71.13,98.37c-4.08,0-8.19-0.52-12.26-1.56c-3.1-0.8-6.12-1.91-9-3.3c-0.44-0.21-0.63-0.75-0.42-1.19
		c0.21-0.44,0.75-0.63,1.19-0.42c2.77,1.34,5.69,2.4,8.67,3.18c12.3,3.15,25.07,1.3,35.97-5.23c0.42-0.25,0.97-0.12,1.22,0.31
		c0.25,0.42,0.12,0.97-0.31,1.22C88.49,96.01,79.87,98.37,71.13,98.37z"/>
</g>
<g id="_Path_2_17_">
	<path d="M33.53,80.23c-0.26,0-0.52-0.12-0.7-0.34c-5.15-6.49-8.59-14.25-9.93-22.43c-1.86-11.32,0.33-22.98,6.17-32.83
		c0.25-0.42,0.8-0.56,1.22-0.31c0.42,0.25,0.56,0.8,0.31,1.22c-5.63,9.49-7.74,20.72-5.95,31.63c1.3,7.88,4.61,15.35,9.57,21.61
		c0.31,0.39,0.24,0.95-0.14,1.25C33.92,80.16,33.73,80.23,33.53,80.23z"/>
</g>
<g id="_Path_2_16_">
	<path d="M32.41,22.09c-0.18,0-0.37-0.06-0.53-0.17c-0.4-0.29-0.48-0.85-0.19-1.25c1.03-1.41,2.14-2.77,3.32-4.06
		c0.33-0.36,0.89-0.39,1.26-0.06c0.36,0.33,0.39,0.89,0.06,1.26c-1.13,1.24-2.2,2.55-3.2,3.91C32.95,21.96,32.68,22.09,32.41,22.09z
		"/>
</g>
<g id="_Path_2_15_">
	<path d="M38.81,14.96c-0.24,0-0.48-0.1-0.66-0.29c-0.33-0.36-0.31-0.93,0.06-1.26c2.15-1.96,4.49-3.74,6.95-5.28
		c0.41-0.26,0.97-0.14,1.23,0.28c0.26,0.42,0.14,0.97-0.28,1.23c-2.37,1.49-4.62,3.2-6.69,5.09C39.24,14.88,39.02,14.96,38.81,14.96
		z"/>
</g>
<g id="_Path_2_14_">
	<path d="M45.63,9.77c-0.3,0-0.59-0.15-0.76-0.42c-0.26-0.42-0.14-0.97,0.28-1.23c5.5-3.45,11.56-5.73,18.01-6.8
		c7.02-1.15,14.04-0.79,20.85,1.08c0.47,0.13,0.75,0.62,0.62,1.1c-0.13,0.48-0.62,0.75-1.1,0.62c-6.56-1.8-13.32-2.15-20.08-1.04
		C57.23,4.11,51.39,6.32,46.1,9.64C45.95,9.73,45.79,9.77,45.63,9.77z"/>
</g>
<g>
	<circle cx="89.93" cy="115.61" r="1.05"/>
</g>
<g>
	<circle cx="83.29" cy="111.5" r="1.05"/>
</g>
<g>
	<circle cx="76.65" cy="125.22" r="1.05"/>
</g>
<g>
	<circle cx="70" cy="133.51" r="1.05"/>
</g>
<g>
	<circle cx="63.15" cy="116.34" r="1.05"/>
</g>
<g>
	<circle cx="56.72" cy="108.37" r="1.05"/>
</g>
<g>
	<circle cx="89.93" cy="119.72" r="1.05"/>
</g>
<g>
	<circle cx="83.29" cy="115.61" r="1.05"/>
</g>
<g>
	<circle cx="76.65" cy="129.33" r="1.05"/>
</g>
<g>
	<circle cx="70" cy="137.62" r="1.05"/>
</g>
<g>
	<circle cx="63.15" cy="120.45" r="1.05"/>
</g>
<g>
	<circle cx="56.72" cy="112.49" r="1.05"/>
</g>
<g id="XMLID_8_">
	<circle class="st0" cx="31.45" cy="77.99" r="4.33"/>
	<path d="M31.46,83.21c-2.01,0-3.92-1.16-4.78-3.11c-1.16-2.63,0.03-5.72,2.67-6.89c2.64-1.16,5.72,0.04,6.89,2.67l0,0
		c1.16,2.63-0.04,5.72-2.67,6.89C32.88,83.07,32.16,83.21,31.46,83.21z M31.45,74.55c-0.46,0-0.93,0.1-1.38,0.29
		c-1.73,0.77-2.52,2.8-1.76,4.53c0.77,1.74,2.8,2.52,4.53,1.76c1.73-0.77,2.52-2.8,1.76-4.53C34.03,75.32,32.77,74.55,31.45,74.55z"
		/>
</g>
<g>
	<circle cx="84.25" cy="3.67" r="2.1"/>
</g>
<g>
	<circle cx="106.07" cy="69" r="2.1"/>
</g>
</svg>
